{"glyphs":{":":{"x_min":0,"x_max":240,"ha":240,"o":"m 137 392 b 137 406 126 417 113 417 b 99 417 87 406 87 392 b 87 379 99 367 113 367 b 126 367 137 379 137 392 z m 137 26 b 137 40 126 52 113 52 b 99 52 87 40 87 26 b 87 13 99 2 113 2 b 126 2 137 13 137 26 z"},"$":{"x_min":0,"x_max":632,"ha":632,"o":"m 289 591 b 289 583 296 575 306 575 b 316 575 322 583 322 591 l 322 654 b 342 652 363 647 381 642 b 384 641 385 641 387 641 b 394 641 400 645 402 652 b 406 661 400 669 392 674 b 372 680 347 686 323 687 b 315 688 308 682 306 675 b 296 675 289 667 289 658 z m 289 326 b 289 317 296 309 306 309 b 316 309 322 317 322 326 l 322 341 b 340 337 358 334 376 328 l 380 328 b 387 328 394 332 396 339 b 398 349 394 359 385 361 b 366 366 344 371 322 375 l 322 393 b 322 403 316 409 306 409 b 296 409 289 403 289 393 z m 530 148 b 531 147 532 147 534 147 b 541 147 547 152 549 159 b 553 170 554 183 554 195 b 554 208 552 222 548 235 b 546 243 536 248 529 246 b 519 242 513 234 517 224 b 519 215 520 205 520 195 b 520 185 519 175 517 168 b 514 159 520 150 530 148 z m 126 64 b 129 62 131 61 135 61 b 140 61 147 65 150 71 b 154 79 151 89 143 93 b 122 104 105 116 91 129 b 82 135 72 134 66 127 b 61 118 62 109 70 103 b 85 90 105 77 126 64 z m 97 539 b 98 538 100 538 103 538 b 109 538 116 542 118 549 b 124 566 135 583 150 597 b 156 604 156 613 150 621 b 144 628 132 628 127 621 b 108 604 95 583 86 560 b 83 551 88 541 97 539 z m 251 359 b 259 359 265 363 267 371 b 270 379 264 388 255 391 b 233 397 214 405 195 412 b 187 417 177 412 173 405 b 170 395 173 386 182 382 b 201 373 223 365 247 359 z m 289 60 b 289 51 296 44 306 44 b 316 44 322 51 322 60 l 322 128 b 322 137 316 144 306 144 b 296 144 289 137 289 128 z m 436 56 b 440 50 445 47 451 47 b 454 47 456 48 459 49 b 481 61 500 78 514 95 b 520 102 520 112 513 118 b 506 125 496 124 490 116 b 478 102 461 90 443 79 b 435 74 432 64 436 56 z m 259 16 b 266 16 273 22 275 29 b 276 38 271 47 262 48 b 240 53 220 58 201 67 b 192 69 182 65 178 56 b 175 47 180 38 188 35 b 210 27 232 21 256 16 z m 289 724 b 289 715 296 708 306 708 b 316 708 322 715 322 724 l 322 791 b 322 800 316 808 306 808 b 296 808 289 800 289 791 z m 486 272 b 489 269 493 268 497 268 b 501 268 506 269 509 273 b 515 280 514 291 508 297 b 492 312 473 325 450 336 b 441 339 431 336 428 328 b 423 320 426 310 435 306 b 455 296 473 284 486 272 z m 289 460 b 289 450 296 442 306 442 b 316 442 322 450 322 460 l 322 526 b 322 534 316 542 306 542 b 296 542 289 534 289 526 z m 289 -72 b 289 -80 296 -88 306 -88 b 316 -88 322 -80 322 -72 l 322 -6 b 322 3 316 12 306 12 b 296 12 289 3 289 -6 z m 121 421 b 125 418 129 417 132 417 b 137 417 141 418 145 422 b 152 429 151 439 144 444 b 129 460 119 475 115 493 b 113 501 104 508 95 505 b 85 503 81 494 82 485 b 89 461 103 439 121 421 z m 177 640 b 181 633 186 630 193 630 b 195 630 198 631 200 632 b 218 640 238 646 260 650 b 268 652 274 659 273 668 b 271 678 262 685 253 682 b 229 678 207 670 185 661 b 177 657 174 647 177 640 z m 308 27 b 309 18 316 12 324 12 l 325 12 b 349 13 373 17 395 23 b 402 25 408 34 406 43 b 403 51 395 57 386 55 b 366 49 345 46 323 45 b 314 44 308 36 308 27 z m 495 582 b 498 580 501 579 503 579 b 509 579 514 582 518 587 b 522 594 520 605 513 609 b 496 621 477 634 455 645 b 447 650 437 646 433 639 b 429 631 432 621 440 617 b 458 605 478 594 495 582 z m 289 194 b 289 185 296 178 306 178 b 316 178 322 185 322 194 l 322 260 b 322 269 316 276 306 276 b 296 276 289 269 289 260 z"},"?":{"x_min":0,"x_max":534,"ha":534,"o":"m 212 237 b 212 230 217 225 224 225 b 230 225 236 230 236 237 l 236 278 l 238 278 l 239 278 b 256 280 273 283 289 288 b 296 290 300 298 297 304 b 295 310 288 313 282 311 b 267 306 253 304 237 302 b 233 301 230 299 228 297 b 227 297 225 298 224 298 b 217 298 212 292 212 286 z m 423 467 b 429 467 435 473 435 480 l 435 489 b 435 504 433 517 431 530 b 430 537 423 541 417 540 b 410 539 406 533 407 525 b 409 513 410 501 410 489 l 410 481 b 410 473 415 469 423 467 z m 390 378 b 391 377 394 376 396 376 b 400 376 403 378 406 382 b 414 396 421 412 426 429 b 429 436 425 442 418 445 b 412 446 404 442 403 436 b 398 422 392 407 385 394 b 382 389 384 382 390 378 z m 392 569 b 395 564 400 561 403 561 b 406 561 407 561 409 563 b 415 565 418 572 415 578 b 407 594 398 608 388 622 b 384 627 376 628 371 624 b 366 619 365 612 368 607 b 378 595 386 582 392 569 z m 256 673 b 262 673 267 677 268 683 b 270 690 265 696 257 698 b 247 699 236 700 224 700 l 207 700 b 201 699 196 693 196 687 b 196 680 202 675 209 676 l 224 676 b 233 676 244 675 254 673 z m 107 651 b 109 647 113 646 118 646 b 120 646 121 646 124 647 b 137 655 150 661 165 666 b 171 669 174 676 172 682 b 171 688 164 692 157 689 b 141 684 125 677 110 667 b 106 664 103 657 107 651 z m 319 313 b 321 310 325 308 329 308 b 331 308 333 308 336 310 b 350 319 364 330 376 342 b 379 347 379 354 374 359 b 370 364 362 364 357 359 b 348 348 336 339 323 330 b 317 327 315 319 319 313 z m 45 578 b 47 577 49 577 51 577 b 55 577 60 580 61 583 b 70 596 78 608 89 619 b 94 624 94 631 89 636 b 84 641 76 641 72 636 b 60 623 49 610 41 595 b 37 589 39 582 45 578 z m 337 639 b 338 636 341 636 344 636 b 348 636 351 637 354 641 b 357 646 356 653 351 658 b 337 667 323 676 307 683 b 301 686 294 683 291 677 b 289 671 291 664 297 661 b 312 655 325 647 337 639 z m 212 157 b 212 149 217 145 224 145 b 230 145 236 149 236 157 l 236 189 b 236 195 230 201 224 201 b 217 201 212 195 212 189 z m 212 12 b 212 6 217 0 224 0 b 230 0 236 6 236 12 l 236 35 b 236 42 230 47 224 47 b 217 47 212 42 212 35 z"},"<":{"x_min":0,"x_max":620,"ha":620,"o":"m 66 377 l 66 377 b 69 374 73 372 76 372 l 76 372 b 81 372 84 374 87 377 l 129 419 l 129 419 b 134 424 134 435 129 441 l 129 441 b 123 447 114 445 108 441 l 66 398 l 66 398 b 60 392 60 383 66 377 z m 149 462 l 149 462 b 152 459 157 457 160 457 l 160 457 b 164 457 169 459 172 462 l 213 503 l 213 503 b 219 509 219 520 213 524 l 213 524 b 207 530 197 530 193 524 l 149 483 l 149 483 b 145 477 145 468 149 462 z m 234 547 l 234 547 b 237 544 240 542 245 542 l 245 542 b 248 542 252 544 255 547 l 297 588 l 297 588 b 303 594 303 603 297 609 l 297 609 b 291 615 282 615 276 609 l 234 567 l 234 567 b 228 561 228 551 234 547 z m 318 630 l 318 630 b 321 627 325 626 328 626 l 328 626 b 333 626 336 627 339 630 l 382 673 l 382 673 b 386 679 386 688 380 694 l 380 694 b 376 700 365 700 359 694 l 318 652 l 318 652 b 312 646 312 636 318 630 z m 359 4 l 359 4 b 362 1 367 0 370 0 l 370 0 b 374 0 379 1 380 4 l 380 4 b 386 10 386 19 382 25 l 339 69 l 339 69 b 333 74 324 74 318 69 l 318 69 b 312 63 312 52 318 48 z m 276 89 l 276 89 b 279 86 282 85 286 85 l 286 85 b 291 85 294 86 297 89 l 297 89 b 303 95 303 104 297 110 l 255 152 l 255 152 b 249 158 240 158 234 152 l 234 152 b 228 147 228 137 234 131 z m 193 174 l 193 174 b 196 171 199 170 203 170 l 203 170 b 206 170 210 171 213 174 l 213 174 b 219 180 219 189 213 195 l 172 237 l 172 237 b 166 243 155 243 149 237 l 149 237 b 145 231 145 222 149 216 z m 108 258 l 108 258 b 111 256 115 255 118 255 l 118 255 b 123 255 126 256 129 258 l 129 258 b 134 264 134 274 129 280 l 87 322 l 87 322 b 81 328 72 328 66 322 l 66 322 b 60 316 60 307 66 301 z"},"'":{"x_min":0,"x_max":230,"ha":230,"o":"m 71 622 b 71 619 74 616 77 616 l 80 616 b 114 625 118 655 118 671 l 118 681 b 117 681 117 682 117 683 b 114 693 104 701 94 701 b 80 701 68 689 68 675 b 68 662 80 651 94 651 l 99 651 b 96 642 89 634 76 631 b 72 629 69 626 71 622 z"},"=":{"x_min":0,"x_max":620,"ha":620,"o":"m 379 235 l 379 235 l 431 235 l 431 235 b 439 235 444 242 444 248 l 444 248 b 444 256 439 261 431 261 l 379 261 l 379 261 b 372 261 366 256 366 248 l 366 248 b 366 242 372 235 379 235 z m 274 235 l 274 235 l 326 235 l 326 235 b 334 235 340 242 340 248 l 340 248 b 340 256 334 261 326 261 l 274 261 l 274 261 b 268 261 262 256 262 248 l 262 248 b 262 242 268 235 274 235 z m 170 235 l 170 235 l 222 235 l 222 235 b 230 235 235 242 235 248 l 235 248 b 235 256 230 261 222 261 l 170 261 l 170 261 b 164 261 157 256 157 248 l 157 248 b 157 242 164 235 170 235 z m 92 235 l 92 235 l 118 235 l 118 235 b 126 235 131 242 131 248 l 131 248 b 131 256 126 261 118 261 l 92 261 l 92 261 b 86 261 79 256 79 248 l 79 248 b 79 242 86 235 92 235 z m 379 440 l 379 440 l 431 440 l 431 440 b 439 440 444 445 444 452 l 444 452 b 444 459 439 466 431 466 l 379 466 l 379 466 b 372 466 366 459 366 452 l 366 452 b 366 445 372 440 379 440 z m 274 440 l 274 440 l 326 440 l 326 440 b 334 440 340 445 340 452 l 340 452 b 340 459 334 466 326 466 l 274 466 l 274 466 b 268 466 262 459 262 452 l 262 452 b 262 445 268 440 274 440 z m 170 440 l 170 440 l 222 440 l 222 440 b 230 440 235 445 235 452 l 235 452 b 235 459 230 466 222 466 l 170 466 l 170 466 b 164 466 157 459 157 452 l 157 452 b 157 445 164 440 170 440 z m 92 440 l 92 440 l 118 440 l 118 440 b 126 440 131 445 131 452 l 131 452 b 131 459 126 466 118 466 l 92 466 l 92 466 b 86 466 79 459 79 452 l 79 452 b 79 445 86 440 92 440 z"},"a":{"x_min":0,"x_max":619,"ha":619,"o":"m 250 25 l 250 25 b 234 28 218 32 204 36 b 198 39 190 35 188 29 b 185 22 189 15 195 13 b 212 6 229 3 247 0 b 247 0 248 0 248 0 b 254 0 259 5 261 11 b 262 19 257 25 250 25 z m 335 456 b 336 456 338 454 339 454 b 344 454 349 458 351 463 b 353 469 350 477 343 479 b 326 484 308 488 291 491 b 283 491 278 486 277 478 b 277 472 282 465 288 465 b 305 464 320 460 335 456 z m 55 203 b 62 205 68 211 67 217 l 67 217 b 65 226 65 236 65 245 b 65 252 65 259 65 265 b 67 271 62 278 54 279 b 48 279 41 273 40 267 b 40 260 40 252 40 245 b 40 235 40 224 41 214 b 43 208 48 203 54 203 b 54 203 55 203 55 203 z m 423 401 b 427 401 430 402 432 405 b 437 410 437 418 432 423 b 420 435 406 446 390 456 b 386 459 378 458 374 451 b 370 446 371 439 378 435 b 390 426 403 416 414 405 b 417 402 420 401 423 401 z m 420 91 b 409 79 397 69 384 60 b 379 55 376 48 382 43 b 383 39 388 36 392 36 b 395 36 397 38 398 39 b 414 49 427 60 439 74 b 444 79 444 87 439 92 b 432 97 425 96 420 91 z m 343 38 b 327 32 313 28 297 27 b 289 25 285 19 286 11 b 287 5 292 1 299 1 b 299 1 300 1 300 1 b 318 4 335 8 351 14 b 357 16 362 24 359 30 b 357 36 349 41 343 38 z m 59 303 b 60 303 62 303 62 303 b 68 303 73 306 74 311 b 79 327 86 342 93 355 b 95 362 94 369 88 374 b 81 376 74 374 70 368 b 62 352 55 336 50 319 b 49 313 53 305 59 303 z m 76 170 b 74 177 68 180 62 178 b 54 177 51 169 53 163 b 59 145 67 129 75 114 b 78 110 81 109 86 109 b 88 109 90 109 93 110 b 98 114 100 121 97 128 b 89 140 81 155 76 170 z m 196 450 b 210 456 226 460 242 463 b 248 464 253 470 252 478 b 251 484 245 489 238 488 b 219 486 203 481 186 474 b 180 470 176 464 180 456 b 182 453 186 449 191 449 b 193 449 194 450 196 450 z m 126 90 b 121 95 113 95 108 90 b 103 85 102 77 107 72 b 119 60 133 47 147 38 b 150 35 152 35 155 35 b 158 35 163 36 165 41 b 169 47 168 54 161 58 b 149 67 136 77 126 90 z m 119 395 b 131 407 142 418 155 428 b 160 431 161 439 157 445 b 154 450 146 451 140 448 b 126 437 112 425 100 411 b 97 406 97 399 102 393 b 104 391 107 391 111 391 b 114 391 117 392 119 395 z m 491 87 b 484 87 479 82 479 74 l 479 24 b 479 18 484 11 491 11 b 498 11 504 18 504 24 l 504 74 b 504 82 498 87 491 87 z m 491 188 b 486 188 483 186 480 182 b 475 182 469 179 468 173 b 463 158 456 144 449 130 b 445 123 447 116 452 112 b 455 111 458 111 458 111 b 464 111 468 114 470 117 b 472 123 477 129 479 134 l 479 125 b 479 118 484 112 491 112 b 498 112 504 118 504 125 l 504 175 b 504 183 498 188 491 188 z m 491 390 b 484 390 479 385 479 377 l 479 357 b 475 364 470 374 465 381 b 461 387 453 388 447 385 b 442 381 439 374 444 367 l 444 367 b 452 355 458 339 465 324 b 466 319 471 317 477 317 b 477 317 480 317 482 317 b 482 317 482 317 483 317 b 485 315 488 314 491 314 b 498 314 504 320 504 327 l 504 377 b 504 385 498 390 491 390 z m 491 289 b 484 289 479 284 479 276 l 479 226 b 479 219 484 213 491 213 b 498 213 504 219 504 226 l 504 276 b 504 284 498 289 491 289 z m 491 491 b 484 491 479 486 479 478 l 479 428 b 479 421 484 415 491 415 b 498 415 504 421 504 428 l 504 478 b 504 486 498 491 491 491 z"},"L":{"x_min":0,"x_max":563,"ha":563,"o":"m 170 0 b 176 0 183 5 183 13 b 183 19 176 25 170 25 l 128 25 b 128 26 129 27 129 28 l 129 79 b 129 86 124 91 117 91 b 110 91 104 86 104 79 l 104 28 b 104 24 105 21 108 18 b 107 17 107 15 107 13 b 107 5 112 0 119 0 z m 104 535 b 104 529 110 522 117 522 b 124 522 129 529 129 535 l 129 586 b 129 593 124 599 117 599 b 110 599 104 593 104 586 z m 373 0 b 379 0 386 5 386 13 b 386 19 379 25 373 25 l 322 25 b 315 25 309 19 309 13 b 309 5 315 0 322 0 z m 104 231 b 104 224 110 218 117 218 b 124 218 129 224 129 231 l 129 282 b 129 289 124 294 117 294 b 110 294 104 289 104 282 z m 104 332 b 104 326 110 320 117 320 b 124 320 129 326 129 332 l 129 383 b 129 391 124 396 117 396 b 110 396 104 391 104 383 z m 104 129 b 104 123 110 117 117 117 b 124 117 129 123 129 129 l 129 180 b 129 188 124 193 117 193 b 110 193 104 188 104 180 z m 104 637 b 104 630 110 624 117 624 b 124 624 129 630 129 637 l 129 687 b 129 695 124 700 117 700 b 110 700 104 695 104 687 z m 104 434 b 104 427 110 421 117 421 b 124 421 129 427 129 434 l 129 484 b 129 492 124 497 117 497 b 110 497 104 492 104 484 z m 271 0 b 278 0 284 5 284 13 b 284 19 278 25 271 25 l 221 25 b 213 25 208 19 208 13 b 208 5 213 0 221 0 z m 474 0 b 481 0 487 5 487 13 b 487 19 481 25 474 25 l 424 25 b 416 25 411 19 411 13 b 411 5 416 0 424 0 z"},"3":{"x_min":0,"x_max":610,"ha":610,"o":"m 322 41 b 306 35 291 30 274 27 b 267 26 263 20 264 13 b 265 6 270 2 277 2 b 277 2 278 2 279 2 l 279 2 b 297 5 315 10 332 17 b 338 20 341 27 339 34 b 336 41 328 44 322 41 z m 273 437 b 279 437 285 442 286 449 b 287 456 282 462 275 463 l 275 463 b 271 464 268 464 265 464 l 284 484 b 289 489 289 498 284 503 b 279 508 270 508 265 502 l 229 465 b 224 460 224 452 229 447 b 230 446 230 446 231 446 b 233 442 238 439 243 439 b 252 439 262 439 271 437 b 272 437 272 437 273 437 z m 400 99 b 396 94 392 90 388 86 b 380 78 372 71 364 65 b 358 61 357 53 361 47 b 364 43 368 42 372 42 b 374 42 377 42 380 44 b 389 51 398 59 406 67 b 411 72 415 77 420 82 b 424 87 424 96 418 100 b 413 105 404 104 400 99 z m 226 25 b 209 27 193 30 178 35 b 171 37 163 33 161 26 b 159 19 163 12 170 10 b 187 4 205 1 224 -1 b 224 -1 224 -1 225 -1 b 231 -1 237 5 238 11 b 238 19 233 25 226 25 z m 452 298 b 445 297 441 290 443 283 b 447 267 449 250 449 234 b 449 227 455 221 462 221 b 462 221 462 221 462 221 b 469 221 475 227 475 234 b 475 253 472 271 468 289 b 466 296 459 300 452 298 z m 459 195 b 452 197 445 192 443 185 b 440 170 434 154 427 139 b 424 133 426 125 433 122 b 434 121 436 121 438 121 b 443 121 448 123 450 128 b 458 144 465 162 469 180 b 470 187 466 194 459 195 z m 133 55 b 119 63 106 73 95 85 b 90 90 81 90 76 85 b 71 80 71 72 76 67 l 76 67 b 90 54 104 42 119 33 b 122 31 124 31 126 31 b 131 31 135 33 137 37 b 141 43 139 51 133 55 z m 311 442 b 309 435 312 428 318 425 b 333 419 348 411 361 402 b 364 400 366 399 369 399 b 373 399 377 401 380 405 b 384 411 382 419 377 423 b 361 434 345 442 328 449 b 321 452 314 449 311 442 z m 399 387 b 394 382 393 374 398 369 b 409 356 418 343 425 328 b 428 324 432 321 437 321 b 439 321 441 322 443 323 b 449 326 452 334 449 340 b 440 357 430 372 417 386 b 413 391 404 392 399 387 z m 311 518 b 315 518 318 519 320 522 l 357 559 b 362 564 362 572 357 577 b 351 582 343 582 338 577 l 302 540 b 297 535 297 526 302 521 b 305 519 308 518 311 518 z m 375 596 b 377 594 381 592 384 592 b 387 592 391 594 393 596 l 430 634 b 435 639 434 647 429 652 b 424 657 416 657 411 652 l 375 614 b 370 609 370 601 375 596 z m 331 673 l 383 673 b 391 673 396 679 396 686 b 396 693 391 699 383 699 l 331 699 b 324 699 318 693 318 686 b 318 679 324 673 331 673 z m 435 673 l 446 673 b 446 672 447 672 447 671 b 450 668 453 667 457 667 b 460 667 463 668 466 671 l 470 676 b 472 677 473 679 473 680 b 474 682 475 684 475 686 b 475 693 469 699 462 699 l 435 699 b 428 699 422 693 422 686 b 422 679 428 673 435 673 z m 123 673 l 175 673 b 182 673 188 679 188 686 b 188 693 182 699 175 699 l 123 699 b 116 699 110 693 110 686 b 110 679 116 673 123 673 z m 227 673 l 279 673 b 286 673 292 679 292 686 b 292 693 286 699 279 699 l 227 699 b 220 699 214 693 214 686 b 214 679 220 673 227 673 z"},";":{"x_min":0,"x_max":240,"ha":240,"o":"m 62 -27 b 62 -30 65 -33 68 -33 l 71 -33 b 105 -24 109 6 109 22 l 109 26 l 109 29 l 109 32 b 108 32 108 33 108 34 b 105 44 95 52 85 52 b 71 52 59 40 59 26 b 59 13 71 2 85 2 l 90 2 b 87 -6 80 -14 67 -18 b 63 -20 60 -23 62 -27 z m 109 392 b 109 406 98 417 85 417 b 71 417 59 406 59 392 b 59 379 71 367 85 367 b 98 367 109 379 109 392 z"},"J":{"x_min":0,"x_max":594,"ha":594,"o":"m 251 0 l 251 0 b 251 0 251 0 251 0 l 251 0 b 258 0 264 5 264 11 l 264 11 b 264 19 259 25 253 25 l 253 25 b 236 25 220 28 204 33 l 204 33 b 198 34 192 30 189 24 l 189 24 b 188 18 192 10 198 9 l 198 9 b 214 4 232 0 251 0 z m 289 14 l 289 14 b 291 8 296 4 302 4 l 302 4 b 303 4 303 4 304 4 l 304 4 b 322 6 339 11 355 19 l 355 19 b 362 22 364 29 362 36 l 362 36 b 359 42 351 46 345 42 l 345 42 b 331 36 316 32 299 28 l 299 28 b 293 27 288 20 289 14 z m 149 29 l 149 29 b 151 28 152 27 155 27 l 155 27 b 159 27 164 29 166 33 l 166 33 b 169 39 168 47 161 51 l 161 51 b 147 58 133 68 122 79 l 122 79 b 117 84 109 82 104 77 l 104 77 b 99 72 100 65 105 60 l 105 60 b 118 48 133 37 149 29 z m 384 48 l 384 48 b 386 46 389 43 395 43 l 395 43 b 397 43 400 44 402 46 l 402 46 b 416 57 429 70 440 82 l 440 82 b 445 89 444 96 439 100 l 439 100 b 434 105 425 104 421 99 l 421 99 b 411 87 400 76 387 66 l 387 66 b 381 62 379 55 384 48 z m 70 100 l 70 100 b 72 96 76 94 80 94 l 80 94 b 83 94 85 95 88 96 l 88 96 b 93 100 94 109 90 114 l 90 114 l 90 114 b 81 127 74 142 67 156 l 67 156 b 65 162 58 166 51 164 l 51 164 b 45 161 42 153 45 147 l 45 147 b 51 131 60 114 70 100 z m 453 122 l 453 122 b 454 120 457 120 459 120 l 459 120 b 463 120 468 123 469 128 l 469 128 b 478 143 485 160 488 178 l 488 178 b 490 185 486 191 479 193 l 479 193 b 472 195 466 190 464 184 l 464 184 b 460 167 454 153 448 139 l 448 139 b 444 133 447 126 453 122 z m 482 218 l 482 218 b 482 218 482 218 482 218 l 482 218 b 490 218 495 224 495 231 l 495 231 b 495 232 495 232 495 233 l 495 282 l 495 282 b 495 289 490 294 482 294 l 482 294 b 476 294 469 289 469 282 l 469 233 l 469 233 b 469 232 469 232 469 231 l 469 231 b 469 224 476 218 482 218 z m 469 332 l 469 332 b 469 326 476 320 482 320 l 482 320 b 490 320 495 326 495 332 l 495 383 l 495 383 b 495 391 490 396 482 396 l 482 396 b 476 396 469 391 469 383 z m 469 434 l 469 434 b 469 427 476 421 482 421 l 482 421 b 490 421 495 427 495 434 l 495 484 l 495 484 b 495 492 490 497 482 497 l 482 497 b 476 497 469 492 469 484 z m 469 535 l 469 535 b 469 529 476 522 482 522 l 482 522 b 490 522 495 529 495 535 l 495 586 l 495 586 b 495 593 490 599 482 599 l 482 599 b 476 599 469 593 469 586 z m 469 637 l 469 637 b 469 630 476 624 482 624 l 482 624 b 490 624 495 630 495 637 l 495 687 l 495 687 b 495 695 490 700 482 700 l 482 700 b 476 700 469 695 469 687 z"},"V":{"x_min":0,"x_max":750,"ha":750,"o":"m 236 261 b 237 257 242 253 247 253 b 248 253 251 254 252 254 b 259 257 261 265 259 271 l 240 318 b 236 324 229 328 223 324 b 215 322 213 314 215 308 z m 495 348 b 498 347 499 347 500 347 b 505 347 510 349 512 354 l 532 401 b 534 408 532 415 526 418 b 518 420 512 418 508 411 l 489 365 b 486 358 489 351 495 348 z m 314 75 b 315 70 321 67 326 67 b 327 67 329 67 331 68 b 337 71 340 78 337 85 l 318 132 b 315 138 308 141 302 138 b 295 135 291 128 294 122 z m 378 68 b 379 67 381 67 383 67 b 388 67 393 70 394 75 l 414 122 b 417 128 413 135 407 138 b 400 141 393 138 390 132 l 371 85 b 369 78 371 71 378 68 z m 157 448 b 159 443 164 441 169 441 b 170 441 171 441 174 442 b 180 444 183 452 180 458 l 161 505 b 157 511 151 514 143 511 b 137 509 134 501 137 495 z m 197 354 b 198 349 203 347 208 347 b 209 347 210 347 213 348 b 219 351 222 358 219 365 l 200 411 b 197 418 190 420 183 418 b 176 415 174 408 176 401 z m 613 628 b 615 627 617 627 618 627 b 623 627 628 630 631 634 l 650 681 b 652 687 650 695 643 697 b 637 700 629 697 627 691 l 607 644 b 604 638 607 630 613 628 z m 422 161 b 427 161 432 163 433 168 l 453 215 b 456 222 453 229 446 232 b 440 234 432 230 429 224 l 410 177 b 408 171 410 165 417 161 z m 456 254 b 457 254 460 253 461 253 b 466 253 471 257 472 261 l 493 308 b 495 314 493 322 485 324 b 479 328 472 324 469 318 l 450 271 b 447 265 450 257 456 254 z m 275 168 b 276 163 281 161 286 161 l 291 161 b 298 165 300 171 298 177 l 279 224 b 276 230 269 234 262 232 b 256 229 252 222 255 215 z m 534 442 b 537 441 538 441 540 441 b 545 441 550 443 551 448 l 571 495 b 574 501 571 509 565 511 b 559 514 551 511 548 505 l 528 458 b 526 452 528 444 534 442 z m 118 542 b 119 537 124 534 129 534 l 134 534 b 141 537 143 544 141 551 l 121 597 b 118 604 110 608 104 605 b 98 601 95 595 98 587 z m 79 634 b 80 630 85 627 90 627 b 91 627 93 627 95 628 b 102 630 104 638 102 644 l 81 691 b 79 697 71 700 65 697 b 59 695 56 687 59 681 z m 579 534 b 584 534 589 537 590 542 l 610 589 b 613 595 610 601 604 605 b 598 608 590 604 588 597 l 567 551 b 565 544 567 537 574 534 z m 359 0 b 363 2 366 6 367 10 l 375 28 b 378 34 374 42 367 44 b 363 46 357 45 354 42 b 350 45 345 46 341 44 b 334 42 331 34 333 28 l 342 8 b 342 7 342 7 343 6 b 343 5 344 5 345 4 b 345 3 345 3 346 3 b 347 2 348 1 350 0 z"},"\"":{"x_min":0,"x_max":410,"ha":410,"o":"m 115 693 b 115 696 112 699 109 699 l 106 699 b 72 690 68 660 68 644 l 68 643 l 68 640 l 68 634 b 68 633 68 632 69 632 b 72 621 81 614 92 614 b 106 614 118 626 118 640 b 118 653 106 664 92 664 b 90 664 88 664 86 663 b 90 672 96 680 110 684 b 114 686 117 689 115 693 z m 189 693 b 189 696 186 699 183 699 l 180 699 b 146 690 142 660 142 644 l 142 640 l 142 636 l 142 634 b 142 633 142 632 143 632 b 146 621 155 614 166 614 b 180 614 192 626 192 640 b 192 653 180 664 166 664 b 164 664 162 664 160 663 b 164 672 170 680 184 684 b 188 686 191 689 189 693 z"},"7":{"x_min":0,"x_max":587,"ha":587,"o":"m 405 628 b 408 627 409 627 410 627 b 415 627 420 629 422 634 l 442 681 l 442 682 b 443 683 443 684 443 686 b 443 687 442 689 442 690 b 441 691 441 692 441 692 b 440 693 440 694 439 694 l 439 695 b 436 697 433 699 430 699 l 380 699 b 372 699 367 692 367 686 b 367 679 372 673 380 673 l 411 673 l 399 644 b 396 638 399 631 405 628 z m 228 673 b 235 673 241 679 241 686 b 241 692 235 699 228 699 l 178 699 b 170 699 165 692 165 686 b 165 679 170 673 178 673 z m 329 673 b 336 673 342 679 342 686 b 342 692 336 699 329 699 l 279 699 b 271 699 266 692 266 686 b 266 679 271 673 279 673 z m 127 673 b 133 673 140 679 140 686 b 140 692 133 699 127 699 l 77 699 b 69 699 64 692 64 686 b 64 679 69 673 77 673 z m 248 255 b 250 254 252 254 254 254 b 259 254 264 256 265 262 l 285 308 b 288 315 285 322 278 325 b 271 327 264 325 261 318 l 242 272 b 240 265 242 258 248 255 z m 293 347 b 298 347 303 350 304 355 l 324 402 b 327 408 324 416 318 418 b 310 421 304 417 300 411 l 281 365 b 279 358 281 351 288 347 z m 170 68 b 171 68 174 67 175 67 b 180 67 185 71 187 76 l 207 121 b 209 129 206 135 199 139 b 193 142 185 138 183 131 l 164 85 b 161 78 164 71 170 68 z m 209 162 b 211 160 213 160 214 160 b 219 160 224 163 226 168 l 246 215 b 248 221 245 229 238 231 b 232 234 224 231 222 225 l 203 178 b 200 172 203 164 209 162 z m 327 441 b 329 441 331 440 332 440 b 337 440 342 444 343 447 l 363 494 b 366 500 363 508 357 510 b 350 514 343 510 339 504 l 320 457 b 318 451 320 444 327 441 z m 366 534 b 369 533 370 533 371 533 b 376 533 381 536 382 541 l 403 588 b 405 594 403 601 396 604 b 390 606 382 604 380 598 l 360 551 b 357 545 360 537 366 534 z m 142 1 b 144 0 145 0 146 0 b 151 0 156 3 159 8 l 168 29 b 170 35 166 43 160 45 b 154 48 146 45 144 38 l 135 18 b 132 11 136 4 142 1 z"},"S":{"x_min":0,"x_max":667,"ha":667,"o":"m 327 0 l 327 0 b 327 0 328 0 328 0 l 328 0 b 344 0 359 1 374 3 l 374 3 b 380 4 385 10 384 16 l 384 16 b 383 22 377 27 371 26 l 371 26 l 371 26 b 357 24 343 23 328 23 l 328 23 b 328 23 327 23 327 23 l 327 23 b 321 23 315 18 315 12 l 315 12 b 315 6 320 0 327 0 z m 280 4 l 280 4 b 280 4 281 4 281 4 l 281 4 b 287 4 292 8 293 14 l 293 14 b 294 20 289 26 283 27 l 283 27 b 268 29 254 32 240 37 l 240 37 b 234 38 228 35 226 29 l 226 29 b 224 23 228 16 234 15 l 234 15 b 248 10 264 7 280 4 z m 406 21 l 406 21 b 408 16 412 13 417 13 l 417 13 b 418 13 419 13 420 13 l 420 13 b 436 17 451 23 465 30 l 465 30 b 470 32 473 39 470 45 l 470 45 b 468 50 461 53 455 50 l 455 50 l 455 50 b 442 44 428 39 414 35 l 414 35 b 408 33 404 27 406 21 z m 189 30 l 189 30 b 191 30 192 29 194 29 l 194 29 b 198 29 202 32 204 36 l 204 36 b 207 42 204 49 198 51 l 198 51 b 184 57 171 64 158 71 l 158 71 b 153 74 146 72 143 66 l 143 66 b 140 61 142 54 147 51 l 147 51 b 160 43 175 37 189 30 z m 490 56 l 490 56 b 492 53 496 51 499 51 l 499 51 b 502 51 504 52 506 54 l 506 54 b 519 63 531 74 542 86 l 542 86 b 546 90 546 98 541 102 l 541 102 b 536 106 529 106 525 101 l 525 101 b 516 90 505 81 493 72 l 493 72 b 488 68 486 61 490 56 z m 107 75 l 107 75 b 109 74 111 73 113 73 l 113 73 b 117 73 121 75 123 78 l 123 78 b 127 83 125 90 120 94 l 120 94 l 120 94 b 107 102 96 111 85 119 l 85 119 b 80 123 73 123 69 118 l 69 118 b 65 113 66 106 71 102 l 71 102 b 82 93 94 84 107 75 z m 554 121 l 554 121 b 555 120 557 120 559 120 l 559 120 b 563 120 567 122 569 126 l 569 126 b 576 141 581 157 583 173 l 583 173 b 584 179 579 185 573 186 l 573 186 b 567 187 561 182 560 176 l 560 176 b 559 162 555 149 548 136 l 548 136 b 546 130 548 123 554 121 z m 558 217 l 558 217 b 559 212 564 209 569 209 l 569 209 b 570 209 571 209 572 209 l 572 209 b 578 210 582 216 580 223 l 580 223 b 576 239 570 254 560 268 l 560 268 b 557 273 550 274 544 271 l 544 271 b 539 267 538 260 541 255 l 541 255 b 549 243 555 231 558 217 z m 513 286 l 513 286 b 515 284 517 283 520 283 l 520 283 b 523 283 526 285 529 287 l 529 287 b 533 292 532 299 527 303 l 527 303 b 515 313 502 322 487 330 l 487 330 b 482 333 475 331 472 325 l 472 325 b 469 320 471 313 476 310 l 476 310 l 476 310 b 490 302 502 294 513 286 z m 436 328 l 436 328 b 437 327 439 327 440 327 l 440 327 b 445 327 449 330 451 334 l 451 334 b 453 340 450 347 444 349 l 444 349 b 430 355 415 359 400 364 l 400 364 b 394 366 387 362 386 356 l 386 356 b 384 350 388 344 394 342 l 394 342 b 409 338 423 333 436 328 z m 350 353 l 350 353 b 351 353 352 352 352 352 l 352 352 b 358 352 362 356 364 362 l 364 362 b 365 368 361 374 355 375 l 355 375 b 347 377 339 378 330 380 l 328 380 l 328 380 b 322 382 316 383 310 384 l 310 384 b 304 385 298 381 296 375 l 296 375 b 295 369 299 363 305 362 l 305 362 b 311 360 318 359 324 358 l 326 358 l 326 358 b 334 356 342 354 350 353 z m 260 373 l 260 373 b 261 372 262 372 263 372 l 263 372 b 268 372 273 376 274 381 l 274 381 b 276 387 272 393 266 395 l 266 395 b 251 399 237 404 224 409 l 224 409 b 218 411 212 408 209 402 l 209 402 b 207 397 210 390 216 388 l 216 388 b 230 382 245 377 260 373 z m 173 408 l 173 408 b 175 407 177 406 179 406 l 179 406 b 183 406 186 408 189 412 l 189 412 b 192 418 190 425 184 428 l 184 428 b 171 435 159 444 149 453 l 149 453 b 145 457 138 457 133 452 l 133 452 b 129 447 129 440 134 436 l 134 436 b 145 425 158 416 173 408 z m 103 475 l 103 475 b 106 471 110 469 114 469 l 114 469 b 115 469 117 469 119 470 l 119 470 b 125 473 127 480 124 485 l 124 485 b 117 497 114 510 112 525 l 112 525 b 112 531 106 535 100 535 l 100 535 b 94 534 89 529 90 523 l 90 523 l 90 523 b 91 505 96 489 103 475 z m 102 558 l 102 558 b 103 557 105 557 106 557 l 106 557 b 111 557 115 561 117 566 l 117 566 b 120 579 127 591 135 603 l 135 603 b 139 608 137 615 132 619 l 132 619 b 127 623 120 621 116 616 l 116 616 b 107 602 99 588 95 572 l 95 572 b 93 566 96 560 102 558 z m 531 609 l 531 609 b 533 608 535 607 537 607 l 537 607 b 541 607 544 609 547 613 l 547 613 b 550 618 549 625 543 628 l 543 628 b 531 636 518 645 504 653 l 504 653 b 499 656 492 655 489 649 l 489 649 b 485 644 487 637 493 634 l 493 634 b 506 626 518 617 531 609 z m 148 636 l 148 636 b 150 633 153 631 157 631 l 157 631 b 159 631 162 632 164 634 l 164 634 b 175 643 187 651 200 658 l 200 658 b 206 661 208 668 205 673 l 205 673 b 202 679 195 681 189 678 l 189 678 b 175 670 161 662 149 652 l 149 652 b 145 648 144 640 148 636 z m 453 655 l 453 655 b 455 654 457 654 459 654 l 459 654 b 463 654 467 656 469 660 l 469 660 b 472 666 469 673 464 676 l 464 676 l 464 676 b 450 683 435 689 420 694 l 420 694 b 414 696 408 693 406 687 l 406 687 b 404 681 407 675 413 673 l 413 673 b 427 668 440 662 453 655 z m 226 682 l 226 682 b 228 677 232 674 237 674 l 237 674 b 238 674 239 674 240 675 l 240 675 b 254 679 268 682 283 684 l 283 684 b 289 685 294 691 293 697 l 293 697 b 292 704 286 708 280 707 l 280 707 b 264 705 248 701 233 696 l 233 696 b 227 694 224 688 226 682 z m 370 684 l 370 684 b 371 684 372 683 372 683 l 372 683 b 378 683 383 687 384 693 l 384 693 b 385 699 381 705 374 706 l 374 706 l 374 706 b 359 709 343 710 327 710 l 327 710 b 321 710 315 705 315 699 l 315 699 b 315 693 321 688 327 687 l 327 687 b 342 687 356 686 370 684 z"},"}":{"x_min":0,"x_max":480,"ha":480,"o":"m 138 670 b 141 678 137 686 129 689 b 96 700 70 702 69 702 b 61 703 54 697 54 689 b 53 681 59 674 67 673 b 67 673 72 673 82 671 b 92 669 105 666 120 661 b 121 661 123 660 125 660 b 131 660 136 664 138 670 z m 230 148 b 238 149 244 156 243 164 b 242 169 242 174 242 179 b 242 191 244 203 249 214 b 252 221 249 229 241 233 b 234 236 225 232 222 225 b 216 210 213 194 213 179 b 213 173 213 167 214 161 b 215 153 221 148 229 148 z m 254 497 b 256 508 257 518 257 528 b 257 539 256 549 254 559 b 253 567 245 572 237 571 b 229 569 224 562 225 554 b 227 546 228 537 228 528 b 228 519 227 510 226 501 b 224 493 230 486 238 485 b 239 484 239 484 240 484 b 247 484 253 490 254 497 z m 226 598 b 233 602 234 611 230 618 b 217 636 201 651 185 662 b 178 666 169 664 165 658 b 160 651 162 642 169 638 b 183 628 196 616 206 601 b 209 597 213 595 218 595 b 221 595 224 596 226 598 z m 241 372 b 249 375 252 384 249 391 b 244 402 242 414 242 426 b 242 431 242 436 243 441 b 244 448 238 456 230 457 b 222 457 215 452 214 444 b 214 438 213 432 213 426 b 213 410 216 395 222 380 b 225 374 230 371 236 371 b 237 371 239 371 241 372 z m 69 -98 b 70 -98 96 -95 129 -84 b 137 -81 141 -73 138 -66 b 136 -58 127 -54 120 -57 b 105 -62 92 -65 82 -66 l 67 -69 b 59 -69 53 -76 54 -84 b 54 -92 61 -98 68 -98 z m 254 46 b 256 55 257 66 257 77 b 257 87 256 97 254 108 b 253 116 246 121 238 120 b 230 119 225 112 226 104 b 227 94 228 85 228 77 b 228 68 227 59 225 51 b 224 43 229 35 237 34 l 240 34 b 247 34 253 39 254 46 z m 281 251 b 293 259 309 267 329 273 b 337 275 341 283 339 291 b 337 298 329 303 321 300 b 298 294 280 285 264 275 b 258 270 256 261 261 254 b 264 250 268 248 273 248 b 275 248 278 249 281 251 z m 339 314 b 341 322 337 330 329 332 b 309 338 293 346 281 354 b 274 359 265 357 261 350 b 256 344 258 335 265 330 b 280 320 298 311 321 304 l 325 304 b 331 304 337 308 339 314 z m 185 -57 b 201 -46 217 -31 230 -13 b 234 -7 233 2 226 7 b 220 12 211 10 206 3 b 196 -11 183 -23 169 -33 b 162 -37 160 -46 165 -53 b 167 -57 172 -59 177 -59 b 179 -59 182 -59 185 -57 z m 384 284 b 393 286 402 287 412 287 b 420 288 426 294 425 302 l 425 303 l 425 304 b 425 310 420 317 412 317 b 402 318 393 319 384 320 b 376 322 368 316 367 308 b 367 306 367 304 368 302 b 367 300 367 299 367 297 b 368 289 375 284 382 284 z"},"Z":{"x_min":0,"x_max":667,"ha":667,"o":"m 556 656 b 558 654 561 653 563 653 b 567 653 571 656 574 658 l 589 678 b 590 680 591 682 591 684 l 591 686 l 591 688 b 590 695 584 699 579 699 l 528 699 b 520 699 515 694 515 686 b 515 680 520 673 528 673 l 553 673 b 549 668 551 661 556 656 z m 174 673 b 180 673 186 680 186 686 b 186 694 180 699 174 699 l 123 699 b 115 699 110 694 110 686 b 110 680 115 673 123 673 z m 477 673 b 484 673 490 680 490 686 b 490 694 484 699 477 699 l 427 699 b 419 699 414 694 414 686 b 414 680 419 673 427 673 z m 376 673 b 382 673 389 680 389 686 b 389 694 382 699 376 699 l 325 699 b 318 699 313 694 313 686 b 313 680 318 673 325 673 z m 318 329 b 319 328 322 327 324 327 b 329 327 333 328 336 332 l 365 372 b 368 378 367 386 362 390 b 357 395 348 394 344 387 l 314 347 b 310 341 312 333 318 329 z m 437 492 b 439 491 442 490 444 490 b 448 490 452 492 455 495 l 485 537 b 489 542 487 549 481 554 b 476 558 468 557 463 551 l 434 510 b 430 505 432 496 437 492 z m 275 673 b 281 673 287 680 287 686 b 287 694 281 699 275 699 l 224 699 b 217 699 212 694 212 686 b 212 680 217 673 224 673 z m 257 247 b 260 246 262 244 265 244 b 268 244 272 247 275 249 l 305 291 b 309 296 308 305 303 309 b 296 313 289 311 285 306 l 255 265 b 251 259 252 252 257 247 z m 198 166 b 200 163 203 163 205 163 b 209 163 213 165 215 168 l 246 209 b 249 215 248 223 243 227 b 237 230 229 229 225 224 l 195 184 b 191 177 193 170 198 166 z m 138 84 b 141 82 143 81 146 81 b 149 81 153 84 156 86 l 186 128 b 190 133 189 141 182 146 b 177 149 170 148 165 142 l 136 101 b 132 96 132 87 138 84 z m 377 410 b 380 409 382 409 385 409 b 389 409 393 410 395 414 l 424 454 b 429 459 428 468 422 472 b 417 476 408 475 404 470 l 375 428 b 370 423 371 415 377 410 z m 174 0 b 180 0 186 5 186 13 b 186 19 180 25 174 25 l 123 25 b 115 25 110 19 110 13 b 110 5 115 0 123 0 z m 579 0 b 585 0 591 5 591 13 b 591 19 585 25 579 25 l 528 25 b 520 25 515 19 515 13 b 515 5 520 0 528 0 z m 477 0 b 484 0 490 5 490 13 b 490 19 484 25 477 25 l 427 25 b 419 25 414 19 414 13 b 414 5 419 0 427 0 z m 376 0 b 382 0 389 5 389 13 b 389 19 382 25 376 25 l 325 25 b 318 25 313 19 313 13 b 313 5 318 0 325 0 z m 496 575 b 499 572 501 572 504 572 b 508 572 512 573 514 577 l 544 618 b 548 624 547 632 542 635 b 536 639 528 638 524 633 l 494 592 b 490 586 491 578 496 575 z m 79 3 b 81 0 84 0 86 0 b 90 0 94 1 96 5 l 125 46 b 130 51 129 59 123 63 b 118 67 109 66 105 61 l 76 20 b 71 14 72 6 79 3 z m 275 0 b 281 0 287 5 287 13 b 287 19 281 25 275 25 l 224 25 b 217 25 212 19 212 13 b 212 5 217 0 224 0 z"},"x":{"x_min":0,"x_max":570,"ha":570,"o":"m 259 255 b 261 253 264 253 267 253 b 270 253 275 255 277 259 l 308 300 b 312 306 311 315 305 318 b 299 323 291 321 286 316 l 258 276 l 230 316 b 225 321 217 323 212 318 b 205 315 204 306 208 300 l 239 259 b 242 255 246 253 250 253 b 252 253 255 253 258 255 z m 136 86 b 138 85 140 83 143 83 b 148 83 152 86 155 89 l 185 132 b 188 137 187 145 182 150 b 176 154 167 153 164 147 l 132 104 b 128 99 129 91 136 86 z m 300 174 b 303 170 307 168 311 168 b 314 168 317 170 319 171 b 326 175 326 183 322 189 l 291 231 b 286 238 279 239 273 233 b 267 230 265 222 270 215 z m 362 89 b 364 86 368 83 373 83 b 376 83 379 85 380 86 b 387 91 388 99 384 104 l 353 147 b 349 153 340 154 335 150 b 329 145 328 137 332 132 z m 197 171 b 200 170 203 168 205 168 b 209 168 214 170 216 174 l 246 215 b 251 222 250 230 243 233 b 238 239 229 238 225 231 l 195 189 b 190 183 191 175 197 171 z m 117 427 b 119 423 123 421 127 421 b 129 421 132 421 135 424 b 140 428 141 436 138 442 l 106 484 b 102 489 94 491 88 487 b 82 483 81 475 85 468 z m 320 339 b 323 338 326 337 328 337 b 332 337 336 339 338 342 l 370 385 b 373 391 373 398 367 402 b 361 407 353 406 349 400 l 317 358 b 314 353 315 344 320 339 z m 73 3 b 76 0 79 0 81 0 b 85 0 89 1 92 5 l 123 47 b 127 53 126 61 120 65 b 114 69 106 68 102 62 l 71 21 b 67 14 68 6 73 3 z m 425 5 b 427 1 431 0 435 0 b 438 0 440 0 443 3 b 448 6 449 14 446 21 l 414 62 b 411 68 402 69 396 65 b 391 61 390 53 393 47 z m 382 424 b 384 421 387 421 390 421 b 393 421 397 423 400 427 l 431 468 b 435 475 434 483 429 487 b 422 491 414 489 411 484 l 379 442 b 375 436 376 428 382 424 z m 178 342 b 181 339 185 337 188 337 b 191 337 194 338 196 339 b 202 344 203 353 199 358 l 167 400 b 164 406 156 407 149 402 b 144 398 143 391 147 385 z"},")":{"x_min":0,"x_max":430,"ha":430,"o":"m 255 497 b 262 499 267 507 265 515 b 259 535 252 554 245 571 b 242 579 233 582 226 579 b 218 576 215 567 218 560 b 225 544 231 526 237 507 b 238 501 244 496 251 496 b 252 496 253 497 255 497 z m 136 -89 b 144 -86 148 -78 145 -70 b 142 -63 133 -59 126 -62 b 110 -68 94 -71 75 -71 b 67 -71 60 -78 60 -86 b 60 -94 67 -100 75 -100 b 97 -100 118 -97 136 -89 z m 281 164 b 284 183 286 202 287 222 b 288 230 282 237 274 238 b 266 238 259 232 258 224 b 257 205 255 186 252 168 b 251 160 257 153 265 152 b 265 151 266 151 267 151 b 274 151 280 157 281 164 z m 212 604 b 218 609 220 618 215 624 b 202 642 188 657 171 669 b 165 674 156 672 151 666 b 147 659 148 650 154 645 b 168 636 180 623 191 608 b 194 604 199 602 203 602 b 206 602 209 602 212 604 z m 290 281 l 290 300 b 290 313 290 327 289 340 b 289 348 282 354 274 354 b 266 353 260 347 260 339 b 261 326 261 313 261 300 l 261 282 b 261 274 267 267 275 267 b 283 267 290 273 290 281 z m 253 48 b 260 66 265 85 270 106 b 272 113 267 121 259 123 b 252 125 244 120 242 112 b 237 93 232 75 226 58 b 223 51 227 43 234 40 b 236 39 238 39 239 39 b 245 39 251 43 253 48 z m 189 -55 b 204 -41 216 -25 227 -6 b 231 1 229 9 222 14 b 215 18 207 15 202 8 b 193 -8 182 -22 169 -34 b 164 -39 163 -49 169 -54 b 172 -57 176 -59 179 -59 b 183 -59 187 -58 189 -55 z m 272 383 b 280 383 286 391 285 398 b 283 419 281 438 278 457 b 276 465 269 470 261 469 b 253 467 248 460 249 452 b 252 434 255 415 257 396 b 257 388 264 383 271 383 z m 125 678 b 127 686 122 693 114 695 b 102 698 88 700 75 700 b 67 700 60 693 60 685 b 60 677 67 671 75 671 b 86 671 97 669 107 667 l 111 667 b 117 667 123 671 125 678 z"},"&":{"x_min":0,"x_max":696,"ha":696,"o":"m 121 374 b 124 370 128 369 131 369 b 134 369 138 370 139 373 b 152 383 164 393 178 401 b 180 401 182 403 183 405 b 187 405 190 406 192 410 b 196 415 195 424 190 427 b 177 436 166 448 157 460 b 153 465 145 467 139 463 b 134 459 131 451 136 445 b 143 435 150 426 159 418 b 145 410 133 401 123 392 b 117 387 117 379 121 374 z m 471 242 b 473 236 478 231 484 231 l 485 231 b 493 232 498 238 497 245 b 495 257 494 270 490 283 b 505 285 519 292 531 302 b 536 307 537 314 532 320 b 528 326 521 326 514 322 b 504 313 490 308 475 307 b 474 307 473 307 472 306 l 470 306 b 464 303 460 295 462 289 b 467 274 470 259 471 242 z m 74 287 b 79 287 85 289 87 294 b 92 309 100 323 109 337 b 112 342 111 350 105 355 b 100 359 91 356 87 351 b 77 336 69 321 63 303 b 60 297 64 289 71 287 z m 187 664 b 190 661 194 658 199 658 b 200 658 202 658 204 659 l 205 659 b 218 667 233 672 248 673 b 256 675 260 681 258 689 b 258 695 252 700 244 699 b 225 696 209 690 192 682 b 186 678 183 671 187 664 z m 253 151 b 254 146 260 142 266 142 l 270 142 b 276 145 280 152 277 159 b 277 159 277 161 276 165 b 275 170 275 176 275 185 b 275 190 275 197 276 203 b 277 209 272 217 266 217 b 258 218 252 214 251 207 b 249 199 249 191 249 185 b 249 165 253 152 253 151 z m 465 133 b 466 132 467 132 470 132 b 475 132 479 134 481 139 b 488 156 493 174 495 191 b 497 198 492 204 485 205 b 478 207 471 202 470 195 b 467 179 464 164 457 150 b 455 143 459 136 465 133 z m 50 198 b 52 191 57 186 63 186 l 64 186 b 72 188 77 194 76 200 b 74 209 74 217 74 224 b 74 233 74 241 76 249 b 76 255 72 261 64 262 b 58 264 52 259 50 251 b 49 242 49 233 49 224 b 49 216 49 207 50 198 z m 396 587 b 399 582 403 580 408 580 b 410 580 412 580 413 581 b 419 583 423 590 421 596 b 414 614 404 630 393 644 b 388 649 380 649 375 645 b 369 640 369 633 374 628 b 383 615 391 602 396 587 z m 88 98 b 91 95 95 93 98 93 b 101 93 104 94 106 95 b 111 99 112 107 109 113 b 100 126 92 139 87 155 b 85 161 77 165 71 162 b 64 160 60 152 63 146 b 69 129 78 113 88 98 z m 276 241 b 279 238 282 237 285 237 b 289 237 292 238 295 242 b 303 251 314 260 332 268 b 338 270 341 278 338 284 b 336 290 328 293 322 290 b 301 282 286 271 276 259 b 271 254 271 245 276 241 z m 126 586 b 128 585 129 585 131 585 b 136 585 140 587 143 592 b 149 606 157 620 168 632 b 172 637 172 644 167 649 b 162 654 154 653 149 648 b 136 635 126 619 120 602 b 116 596 120 588 126 586 z m 167 27 b 169 25 171 25 173 25 b 177 25 182 28 185 32 b 187 38 185 46 180 49 b 166 57 152 66 140 76 b 135 81 126 81 123 76 b 117 71 117 62 124 58 b 136 46 152 36 167 27 z m 308 15 b 310 10 315 5 320 5 b 322 5 323 5 323 6 b 341 10 358 16 374 24 b 380 27 383 34 380 41 b 376 47 369 49 362 47 b 348 39 333 34 318 30 b 311 29 306 23 308 15 z m 271 0 b 277 0 282 6 284 13 b 284 20 277 25 271 25 b 254 25 238 28 224 32 b 216 34 210 29 208 23 b 206 16 210 9 216 8 b 234 3 252 0 270 0 z m 400 55 b 403 52 407 51 410 51 b 413 51 417 52 419 53 b 432 65 445 79 455 93 b 460 99 459 107 452 110 b 447 114 438 113 435 108 b 426 95 414 84 403 72 b 396 68 396 61 400 55 z m 112 495 b 114 489 119 486 125 486 l 128 486 b 135 488 139 495 136 501 b 134 514 131 526 131 539 b 131 541 131 544 133 548 b 133 554 128 561 120 561 b 114 562 107 555 107 549 b 106 545 106 543 106 539 b 106 524 109 509 112 495 z m 362 290 b 363 284 369 279 375 279 l 377 279 b 391 282 407 283 424 283 l 426 283 b 432 283 438 288 438 295 b 438 302 433 308 426 308 l 424 308 b 405 308 389 307 374 304 b 366 303 361 297 362 290 z m 338 657 b 339 656 342 656 344 656 b 348 656 352 657 355 662 b 358 667 356 676 351 678 b 334 687 318 695 299 697 b 292 699 286 695 285 687 b 284 681 287 675 294 673 b 310 670 324 664 338 657 z m 546 344 b 552 344 558 347 559 354 l 559 369 b 559 379 558 391 555 403 b 554 410 546 413 540 412 b 533 411 528 405 531 397 b 532 387 533 377 533 369 l 533 358 b 532 350 537 344 544 344 z m 405 539 b 405 531 412 526 418 526 b 426 526 431 531 431 539 l 431 543 b 431 550 424 555 418 555 b 410 555 405 549 405 543 z"},"_":{"x_min":0,"x_max":600,"ha":600,"o":"m 99 1 l 99 1 l 128 1 l 128 1 b 133 1 136 5 136 11 l 136 11 b 136 17 133 22 128 22 l 99 22 l 99 22 b 96 22 92 17 92 11 l 92 11 b 92 5 96 1 99 1 z m 41 1 l 41 1 l 70 1 l 70 1 b 75 1 78 5 78 11 l 78 11 b 78 17 75 22 70 22 l 41 22 l 41 22 b 38 22 34 17 34 11 l 34 11 b 34 5 38 1 41 1 z m -17 1 l -17 1 l 12 1 l 12 1 b 17 1 20 5 20 11 l 20 11 b 20 17 17 22 12 22 l -17 22 l -17 22 b -20 22 -24 17 -24 11 l -24 11 b -24 5 -20 1 -17 1 z"},"v":{"x_min":0,"x_max":582,"ha":582,"o":"m 113 331 b 116 326 121 324 124 324 b 127 324 128 324 129 325 b 135 328 140 335 137 342 l 117 388 b 115 394 107 397 101 394 b 94 391 91 384 94 378 z m 321 140 b 326 140 330 143 332 147 l 352 194 b 354 200 351 208 344 210 b 338 212 330 210 328 203 l 309 158 b 307 150 309 144 316 140 z m 393 325 b 395 324 397 324 398 324 b 403 324 408 326 409 331 l 430 378 b 432 384 430 391 422 394 b 416 397 408 394 406 388 l 387 342 b 384 335 387 328 393 325 z m 432 418 b 433 417 436 417 437 417 b 442 417 447 419 449 424 l 468 470 b 471 477 468 484 462 486 b 455 489 449 486 444 480 l 426 434 b 423 428 426 421 432 418 z m 354 233 b 356 233 358 231 360 231 b 365 231 370 236 371 240 l 391 285 b 393 293 390 299 384 303 b 377 305 370 301 367 296 l 349 249 b 346 243 349 236 354 233 z m 229 55 b 232 50 237 48 242 48 b 243 48 244 48 247 49 b 253 51 256 59 253 65 l 233 111 b 231 117 223 120 217 117 b 211 115 208 108 211 101 z m 277 49 b 278 48 281 48 282 48 b 287 48 291 50 293 55 l 313 101 b 316 108 312 115 306 117 b 300 120 292 117 289 111 l 271 65 b 267 59 271 51 277 49 z m 152 240 b 154 236 159 231 164 231 b 166 231 167 233 168 233 b 175 236 178 243 175 249 l 156 296 b 153 301 145 305 140 301 b 133 299 131 293 133 285 z m 74 424 b 77 419 82 417 86 417 b 88 417 89 417 91 418 b 97 421 101 428 98 434 l 78 480 b 75 486 68 489 62 486 b 56 484 53 477 56 470 z m 191 147 b 193 143 198 140 203 140 l 207 140 b 214 144 217 150 214 158 l 194 203 b 192 210 184 212 178 210 b 172 208 169 200 172 194 z m 257 1 b 257 0 259 0 260 0 l 262 0 l 264 0 b 265 0 266 0 267 1 b 270 2 273 5 274 8 l 275 9 b 277 15 273 22 267 25 l 264 25 b 261 26 258 26 256 25 b 249 22 247 15 249 9 l 250 8 b 251 6 252 4 254 2 b 255 2 255 2 256 1 z"},"O":{"x_min":0,"x_max":850,"ha":850,"o":"m 364 3 l 364 3 b 378 0 393 0 409 0 l 409 0 b 412 0 414 0 417 0 l 417 0 b 424 0 429 5 429 13 l 429 13 b 429 19 423 25 417 25 l 417 25 b 414 25 412 25 409 25 l 409 25 b 394 25 380 25 366 28 l 366 28 b 360 29 353 24 352 16 l 352 16 b 351 10 356 4 364 3 z m 455 15 l 455 15 b 456 9 461 5 467 5 l 467 5 b 467 5 469 5 470 5 l 470 5 b 487 9 505 14 522 20 l 522 20 b 528 23 530 29 528 38 l 528 38 b 525 44 519 47 511 44 l 511 44 b 497 39 480 33 465 30 l 465 30 b 457 29 453 23 455 15 z m 311 14 l 311 14 b 312 14 313 14 314 14 l 314 14 b 319 14 325 18 327 23 l 327 23 b 328 29 325 38 318 40 l 318 40 b 303 44 288 50 274 58 l 274 58 b 267 62 260 59 255 53 l 255 53 b 253 47 255 39 262 34 l 262 34 b 278 27 294 20 311 14 z m 551 48 l 551 48 b 553 44 559 42 563 42 l 563 42 b 566 42 567 43 569 44 l 569 44 b 585 53 599 62 613 73 l 613 73 b 618 78 619 86 615 91 l 615 91 b 610 97 602 97 596 94 l 596 94 l 596 94 b 585 83 571 73 556 66 l 556 66 b 549 62 548 54 551 48 z m 216 63 l 216 63 b 218 62 221 62 223 62 l 223 62 b 227 62 231 63 234 67 l 234 67 b 239 72 237 80 231 85 l 231 85 l 231 85 b 218 94 206 105 194 117 l 194 117 b 190 122 181 122 175 117 l 175 117 b 170 111 170 104 175 99 l 175 99 b 189 86 202 75 216 63 z m 634 109 l 634 109 b 636 108 639 106 643 106 l 643 106 b 645 106 649 108 652 110 l 652 110 b 663 124 674 138 683 153 l 683 153 b 687 159 686 167 680 171 l 680 171 b 674 174 667 173 663 167 l 663 167 l 663 167 b 653 153 644 140 633 128 l 633 128 b 628 122 628 115 634 109 z m 141 140 l 141 140 b 144 136 148 134 153 134 l 153 134 b 155 134 158 135 159 136 l 159 136 b 165 140 167 149 163 154 l 163 154 b 153 168 145 182 137 197 l 137 197 b 134 203 126 206 120 202 l 120 202 b 113 200 111 192 115 185 l 115 185 b 122 168 131 154 141 140 z m 692 193 l 692 193 b 693 193 696 192 697 192 l 697 192 b 702 192 708 196 710 200 l 710 200 b 717 216 724 233 729 249 l 729 249 b 730 255 726 264 720 266 l 720 266 b 714 268 705 264 704 257 l 704 257 b 699 240 692 225 686 211 l 686 211 b 683 205 686 197 692 193 z m 93 234 l 93 234 b 95 229 100 225 105 225 l 105 225 b 106 225 107 225 109 226 l 109 226 b 117 229 120 235 118 241 l 118 241 l 118 241 b 112 257 107 274 105 291 l 105 291 b 103 297 97 302 89 301 l 89 301 b 83 299 78 292 79 286 l 79 286 b 83 268 87 250 93 234 z m 725 291 l 725 291 b 726 291 726 291 727 291 l 727 291 b 733 291 739 296 739 302 l 739 302 b 741 318 743 337 743 355 l 743 355 b 743 365 743 377 741 387 l 741 387 b 741 394 735 399 727 398 l 727 398 b 721 398 716 392 716 385 l 716 385 b 717 375 717 365 717 355 l 717 355 b 717 339 716 321 715 305 l 715 305 b 714 298 719 292 725 291 z m 73 339 l 73 339 b 74 331 79 326 86 326 l 86 326 b 87 326 87 326 87 326 l 87 326 b 93 326 100 331 98 340 l 98 340 b 98 345 98 350 98 355 l 98 355 b 98 366 100 378 100 389 l 100 389 b 101 396 96 402 88 402 l 88 402 b 82 403 76 398 76 391 l 76 391 b 74 379 73 368 73 355 l 73 355 b 73 350 73 344 73 339 z m 708 435 l 708 435 b 710 428 716 424 721 424 l 721 424 b 722 424 724 424 724 424 l 724 424 b 731 426 735 433 734 440 l 734 440 b 730 457 725 474 719 491 l 719 491 b 716 498 708 500 701 498 l 701 498 b 693 495 691 489 693 480 l 693 480 l 693 480 b 700 466 704 450 708 435 z m 93 428 l 93 428 b 95 428 95 428 96 428 l 96 428 b 102 428 107 432 109 438 l 109 438 b 113 454 118 469 125 485 l 125 485 b 127 491 123 499 117 502 l 117 502 b 111 504 102 502 100 495 l 100 495 b 93 478 88 461 84 443 l 84 443 b 82 437 86 430 93 428 z m 672 526 l 672 526 b 674 522 680 519 683 519 l 683 519 b 686 519 687 521 690 521 l 690 521 b 696 524 697 532 695 538 l 695 538 b 686 554 676 570 664 582 l 664 582 b 661 589 653 589 647 585 l 647 585 b 642 581 640 572 645 567 l 645 567 b 655 554 664 540 672 526 z m 129 524 l 129 524 b 131 523 132 523 135 523 l 135 523 b 140 523 144 526 146 529 l 146 529 l 146 529 b 154 543 164 556 174 570 l 174 570 b 178 576 178 584 172 588 l 172 588 b 167 593 159 591 154 586 l 154 586 b 144 572 134 557 125 542 l 125 542 b 121 536 122 528 129 524 z m 611 603 l 611 603 b 614 600 616 600 619 600 l 619 600 b 623 600 627 601 629 604 l 629 604 b 635 609 634 617 628 622 l 628 622 b 615 634 601 646 587 656 l 587 656 b 581 660 573 657 569 652 l 569 652 b 566 646 567 638 573 634 l 573 634 b 586 624 599 614 611 603 z m 190 607 l 190 607 b 193 604 197 603 199 603 l 199 603 b 203 603 206 604 208 605 l 208 605 b 221 617 234 627 247 637 l 247 637 b 253 641 254 648 250 653 l 250 653 b 246 660 239 661 234 657 l 234 657 b 218 648 204 637 192 624 l 192 624 b 187 619 184 612 190 607 z m 529 658 l 529 658 b 530 657 533 657 534 657 l 534 657 b 539 657 544 660 546 665 l 546 665 b 549 671 546 679 539 681 l 539 681 b 524 689 508 694 490 699 l 490 699 b 484 700 475 696 474 690 l 474 690 b 472 682 476 676 484 675 l 484 675 b 500 670 515 665 529 658 z m 274 666 l 274 666 b 276 661 280 658 285 658 l 285 658 b 288 658 289 658 290 660 l 290 660 l 290 660 b 306 666 321 671 337 675 l 337 675 b 345 677 348 684 347 690 l 347 690 b 345 698 338 701 331 700 l 331 700 b 313 695 297 690 280 682 l 280 682 b 274 680 271 672 274 666 z m 434 682 l 434 682 b 436 682 436 682 436 682 l 436 682 b 442 682 448 687 448 694 l 448 694 b 450 701 444 709 437 709 l 437 709 b 428 710 418 710 409 710 l 409 710 b 399 710 391 710 384 709 l 384 709 b 376 709 371 701 371 695 l 371 695 b 372 687 379 682 385 682 l 385 682 b 393 684 400 684 409 684 l 409 684 b 418 684 427 684 434 682 z"},"(":{"x_min":0,"x_max":430,"ha":430,"o":"m 106 497 b 108 497 109 496 110 496 b 117 496 123 501 124 507 b 130 526 136 544 143 560 b 146 567 143 576 135 579 b 128 582 119 579 116 571 b 109 554 102 535 96 515 b 94 507 99 499 106 497 z m 225 -89 b 243 -97 264 -100 286 -100 b 294 -100 301 -94 301 -86 b 301 -78 294 -71 286 -71 b 267 -71 251 -68 235 -62 b 228 -59 219 -63 216 -70 b 213 -78 217 -86 225 -89 z m 80 164 b 81 157 87 151 94 151 b 95 151 96 151 96 152 b 104 153 110 160 109 168 b 106 186 104 205 103 224 b 102 232 95 238 87 238 b 79 237 73 230 74 222 b 75 202 77 183 80 164 z m 149 604 b 152 602 155 602 158 602 b 162 602 167 604 170 608 b 181 623 193 636 207 645 b 213 650 214 659 210 666 b 205 672 196 674 190 669 b 173 657 159 642 146 624 b 141 618 143 609 149 604 z m 71 281 b 71 273 78 267 86 267 b 94 267 100 274 100 282 l 100 300 b 100 313 100 326 101 339 b 101 347 95 353 87 354 b 79 354 72 348 72 340 b 71 327 71 313 71 300 z m 108 48 b 110 43 116 39 122 39 b 123 39 125 39 127 40 b 134 43 138 51 135 58 b 129 75 124 93 119 112 b 117 120 109 125 102 123 b 94 121 89 113 91 106 b 96 85 101 66 108 48 z m 172 -55 b 174 -58 178 -59 182 -59 b 185 -59 189 -57 192 -54 b 198 -49 197 -39 192 -34 b 179 -22 168 -8 159 8 b 154 15 146 18 139 14 b 132 9 130 1 134 -6 b 145 -25 157 -41 172 -55 z m 90 383 b 97 383 104 388 104 396 b 106 415 109 434 112 452 b 113 460 108 467 100 469 b 92 470 85 465 83 457 b 80 438 78 419 76 398 b 75 391 81 383 89 383 z m 236 678 b 238 671 244 667 250 667 l 254 667 b 264 669 275 671 286 671 b 294 671 301 677 301 685 b 301 693 294 700 286 700 b 273 700 259 698 247 695 b 239 693 234 686 236 678 z"},"C":{"x_min":0,"x_max":771,"ha":771,"o":"m 414 0 l 414 0 b 421 0 428 0 436 0 l 436 0 b 447 0 457 0 467 1 l 467 1 b 475 1 480 8 479 14 l 479 14 b 479 22 472 27 465 27 l 465 27 b 456 25 447 25 436 25 l 436 25 b 430 25 422 25 416 25 l 416 25 b 408 25 403 20 402 14 l 402 14 b 402 6 407 0 414 0 z m 363 8 l 363 8 b 363 6 365 6 366 6 l 366 6 b 371 6 375 11 376 16 l 376 16 b 379 24 374 30 368 32 l 368 32 b 352 36 336 39 320 44 l 320 44 b 313 47 307 44 304 37 l 304 37 b 301 30 305 24 312 22 l 312 22 b 328 15 346 10 363 8 z m 504 18 l 504 18 b 505 13 510 9 518 9 l 518 9 b 518 9 519 9 520 9 l 520 9 b 538 13 555 18 571 24 l 571 24 b 577 27 580 34 577 41 l 577 41 b 575 47 567 51 561 48 l 561 48 b 546 42 530 37 513 33 l 513 33 b 507 32 503 25 504 18 z m 262 43 l 262 43 b 264 42 266 41 269 41 l 269 41 b 273 41 278 43 279 48 l 279 48 b 283 53 280 62 274 65 l 274 65 b 260 72 245 82 232 93 l 232 93 b 226 97 218 96 214 91 l 214 91 b 211 83 211 76 217 71 l 217 71 b 231 60 246 51 262 43 z m 601 51 l 601 51 b 604 47 610 44 614 44 l 614 44 b 616 44 617 46 620 47 l 620 47 b 635 55 650 65 663 77 l 663 77 b 669 81 671 88 666 96 l 666 96 b 662 101 654 102 648 97 l 648 97 l 648 97 b 635 87 621 77 607 68 l 607 68 b 600 65 599 57 601 51 z m 176 107 l 176 107 b 179 105 183 103 187 103 l 187 103 b 189 103 193 105 195 107 l 195 107 b 201 112 201 120 195 125 l 195 125 b 183 136 173 149 161 162 l 161 162 b 158 167 150 168 143 164 l 143 164 b 138 161 136 152 140 147 l 140 147 b 153 133 165 119 176 107 z m 112 192 l 112 192 b 115 188 119 186 124 186 l 124 186 b 126 186 128 186 130 187 l 130 187 b 136 189 138 197 135 203 l 135 203 b 128 219 121 234 115 250 l 115 250 b 114 256 106 259 100 258 l 100 258 b 93 255 89 247 92 241 l 92 241 b 97 224 105 207 112 192 z m 78 293 l 78 293 b 79 287 84 283 91 283 l 91 283 b 91 283 92 283 93 283 l 93 283 b 100 284 105 290 103 298 l 103 298 b 100 312 98 329 98 345 l 98 345 b 97 351 92 358 84 358 l 84 358 b 78 357 73 351 73 344 l 73 344 b 73 326 76 310 78 293 z m 86 384 l 86 384 b 87 383 87 383 88 383 l 88 383 b 95 383 100 388 101 394 l 101 394 b 102 411 106 427 110 442 l 110 442 b 112 450 109 457 101 459 l 101 459 b 95 461 88 457 86 450 l 86 450 b 81 432 77 416 76 398 l 76 398 b 74 391 79 384 86 384 z m 110 483 l 110 483 b 112 482 114 482 116 482 l 116 482 b 120 482 125 484 128 489 l 128 489 l 128 489 b 134 504 141 518 151 533 l 151 533 b 155 539 154 547 149 551 l 149 551 b 141 555 134 553 130 547 l 130 547 b 120 533 111 516 103 499 l 103 499 b 101 493 103 485 110 483 z m 165 571 l 165 571 b 168 569 170 569 174 569 l 174 569 b 176 569 180 570 183 572 l 183 572 l 183 572 b 194 584 206 595 218 605 l 218 605 b 223 610 225 618 220 624 l 220 624 b 216 630 207 630 202 627 l 202 627 b 188 614 175 601 164 589 l 164 589 b 158 584 159 576 165 571 z m 649 612 l 649 612 b 650 610 654 609 657 609 l 657 609 b 661 609 664 610 667 614 l 667 614 b 671 619 669 628 664 633 l 664 633 b 659 637 654 641 648 644 l 648 644 b 643 648 635 647 630 642 l 630 642 b 626 635 628 628 634 624 l 634 624 b 639 619 644 615 649 612 z m 240 639 l 240 639 b 242 635 247 633 252 633 l 252 633 b 255 633 257 634 259 635 l 259 635 b 273 643 288 651 303 657 l 303 657 b 310 660 313 667 310 674 l 310 674 b 308 681 300 685 293 682 l 293 682 b 276 674 261 666 245 657 l 245 657 b 239 653 237 646 240 639 z m 590 648 l 590 648 b 591 648 594 647 595 647 l 595 647 b 601 647 606 649 609 654 l 609 654 b 612 661 610 668 602 671 l 602 671 b 585 680 570 686 552 692 l 552 692 b 546 695 538 691 537 683 l 537 683 b 534 677 538 670 544 667 l 544 667 b 560 662 575 656 590 648 z m 334 683 l 334 683 b 336 677 342 672 347 672 l 347 672 b 348 672 349 672 351 672 l 351 672 b 366 678 381 681 398 682 l 398 682 b 404 683 409 690 409 696 l 409 696 b 408 704 402 709 395 707 l 395 707 b 378 706 361 702 344 699 l 344 699 b 337 696 332 690 334 683 z m 496 680 l 496 680 b 496 680 498 680 498 680 l 498 680 b 504 680 509 683 510 690 l 510 690 b 512 697 508 704 500 705 l 500 705 b 484 707 466 710 448 710 l 448 710 b 440 710 435 705 435 697 l 435 697 b 433 691 440 685 447 685 l 447 685 b 464 685 480 682 496 680 z"},"W":{"x_min":0,"x_max":1102,"ha":1102,"o":"m 578 454 b 580 449 584 447 589 447 b 592 447 593 447 594 448 b 601 451 604 458 602 465 l 582 511 b 580 516 575 518 570 518 b 564 520 557 517 555 511 l 535 465 b 532 458 536 451 542 448 b 544 447 545 447 547 447 b 552 447 556 449 559 454 l 568 477 z m 617 361 b 619 356 623 353 628 353 b 631 353 632 353 633 354 b 640 357 644 365 641 371 l 621 418 b 618 424 611 427 604 424 b 598 422 594 414 598 408 z m 240 261 b 242 257 246 253 251 253 b 254 253 255 254 256 254 b 263 257 266 265 264 271 l 244 318 b 241 324 233 328 227 324 b 221 322 217 314 221 308 z m 880 254 b 882 254 883 253 885 253 b 890 253 894 257 897 261 l 916 308 b 919 314 916 322 909 324 b 903 328 895 324 893 318 l 873 271 b 870 265 874 257 880 254 z m 802 68 b 803 67 804 67 807 67 b 811 67 816 70 818 75 l 837 122 b 840 128 837 135 831 138 b 825 141 817 138 814 132 l 794 85 b 792 78 795 71 802 68 z m 122 542 b 125 537 128 534 133 534 l 138 534 b 145 537 149 544 145 551 l 126 597 b 123 604 116 608 109 605 b 103 601 99 595 102 587 z m 318 75 b 321 70 326 67 330 67 b 332 67 333 67 335 68 b 341 71 345 78 342 85 l 322 132 b 319 138 312 141 306 138 b 299 135 297 128 299 122 z m 464 261 b 465 261 466 259 469 259 b 473 259 478 263 480 267 l 499 314 b 502 320 499 328 493 330 b 487 334 479 330 476 324 l 456 277 b 454 271 457 263 464 261 z m 161 448 b 164 443 168 441 173 441 b 175 441 176 441 178 442 b 184 444 188 452 184 458 l 165 505 b 163 511 155 514 149 511 b 142 509 138 501 141 495 z m 919 348 b 921 347 922 347 925 347 b 930 347 933 349 936 354 l 955 401 b 959 408 955 415 949 418 b 942 420 935 418 932 411 l 913 365 b 909 358 913 351 919 348 z m 385 75 b 387 73 388 73 389 73 b 394 73 399 76 402 81 l 421 128 b 423 134 421 142 414 144 b 408 147 401 144 398 138 l 378 91 b 375 85 379 77 385 75 z m 959 442 b 960 441 961 441 964 441 b 969 441 973 443 975 448 l 995 495 b 998 501 994 509 988 511 b 982 514 974 511 971 505 l 952 458 b 949 452 952 444 959 442 z m 656 267 b 659 263 664 259 668 259 b 670 259 671 261 673 261 b 679 263 683 271 680 277 l 660 324 b 657 330 650 334 644 330 b 637 328 635 320 637 314 z m 83 634 b 85 630 89 627 94 627 b 95 627 98 627 99 628 b 106 630 108 638 106 644 l 87 691 b 84 697 76 700 70 697 b 64 695 60 687 63 681 z m 1037 628 b 1038 627 1041 627 1042 627 b 1047 627 1051 630 1054 634 l 1074 681 b 1076 687 1073 695 1066 697 b 1060 700 1052 697 1050 691 l 1031 644 b 1028 638 1031 630 1037 628 z m 430 167 b 433 167 438 170 441 175 l 460 222 b 463 228 460 235 454 238 b 447 241 440 237 437 230 l 417 185 b 414 177 418 171 425 167 z m 279 168 b 282 163 285 161 290 161 l 295 161 b 302 165 306 171 303 177 l 283 224 b 280 230 273 234 266 232 b 260 229 257 222 260 215 z m 695 175 b 698 170 703 167 707 167 l 712 167 b 718 171 722 177 719 185 l 699 230 b 697 237 689 241 683 238 b 676 235 674 228 676 222 z m 503 354 b 504 353 506 353 508 353 b 513 353 517 356 519 361 l 538 408 b 542 414 538 422 532 424 b 526 427 518 424 516 418 l 495 371 b 493 365 497 357 503 354 z m 735 81 b 737 76 742 73 747 73 b 749 73 750 73 751 75 b 757 77 761 85 759 91 l 738 138 b 736 144 728 147 722 144 b 716 142 713 134 716 128 z m 1003 534 b 1008 534 1012 537 1014 542 l 1035 587 b 1037 595 1033 601 1027 605 b 1021 608 1013 604 1011 597 l 992 551 b 988 544 992 537 998 534 z m 846 161 b 851 161 855 163 857 168 l 876 215 b 880 222 876 229 870 232 b 864 234 856 230 854 224 l 833 177 b 831 171 835 165 841 161 z m 201 354 b 203 349 207 347 212 347 b 214 347 216 347 217 348 b 223 351 227 358 223 365 l 204 411 b 202 418 194 420 188 418 b 182 415 178 408 182 401 z m 357 0 l 359 0 l 364 0 b 367 2 370 6 371 10 l 382 34 b 384 41 382 48 375 51 b 369 53 361 51 359 44 l 358 42 b 354 45 349 46 345 44 b 338 42 336 34 338 28 l 346 9 b 347 5 349 2 354 0 z m 783 0 b 786 2 789 6 790 10 l 798 28 b 801 34 798 42 792 44 b 787 46 782 45 778 42 l 778 44 b 775 51 768 53 761 51 b 755 48 752 41 755 34 l 765 9 b 766 5 768 2 773 0 z"},"A":{"x_min":0,"x_max":646,"ha":646,"o":"m 495 188 b 497 188 500 188 502 190 l 505 190 l 510 190 b 516 192 520 200 517 206 l 500 254 b 497 260 490 264 483 262 b 477 259 473 251 476 245 l 487 214 l 444 214 b 438 214 432 207 432 201 b 432 193 438 188 444 188 z m 191 188 b 199 188 204 193 204 201 b 204 207 199 214 191 214 l 157 214 l 170 245 b 171 251 169 259 162 262 b 155 264 149 260 146 254 l 128 206 b 126 201 127 196 131 192 b 133 189 137 188 141 188 z m 394 188 b 401 188 406 193 406 201 b 406 207 401 214 394 214 l 343 214 b 337 214 330 207 330 201 b 330 193 337 188 343 188 z m 293 188 b 300 188 305 193 305 201 b 305 207 300 214 293 214 l 242 214 b 236 214 229 207 229 201 b 229 193 236 188 242 188 z m 175 284 b 180 284 185 287 188 292 l 205 340 b 208 346 204 354 198 356 b 191 359 184 355 181 349 l 164 301 b 161 294 165 287 171 284 z m 529 102 b 531 97 535 95 540 95 b 543 95 544 95 545 96 b 552 99 555 105 553 111 l 535 159 b 533 166 525 169 519 167 b 512 164 509 157 511 150 z m 277 569 b 279 569 280 567 282 567 b 287 567 291 571 294 576 l 311 623 b 314 631 310 637 304 639 b 298 642 290 639 287 632 l 270 585 b 267 579 271 571 277 569 z m 351 576 b 353 571 358 567 363 567 b 365 567 366 569 367 569 b 373 571 377 579 375 585 l 357 632 b 354 639 347 642 341 639 b 334 637 330 631 333 623 z m 246 474 b 252 474 256 476 258 481 l 276 528 b 279 536 275 542 269 545 b 262 547 255 545 252 537 l 234 490 b 232 484 236 476 242 474 z m 458 292 b 459 287 464 284 469 284 l 474 284 b 481 287 483 294 482 301 l 463 349 b 462 355 454 359 448 356 b 440 354 438 346 440 340 z m 564 9 b 567 4 572 0 577 0 b 578 0 579 0 581 1 b 587 4 591 10 588 18 l 571 64 b 568 71 560 75 554 72 b 548 69 544 62 547 56 z m 210 379 b 215 379 221 382 223 387 l 241 435 b 243 441 239 449 233 450 b 227 452 219 450 217 444 l 199 395 b 197 389 200 382 207 379 z m 64 1 b 65 0 68 0 69 0 b 74 0 79 4 80 9 l 98 56 b 100 62 98 69 90 72 b 84 75 76 71 75 64 l 56 18 b 55 10 58 4 64 1 z m 99 96 b 102 95 103 95 104 95 b 109 95 114 97 116 102 l 133 150 b 136 157 133 164 127 167 b 119 169 113 166 111 159 l 93 111 b 90 105 93 99 99 96 z m 387 481 b 389 476 394 474 399 474 l 402 474 b 410 476 413 484 410 490 l 392 538 b 390 545 384 547 376 545 b 370 542 367 536 370 528 z m 423 387 b 424 382 429 379 434 379 l 439 379 b 445 382 448 389 445 395 l 428 444 b 425 450 419 452 411 450 b 405 449 402 441 405 435 z m 313 663 b 314 663 317 662 318 662 b 319 662 321 662 322 663 b 324 662 326 662 328 662 b 329 662 330 663 332 663 b 338 666 342 673 339 680 l 336 690 b 333 695 327 699 322 698 b 316 699 310 695 309 690 l 305 680 b 303 673 306 666 313 663 z"},"f":{"x_min":0,"x_max":362,"ha":362,"o":"m 128 492 l 77 492 b 70 492 65 487 65 480 b 65 473 70 467 77 467 l 128 467 b 135 467 141 473 141 480 b 141 487 135 492 128 492 z m 229 492 l 179 492 b 172 492 166 487 166 480 b 166 473 172 467 179 467 l 229 467 b 236 467 242 473 242 480 b 242 487 236 492 229 492 z m 154 481 b 147 481 141 476 141 469 l 141 418 b 141 411 147 405 154 405 b 161 405 167 411 167 418 l 167 469 b 167 476 161 481 154 481 z m 154 380 b 147 380 141 374 141 367 l 141 317 b 141 310 147 304 154 304 b 161 304 167 310 167 317 l 167 367 b 167 374 161 380 154 380 z m 157 608 b 158 608 160 608 161 608 b 166 608 171 611 173 617 b 178 634 184 646 193 655 b 199 659 199 667 194 673 b 189 678 181 678 176 673 b 163 661 154 644 148 624 b 147 617 151 610 157 608 z m 154 279 b 147 279 141 273 141 266 l 141 215 b 141 208 147 203 154 203 b 161 203 167 208 167 215 l 167 266 b 167 273 161 279 154 279 z m 263 700 b 251 700 239 699 228 697 b 221 696 216 689 218 683 b 219 676 224 672 230 672 b 231 672 232 672 232 672 b 242 674 252 675 263 675 b 270 675 276 680 276 687 b 276 694 270 700 263 700 z m 154 507 b 161 507 167 513 167 520 l 167 559 b 167 563 167 566 167 570 b 167 577 161 583 154 583 b 147 583 142 578 141 571 b 141 567 141 563 141 559 l 141 520 b 141 513 147 507 154 507 z m 154 177 b 147 177 141 172 141 165 l 141 114 b 141 107 147 101 154 101 b 161 101 167 107 167 114 l 167 165 b 167 172 161 177 154 177 z m 154 76 b 147 76 141 70 141 63 l 141 13 b 141 6 147 0 154 0 b 161 0 167 6 167 13 l 167 63 b 167 70 161 76 154 76 z"},"Q":{"x_min":0,"x_max":844,"ha":844,"o":"m 683 484 b 690 467 695 452 698 437 b 700 430 705 425 712 425 b 713 425 713 426 714 426 b 722 428 727 435 724 441 b 721 459 714 477 708 493 b 705 499 698 503 691 501 b 684 496 681 489 683 484 z m 694 259 b 690 244 683 229 675 214 b 673 206 675 199 682 197 b 684 195 687 195 689 195 b 694 195 698 198 700 202 b 708 218 714 235 720 253 b 722 259 717 266 711 268 b 703 270 696 266 694 259 z m 531 681 b 514 688 498 695 481 700 b 474 701 467 697 466 689 b 464 684 467 677 474 674 b 489 671 505 665 521 660 b 522 658 523 658 526 658 b 531 658 536 661 538 665 b 540 671 538 679 531 681 z m 428 709 b 418 709 409 710 400 710 b 392 710 385 709 376 709 b 369 708 364 702 364 695 b 364 688 371 683 377 684 b 386 684 393 684 400 684 b 409 684 417 684 426 683 b 426 683 427 683 427 683 b 434 683 440 688 441 695 b 441 702 435 708 428 709 z m 400 2 b 402 2 405 2 408 2 b 415 2 420 8 420 15 b 420 22 414 29 407 29 b 404 29 402 28 400 28 b 387 28 372 29 360 31 b 352 32 346 28 344 20 b 343 13 348 7 355 6 b 370 4 385 2 400 2 z m 224 658 b 210 648 195 637 182 625 b 177 622 177 613 182 607 b 184 605 187 604 192 604 b 194 604 199 605 201 607 l 201 607 b 212 618 225 628 239 637 b 244 641 246 648 242 655 b 239 661 230 663 224 658 z m 307 16 b 313 16 318 20 320 26 b 322 32 318 39 312 42 b 296 47 282 53 265 62 b 258 65 250 62 247 55 b 243 49 247 42 254 38 b 268 30 286 22 304 17 b 305 16 306 16 307 16 z m 323 701 b 306 696 290 689 272 683 b 265 680 262 673 265 666 b 267 662 272 660 279 660 b 281 660 282 660 284 661 b 298 666 314 672 329 676 b 336 678 339 684 338 692 b 337 698 330 702 323 701 z m 720 401 b 712 400 705 393 706 385 b 708 376 708 366 708 356 b 708 340 706 323 704 307 b 703 300 708 294 715 293 b 717 293 717 293 719 293 b 724 293 729 297 730 303 b 732 321 733 338 733 356 b 733 367 733 377 732 388 b 732 397 725 401 720 401 z m 559 46 b 575 55 589 66 603 79 b 609 82 610 90 606 96 b 599 102 592 103 586 97 l 586 97 b 575 87 560 79 547 71 b 542 66 539 56 543 50 b 545 47 548 45 553 45 b 555 45 558 45 559 46 z m 670 175 b 664 178 657 177 652 170 b 644 157 634 143 624 130 b 618 126 618 118 624 113 b 626 111 630 111 633 111 b 635 111 639 112 642 114 b 654 127 664 142 673 157 b 677 162 675 170 670 175 z m 185 120 b 180 125 172 125 168 120 b 163 115 163 107 168 103 b 179 90 194 79 208 67 b 210 66 212 65 216 65 b 219 65 223 67 225 71 b 230 76 228 84 223 88 b 210 97 199 108 185 120 z m 87 430 b 88 430 88 430 89 430 b 95 430 99 434 102 440 l 102 440 b 105 455 111 471 116 487 b 119 493 116 501 109 504 b 103 507 96 503 92 496 b 87 480 80 462 76 446 b 75 439 79 432 87 430 z m 121 527 b 123 526 125 525 128 525 b 132 525 136 527 138 530 l 138 530 b 146 545 155 560 167 572 b 170 577 170 585 164 590 b 158 594 151 593 146 587 b 136 574 125 560 116 544 b 113 537 115 530 121 527 z m 600 604 b 603 602 608 601 610 601 b 614 601 617 602 619 605 b 625 609 625 618 619 623 b 607 635 591 646 577 657 b 571 661 562 658 559 653 b 555 647 556 638 562 635 b 576 625 589 615 600 604 z m 79 328 b 87 329 92 334 92 341 b 91 346 91 351 91 356 b 91 368 92 379 93 389 b 93 398 89 404 81 405 b 74 406 68 400 68 392 b 67 380 66 368 66 356 b 66 350 66 345 66 340 b 67 334 72 328 79 328 b 79 328 79 328 79 328 z m 663 528 b 665 523 669 521 673 521 b 675 521 679 522 680 523 b 687 527 689 534 684 540 b 675 556 666 570 655 585 b 651 590 643 591 638 586 b 632 583 631 574 635 569 b 645 556 655 542 663 528 z m 111 245 b 104 261 100 276 97 293 b 96 298 90 303 82 302 b 75 301 71 295 72 288 b 75 270 80 254 84 237 b 88 232 92 229 98 229 b 99 229 100 229 102 230 b 109 231 113 238 111 245 z m 130 199 b 127 206 119 208 112 205 b 105 201 103 194 106 189 b 114 171 124 158 135 143 b 137 139 140 138 144 138 b 146 138 150 138 152 141 b 156 144 158 153 154 158 b 145 170 137 185 130 199 z m 507 20 b 508 21 510 21 510 22 b 511 22 511 22 511 22 b 518 25 522 33 520 39 b 517 46 508 49 503 47 l 503 47 b 487 40 472 37 457 33 b 449 32 444 25 445 18 b 445 17 445 17 445 17 b 443 14 442 9 444 6 b 447 1 451 -2 457 -2 b 458 -2 460 -1 461 -1 l 507 20 z m 708 -110 b 691 -115 675 -118 660 -119 b 654 -119 648 -127 649 -132 b 649 -139 655 -144 660 -144 b 662 -144 662 -144 662 -144 l 662 -144 b 680 -143 698 -139 715 -134 b 723 -132 727 -125 724 -118 b 722 -111 714 -107 708 -110 z m 612 -117 b 595 -114 581 -110 565 -104 b 558 -101 551 -105 548 -112 b 546 -118 550 -125 556 -128 l 556 -128 b 574 -134 590 -138 608 -142 b 609 -142 610 -142 610 -142 b 616 -142 622 -137 624 -131 b 625 -123 619 -118 612 -117 z m 804 -67 b 801 -63 793 -62 786 -66 b 775 -74 763 -82 751 -90 b 745 -93 744 -101 747 -107 b 748 -111 754 -113 759 -113 b 761 -113 762 -113 764 -112 l 764 -112 b 777 -105 791 -96 802 -85 b 808 -81 809 -73 804 -67 z m 329 -49 b 329 -48 329 -48 328 -48 b 325 -41 318 -39 312 -42 l 264 -63 b 257 -66 255 -73 258 -79 b 258 -81 260 -83 263 -85 b 265 -87 267 -88 272 -88 b 274 -88 276 -87 279 -86 b 279 -86 283 -85 291 -81 b 298 -78 310 -74 323 -71 b 330 -69 333 -62 332 -56 b 331 -54 330 -50 329 -49 z m 520 -83 b 508 -78 497 -71 484 -65 b 482 -63 479 -62 475 -59 b 469 -57 461 -59 459 -65 b 455 -71 458 -78 464 -81 b 467 -82 469 -85 473 -86 b 484 -94 496 -99 507 -107 b 510 -107 512 -108 513 -108 b 518 -108 523 -106 526 -101 b 528 -95 526 -86 520 -83 z m 424 -41 b 409 -39 395 -38 381 -38 l 415 -23 b 421 -19 424 -11 421 -5 b 417 1 410 4 404 1 l 358 -20 b 352 -24 348 -32 352 -38 b 353 -41 357 -43 361 -44 b 360 -46 358 -48 358 -50 b 358 -58 364 -64 371 -63 b 375 -63 378 -63 381 -63 b 394 -63 405 -64 418 -66 b 420 -66 420 -66 421 -66 b 427 -66 432 -63 433 -57 b 435 -49 431 -43 424 -41 z"},"w":{"x_min":0,"x_max":861,"ha":861,"o":"m 421 301 b 424 296 427 293 432 293 b 434 293 437 293 437 295 b 444 297 448 304 444 311 l 425 357 b 423 362 416 365 411 364 b 406 364 401 361 400 357 l 380 311 b 378 304 380 297 386 295 b 389 293 390 293 391 293 b 396 293 402 296 404 301 l 412 321 z m 538 24 b 539 20 542 18 545 17 b 542 11 545 3 551 1 b 553 0 556 0 557 0 b 562 0 565 3 568 8 l 569 9 b 572 15 568 22 562 25 l 561 25 b 562 28 563 31 562 34 l 542 79 b 539 87 532 89 525 87 b 519 84 515 76 519 70 z m 256 8 b 258 3 264 0 269 0 b 270 0 271 0 274 1 b 280 3 282 11 280 17 b 283 18 285 21 286 24 l 306 70 b 309 76 306 84 300 87 b 292 89 286 87 282 79 l 264 34 b 262 31 262 28 263 25 l 262 25 b 256 22 253 15 256 9 z m 80 425 b 83 420 87 417 92 417 b 94 417 96 417 96 418 b 103 421 107 428 104 435 l 85 481 b 82 487 74 490 68 487 b 61 485 58 477 61 471 z m 460 208 b 462 203 467 200 472 200 b 473 200 475 200 476 202 b 483 204 486 212 483 218 l 464 265 b 461 271 454 273 448 271 b 441 268 437 260 440 254 z m 572 49 b 573 48 575 48 577 48 b 581 48 586 50 588 55 l 608 101 b 611 108 607 115 600 118 b 594 120 586 118 584 111 l 565 65 b 563 59 565 51 572 49 z m 236 55 b 239 50 243 48 248 48 b 250 48 251 48 252 49 b 260 51 262 59 260 65 l 240 111 b 237 118 229 120 223 118 b 217 115 215 108 217 101 z m 693 325 b 698 325 703 327 705 332 l 724 379 b 727 385 724 392 717 395 b 711 397 705 395 700 388 l 682 342 b 679 336 682 328 689 325 z m 197 148 b 199 143 204 141 210 141 l 213 141 b 220 144 223 150 221 158 l 201 203 b 199 211 191 213 185 211 b 178 208 176 200 178 194 z m 158 241 b 161 236 166 232 169 232 b 172 232 173 233 174 233 b 180 236 185 243 182 249 l 162 296 b 159 302 152 306 145 303 b 139 300 137 292 139 286 z m 649 233 b 651 233 653 232 654 232 b 659 232 664 236 665 241 l 686 286 b 689 292 686 300 678 302 b 672 306 664 302 662 296 l 643 249 b 640 243 643 236 649 233 z m 348 202 b 350 200 351 200 353 200 b 358 200 362 203 364 208 l 383 254 b 386 260 383 268 378 271 b 372 273 364 271 361 265 l 341 218 b 339 212 341 204 348 202 z m 616 141 b 621 141 626 143 627 148 l 647 194 b 649 200 646 208 640 211 b 633 213 626 211 623 203 l 605 158 b 602 152 605 144 611 141 z m 727 418 b 730 417 731 417 732 417 b 737 417 742 420 743 425 l 763 471 b 766 477 763 485 757 487 b 749 490 743 487 740 481 l 721 435 b 718 428 721 421 727 418 z m 309 109 b 311 109 312 108 313 108 b 318 108 324 111 325 116 l 345 162 b 348 169 345 176 339 179 b 332 182 325 178 323 171 l 302 125 b 300 119 302 111 309 109 z m 499 116 b 502 111 505 108 510 108 b 513 108 514 109 515 109 b 521 111 525 119 521 125 l 503 171 b 500 178 493 182 486 179 b 480 176 476 169 480 162 z m 120 332 b 122 327 127 325 131 325 l 136 325 b 142 328 145 336 143 342 l 123 388 b 121 395 113 397 107 395 b 101 392 98 385 101 379 z"},"-":{"x_min":0,"x_max":408,"ha":408,"o":"m 189 340 l 189 340 l 218 340 l 218 340 b 223 340 226 344 226 350 l 226 350 b 226 356 223 361 218 361 l 189 361 l 189 361 b 186 361 182 356 182 350 l 182 350 b 182 344 186 340 189 340 z m 131 340 l 131 340 l 160 340 l 160 340 b 165 340 168 344 168 350 l 168 350 b 168 356 165 361 160 361 l 131 361 l 131 361 b 128 361 124 356 124 350 l 124 350 b 124 344 128 340 131 340 z m 73 340 l 73 340 l 102 340 l 102 340 b 107 340 110 344 110 350 l 110 350 b 110 356 107 361 102 361 l 73 361 l 73 361 b 70 361 66 356 66 350 l 66 350 b 66 344 70 340 73 340 z"},"E":{"x_min":0,"x_max":593,"ha":593,"o":"m 170 0 b 178 0 183 5 183 13 b 183 19 178 25 170 25 l 128 25 b 128 26 129 27 129 28 l 129 79 b 129 86 124 91 117 91 b 110 91 104 86 104 79 l 104 28 b 104 24 105 21 108 18 b 107 17 107 15 107 13 b 107 5 113 0 119 0 z m 104 332 b 104 326 110 320 117 320 b 124 320 129 326 129 332 l 129 337 l 170 337 b 178 337 183 342 183 350 b 183 356 178 363 170 363 l 129 363 l 129 383 b 129 391 124 396 117 396 b 110 396 104 391 104 383 z m 104 637 b 104 630 110 624 117 624 b 124 624 129 630 129 637 l 129 675 l 170 675 b 178 675 183 681 183 687 b 183 695 178 700 170 700 l 119 700 l 117 700 b 110 700 104 695 104 687 z m 373 337 b 380 337 386 342 386 350 b 386 356 380 363 373 363 l 322 363 b 316 363 309 356 309 350 b 309 342 316 337 322 337 z m 271 337 b 279 337 284 342 284 350 b 284 356 279 363 271 363 l 221 363 b 214 363 208 356 208 350 b 208 342 214 337 221 337 z m 104 535 b 104 529 110 522 117 522 b 124 522 129 529 129 535 l 129 586 b 129 593 124 599 117 599 b 110 599 104 593 104 586 z m 373 0 b 380 0 386 5 386 13 b 386 19 380 25 373 25 l 322 25 b 316 25 309 19 309 13 b 309 5 316 0 322 0 z m 373 675 b 380 675 386 681 386 687 b 386 695 380 700 373 700 l 322 700 b 316 700 309 695 309 687 b 309 681 316 675 322 675 z m 104 231 b 104 224 110 218 117 218 b 124 218 129 224 129 231 l 129 282 b 129 289 124 294 117 294 b 110 294 104 289 104 282 z m 104 129 b 104 123 110 117 117 117 b 124 117 129 123 129 129 l 129 180 b 129 188 124 193 117 193 b 110 193 104 188 104 180 z m 104 434 b 104 427 110 421 117 421 b 124 421 129 427 129 434 l 129 484 b 129 492 124 497 117 497 b 110 497 104 492 104 484 z m 271 675 b 279 675 284 681 284 687 b 284 695 279 700 271 700 l 221 700 b 214 700 208 695 208 687 b 208 681 214 675 221 675 z m 474 675 b 482 675 487 681 487 687 b 487 695 482 700 474 700 l 424 700 b 417 700 411 695 411 687 b 411 681 417 675 424 675 z m 474 0 b 482 0 487 5 487 13 b 487 19 482 25 474 25 l 424 25 b 417 25 411 19 411 13 b 411 5 417 0 424 0 z m 271 0 b 279 0 284 5 284 13 b 284 19 279 25 271 25 l 221 25 b 214 25 208 19 208 13 b 208 5 214 0 221 0 z m 448 337 b 455 337 460 342 460 350 b 460 356 455 363 448 363 l 424 363 b 417 363 411 356 411 350 b 411 342 417 337 424 337 z"},"s":{"x_min":0,"x_max":492,"ha":492,"o":"m 179 5 l 179 5 b 192 3 205 1 218 1 l 218 1 b 223 1 227 2 232 2 l 232 2 b 239 2 244 8 244 15 l 244 15 b 244 22 238 27 231 27 l 231 27 l 231 27 b 226 27 222 27 218 27 l 218 27 b 206 27 195 28 184 30 l 184 30 b 177 31 170 26 169 19 l 169 19 b 168 12 172 6 179 5 z m 269 19 l 269 19 b 271 14 276 11 281 11 l 281 11 b 282 11 283 11 285 11 l 285 11 b 302 17 319 24 333 33 l 333 33 b 339 37 341 45 337 51 l 337 51 b 333 57 326 58 320 55 l 320 55 b 307 47 293 40 277 35 l 277 35 b 271 33 267 26 269 19 z m 129 19 l 129 19 b 130 19 132 18 133 18 l 133 18 b 138 18 143 21 145 26 l 145 26 b 147 33 144 40 138 43 l 138 43 l 138 43 b 122 49 108 56 95 64 l 95 64 b 89 67 81 65 77 59 l 77 59 b 74 53 76 46 82 42 l 82 42 b 96 34 112 26 129 19 z m 356 68 l 356 68 b 358 66 361 65 363 65 l 363 65 b 367 65 371 67 373 70 l 373 70 b 385 86 392 103 395 122 l 395 122 b 395 129 390 135 384 136 l 384 136 b 377 137 370 132 370 125 l 370 125 b 368 111 362 98 353 85 l 353 85 b 349 80 350 72 356 68 z m 363 167 l 363 167 b 365 163 369 160 374 160 l 374 160 b 376 160 378 160 380 161 l 380 161 b 386 164 388 172 385 178 l 385 178 b 377 195 364 208 349 220 l 349 220 b 343 224 335 223 331 217 l 331 217 b 327 212 328 204 334 200 l 334 200 b 347 190 357 179 363 167 z m 292 222 l 292 222 b 294 221 295 221 297 221 l 297 221 b 302 221 307 224 309 229 l 309 229 b 311 235 308 243 302 245 l 302 245 b 286 251 270 256 252 261 l 252 261 b 245 263 239 258 237 252 l 237 252 b 235 245 239 238 246 236 l 246 236 b 263 232 278 227 292 222 z m 197 247 l 197 247 b 198 246 199 246 200 246 l 200 246 b 206 246 211 250 212 256 l 212 256 b 214 263 209 270 203 271 l 203 271 b 186 275 170 279 156 284 l 156 284 b 149 287 142 283 140 277 l 140 277 b 137 270 141 263 147 261 l 147 261 b 163 255 180 251 197 247 z m 100 284 l 100 284 b 102 283 104 282 107 282 l 107 282 b 111 282 115 284 117 288 l 117 288 b 121 293 119 301 114 305 l 114 305 b 100 314 90 325 83 336 l 83 336 b 80 343 73 345 66 342 l 66 342 b 60 338 58 331 61 325 l 61 325 l 61 325 b 70 309 83 295 100 284 z m 63 367 l 63 367 b 63 367 64 367 64 367 l 64 367 b 70 367 76 371 77 377 l 77 377 b 79 391 85 404 95 416 l 95 416 b 99 422 98 430 93 434 l 93 434 b 88 439 80 438 75 432 l 75 432 b 63 417 55 400 52 381 l 52 381 b 51 374 56 368 63 367 z m 352 414 l 352 414 b 354 413 356 412 359 412 l 359 412 b 363 412 367 414 369 418 l 369 418 b 373 424 371 431 366 435 l 366 435 l 366 435 b 352 444 338 453 322 462 l 322 462 b 316 465 308 463 305 457 l 305 457 b 302 451 304 443 310 440 l 310 440 b 325 432 338 423 352 414 z m 113 450 l 113 450 b 115 446 119 443 124 443 l 124 443 b 126 443 128 444 130 445 l 130 445 b 143 452 157 458 173 462 l 173 462 b 180 463 184 470 183 477 l 183 477 b 181 483 174 488 168 486 l 168 486 l 168 486 b 149 482 133 475 118 467 l 118 467 b 111 464 109 456 113 450 z m 266 459 l 266 459 b 267 458 269 458 270 458 l 270 458 b 275 458 280 462 282 467 l 282 467 b 284 474 280 481 273 483 l 273 483 l 273 483 b 257 488 240 491 221 491 l 221 491 b 214 492 208 486 208 479 l 208 479 b 208 472 213 466 220 466 l 220 466 b 236 466 252 463 266 459 z"},">":{"x_min":0,"x_max":620,"ha":620,"o":"m 93 4 l 93 4 b 96 1 101 0 105 0 l 105 0 b 108 0 113 1 116 4 l 158 48 l 158 48 b 163 52 163 63 158 69 l 158 69 b 152 74 141 74 137 69 l 93 25 l 93 25 b 89 19 89 10 93 4 z m 178 89 l 178 89 b 181 86 184 85 189 85 l 189 85 b 192 85 196 86 199 89 l 241 131 l 241 131 b 247 137 247 147 241 152 l 241 152 b 235 158 226 158 220 152 l 178 110 l 178 110 b 172 104 172 95 178 89 z m 262 174 l 262 174 b 265 171 269 170 272 170 l 272 170 b 277 170 280 171 283 174 l 326 216 l 326 216 b 330 222 330 231 324 237 l 324 237 b 320 243 309 243 303 237 l 262 195 l 262 195 b 256 189 256 180 262 174 z m 347 258 l 347 258 b 350 255 353 255 357 255 l 357 255 b 360 255 365 256 368 258 l 409 301 l 409 301 b 415 307 415 316 409 322 l 409 322 b 403 328 394 328 388 322 l 345 280 l 345 280 b 341 274 341 264 347 258 z m 388 377 l 388 377 b 391 374 394 372 399 372 l 399 372 b 402 372 406 374 409 377 l 409 377 b 415 383 415 392 409 398 l 368 441 l 368 441 b 362 445 351 447 347 441 l 347 441 b 341 435 341 424 345 419 z m 303 462 l 303 462 b 306 459 311 457 314 457 l 314 457 b 318 457 323 459 324 462 l 324 462 b 330 468 330 477 326 483 l 283 524 l 283 524 b 277 530 268 530 262 524 l 262 524 b 256 518 256 509 262 503 z m 220 547 l 220 547 b 223 544 226 542 230 542 l 230 542 b 235 542 238 544 241 547 l 241 547 b 247 551 247 561 241 567 l 199 609 l 199 609 b 193 615 184 615 178 609 l 178 609 b 172 603 172 594 178 588 z m 137 630 l 137 630 b 140 627 143 626 147 626 l 147 626 b 150 626 155 627 158 630 l 158 630 b 163 636 163 646 158 651 l 116 694 l 116 694 b 110 700 99 700 93 694 l 93 694 b 89 688 89 679 93 673 z"},"l":{"x_min":0,"x_max":249,"ha":249,"o":"m 100 13 l 100 13 b 100 6 105 0 113 0 l 113 0 b 121 0 126 6 126 13 l 126 65 l 126 65 b 126 73 121 78 113 78 l 113 78 b 105 78 100 73 100 65 z m 100 117 l 100 117 b 100 110 105 104 113 104 l 113 104 b 121 104 126 110 126 117 l 126 169 l 126 169 b 126 176 121 181 113 181 l 113 181 b 105 181 100 176 100 169 z m 100 220 l 100 220 b 100 214 105 207 113 207 l 113 207 b 121 207 126 214 126 220 l 126 272 l 126 272 b 126 280 121 285 113 285 l 113 285 b 105 285 100 280 100 272 z m 100 324 l 100 324 b 100 318 105 311 113 311 l 113 311 b 121 311 126 318 126 324 l 126 376 l 126 376 b 126 384 121 389 113 389 l 113 389 b 105 389 100 384 100 376 z m 100 428 l 100 428 b 100 421 105 415 113 415 l 113 415 b 121 415 126 421 126 428 l 126 480 l 126 480 b 126 487 121 493 113 493 l 113 493 b 105 493 100 487 100 480 z m 100 531 l 100 531 b 100 525 105 519 113 519 l 113 519 b 121 519 126 525 126 531 l 126 583 l 126 583 b 126 591 121 596 113 596 l 113 596 b 105 596 100 591 100 583 z m 100 635 l 100 635 b 100 629 105 622 113 622 l 113 622 b 121 622 126 629 126 635 l 126 687 l 126 687 b 126 695 121 700 113 700 l 113 700 b 105 700 100 695 100 687 z"},"8":{"x_min":0,"x_max":630,"ha":630,"o":"m 228 432 b 229 432 230 431 232 431 l 232 428 b 234 422 239 417 245 417 l 247 417 b 257 418 267 420 277 420 b 282 420 288 420 293 418 b 299 418 304 421 306 425 b 315 427 324 430 332 434 b 338 437 340 444 338 451 b 335 457 328 459 322 457 b 308 451 293 448 278 448 b 274 448 271 446 269 444 b 261 443 252 442 244 442 b 245 448 241 453 236 455 b 223 460 210 469 199 479 b 194 484 187 483 182 478 b 177 473 177 465 182 460 b 195 448 210 438 228 432 z m 56 192 b 57 186 62 181 69 181 l 70 181 b 77 182 82 189 81 196 b 80 205 80 213 80 222 b 80 238 81 253 85 268 b 86 276 82 282 76 283 b 69 285 62 280 61 274 b 56 258 55 241 55 222 b 55 212 55 202 56 192 z m 311 15 b 312 9 317 5 323 5 l 326 5 b 343 10 359 15 375 22 b 381 26 384 34 380 40 b 378 46 370 48 364 45 b 350 38 335 34 321 30 b 313 29 309 21 311 15 z m 466 128 b 467 128 468 127 470 127 b 475 127 479 130 482 134 b 488 150 493 168 497 185 b 498 191 493 199 486 200 b 479 200 473 196 472 189 b 470 174 465 159 458 144 b 456 138 458 130 466 128 z m 273 0 b 281 0 286 6 286 12 b 286 20 281 25 273 25 b 257 25 242 27 228 31 b 221 34 214 29 213 22 b 210 16 215 9 221 7 b 237 2 255 0 273 0 z m 215 671 b 218 666 221 664 226 664 b 228 664 230 664 231 665 b 245 671 260 674 275 674 b 282 675 287 680 287 688 b 287 694 281 700 275 699 b 256 699 237 695 221 688 b 215 685 213 678 215 671 z m 390 562 b 391 556 396 551 404 551 b 410 551 416 556 416 563 b 415 582 411 599 404 616 b 401 622 394 626 388 623 b 381 619 379 613 381 606 b 388 593 390 578 390 562 z m 446 324 b 448 320 453 318 457 318 b 460 318 462 319 463 320 b 470 323 471 331 468 336 b 458 351 448 366 436 379 b 431 384 422 384 417 379 b 414 374 414 366 417 361 b 429 350 439 338 446 324 z m 381 390 b 384 388 386 388 388 388 b 393 388 396 390 399 393 b 403 400 400 407 395 411 b 380 420 364 427 347 433 b 340 436 333 432 332 426 b 329 418 333 412 339 410 b 354 405 368 398 381 390 z m 144 385 b 147 382 151 380 154 380 b 157 380 159 381 162 382 b 174 391 188 398 203 405 b 209 407 211 415 209 421 b 206 427 199 431 193 428 b 177 421 160 412 147 402 b 142 398 141 391 144 385 z m 359 464 b 362 462 364 460 368 460 b 370 460 374 462 376 464 b 389 478 399 493 406 510 b 409 516 405 524 399 526 b 393 529 385 525 383 519 b 378 505 369 493 358 482 b 354 477 354 469 359 464 z m 401 53 b 404 50 407 48 411 48 b 414 48 416 50 419 51 b 432 62 445 76 455 89 b 460 94 458 103 452 107 b 447 110 440 109 435 104 b 426 92 415 81 404 71 b 398 66 398 58 401 53 z m 151 505 b 153 500 157 498 162 498 b 163 498 165 498 167 499 b 173 501 175 509 173 515 b 167 529 164 542 163 559 b 163 565 158 571 151 571 b 143 570 138 565 138 557 b 139 539 143 521 151 505 z m 159 595 b 164 595 169 597 170 602 b 177 616 184 629 195 639 b 200 644 199 653 194 657 b 189 662 182 662 177 657 b 164 644 154 628 148 611 b 146 604 148 597 154 595 z m 173 26 b 174 25 177 25 178 25 b 183 25 187 27 189 31 b 193 37 190 45 184 48 b 170 56 158 65 146 74 b 141 79 133 78 128 73 b 123 68 125 61 129 56 b 142 45 157 35 173 26 z m 85 307 b 86 305 89 305 90 305 b 95 305 98 308 101 313 b 108 326 117 339 127 351 b 132 356 131 364 126 369 b 121 372 112 372 108 367 b 97 354 87 339 79 324 b 76 318 79 310 85 307 z m 357 643 b 358 640 362 639 364 639 b 368 639 371 640 374 643 b 378 648 378 655 373 660 b 360 673 344 683 328 690 b 321 693 314 689 312 683 b 309 676 312 669 318 666 b 333 662 345 653 357 643 z m 95 96 b 97 92 101 89 105 89 b 107 89 110 91 112 92 b 117 96 118 104 115 109 b 106 122 98 137 92 150 b 90 156 84 160 76 158 b 70 155 67 148 70 141 b 76 125 85 109 95 96 z m 475 236 b 475 230 481 225 487 225 b 494 225 499 231 499 237 b 498 256 494 272 489 289 b 487 295 481 299 473 297 b 467 295 463 288 466 282 b 471 267 473 252 475 236 z"},"\\":{"x_min":0,"x_max":448,"ha":448,"o":"m 71 1 l 71 1 b 72 0 74 0 75 0 l 75 0 b 80 0 85 3 88 8 l 96 29 l 96 29 b 99 35 95 43 89 45 l 89 45 b 82 48 75 45 72 38 l 64 18 l 64 18 b 61 11 65 4 71 1 z m 99 68 l 99 68 b 100 68 103 67 104 67 l 104 67 b 109 67 114 71 115 76 l 136 121 l 136 121 b 138 129 134 135 128 139 l 128 139 b 122 142 114 138 112 131 l 93 85 l 93 85 b 90 78 93 71 99 68 z m 138 162 l 138 162 b 139 160 142 160 143 160 l 143 160 b 148 160 153 163 155 168 l 175 215 l 175 215 b 177 221 173 229 167 231 l 167 231 b 161 234 153 231 151 225 l 132 178 l 132 178 b 129 172 132 164 138 162 z m 177 255 l 177 255 b 179 254 181 254 182 254 l 182 254 b 187 254 192 256 194 262 l 214 308 l 214 308 b 216 315 214 322 206 325 l 206 325 b 200 327 194 325 190 318 l 171 272 l 171 272 b 168 265 171 258 177 255 z m 216 347 l 216 347 b 218 347 220 347 221 347 l 221 347 b 227 347 232 350 233 355 l 253 402 l 253 402 b 256 408 253 416 247 418 l 247 418 b 239 421 233 417 229 411 l 210 365 l 210 365 b 208 358 210 351 216 347 z m 256 441 l 256 441 b 258 441 259 440 261 440 l 261 440 b 266 440 271 444 272 447 l 292 494 l 292 494 b 295 500 292 508 286 510 l 286 510 b 278 514 272 510 268 504 l 249 457 l 249 457 b 247 451 249 444 256 441 z m 295 534 l 295 534 b 297 533 299 533 300 533 l 300 533 b 305 533 310 536 311 541 l 331 588 l 331 588 b 334 594 331 601 325 604 l 325 604 b 319 606 311 604 309 598 l 288 551 l 288 551 b 286 545 288 537 295 534 z m 334 628 l 334 628 b 336 627 338 627 339 627 l 339 627 b 344 627 349 629 350 634 l 371 681 l 371 681 b 373 687 371 695 364 697 l 364 697 b 358 700 350 697 348 691 l 328 644 l 328 644 b 325 638 328 631 334 628 z"},"e":{"x_min":0,"x_max":609,"ha":609,"o":"m 129 248 b 137 248 142 253 142 260 b 142 267 137 272 129 272 l 85 272 b 86 284 89 298 93 310 b 94 316 91 324 85 325 b 78 327 71 324 69 316 b 64 300 61 283 59 265 b 58 259 64 253 71 251 b 73 249 76 248 80 248 z m 466 374 b 469 370 472 368 476 368 b 478 368 481 369 483 370 b 490 374 491 383 488 388 b 476 403 465 416 453 428 b 447 433 439 432 434 427 b 429 422 429 414 434 409 b 447 399 457 387 466 374 z m 397 437 b 398 436 401 436 404 436 b 407 436 412 438 415 442 b 417 448 416 456 410 460 b 394 468 378 474 361 480 b 355 482 347 479 346 471 b 343 465 347 458 353 456 b 368 451 383 444 397 437 z m 442 69 b 445 66 448 65 451 65 b 455 65 459 66 460 69 b 472 82 483 95 494 111 b 497 117 495 125 490 128 b 483 132 476 129 472 125 b 464 111 453 98 442 87 b 437 82 437 74 442 69 z m 127 71 b 129 69 134 68 137 68 b 140 68 143 69 145 71 b 150 76 151 84 146 89 b 134 101 124 113 117 127 b 113 132 106 134 99 131 b 93 127 92 120 96 113 b 104 98 116 84 127 71 z m 502 286 b 504 281 510 276 515 276 l 518 276 b 525 278 529 285 527 291 b 524 309 519 327 513 341 b 510 349 502 352 496 349 b 490 346 486 339 490 333 b 495 318 500 303 502 286 z m 266 1 b 276 0 285 0 295 0 b 304 0 312 0 320 1 b 327 1 332 8 330 15 b 330 22 325 27 317 27 b 311 25 303 25 295 25 b 287 25 278 25 270 27 b 263 27 257 22 257 15 b 255 9 260 3 266 1 z m 215 14 b 218 14 219 13 220 13 b 225 13 230 16 231 22 b 234 27 230 35 224 38 b 208 43 195 50 183 59 b 176 63 169 62 165 55 b 161 49 162 41 169 38 b 183 27 199 20 215 14 z m 245 471 b 246 466 251 461 257 461 l 260 461 b 271 463 283 465 295 465 b 299 465 303 465 306 463 b 314 463 319 468 320 476 b 320 482 315 488 308 488 b 304 490 299 490 295 490 b 281 490 269 488 255 486 b 249 485 244 479 245 471 z m 94 349 b 96 348 98 346 101 346 b 104 346 110 349 110 354 b 120 368 129 381 138 392 b 143 398 142 406 137 411 b 132 414 124 414 120 409 b 108 395 98 382 89 365 b 85 359 88 352 94 349 z m 156 427 b 159 423 162 422 166 422 b 169 422 171 423 173 425 b 186 433 200 442 215 448 b 221 451 224 458 221 465 b 219 471 211 474 205 471 b 189 463 173 455 159 444 b 153 441 152 433 156 427 z m 355 20 b 357 15 362 13 367 13 l 372 13 b 388 19 404 27 420 36 b 425 40 427 48 423 52 b 420 59 412 60 406 57 b 392 49 378 41 363 36 b 357 34 353 27 355 20 z m 73 161 b 74 156 80 153 85 153 l 88 153 b 94 156 98 163 96 169 b 91 185 87 199 85 216 b 85 222 78 227 72 226 b 64 226 59 220 61 212 b 63 194 67 177 73 161 z m 230 248 b 238 248 243 253 243 260 b 243 267 238 272 230 272 l 180 272 b 173 272 167 267 167 260 b 167 253 173 248 180 248 z m 431 248 b 439 248 443 253 443 260 b 443 267 439 272 431 272 l 380 272 b 374 272 368 267 368 260 b 368 253 374 248 380 248 z m 330 248 b 338 248 343 253 343 260 b 343 267 338 272 330 272 l 280 272 b 274 272 268 267 268 260 b 268 253 274 248 280 248 z m 519 248 b 525 248 532 253 532 260 b 532 267 525 272 519 272 l 481 272 b 475 272 469 267 469 260 b 469 253 475 248 481 248 z"},"b":{"x_min":0,"x_max":660,"ha":660,"o":"m 120 322 b 121 321 123 321 125 321 b 130 321 135 323 136 328 b 142 344 150 358 160 370 b 164 375 163 383 156 388 b 151 392 144 391 140 384 b 131 373 124 362 118 350 l 118 383 b 118 391 113 396 106 396 b 99 396 93 391 93 383 l 93 332 b 93 326 99 320 106 320 b 110 320 113 322 115 325 b 116 323 118 323 120 322 z m 93 129 b 93 123 99 117 106 117 b 113 117 118 123 118 129 l 118 134 b 120 132 123 131 127 131 b 129 131 131 132 132 132 b 139 134 141 142 139 148 b 137 151 136 153 136 156 b 134 162 126 165 120 162 b 119 162 118 161 118 161 l 118 180 b 118 188 113 193 106 193 b 99 193 93 188 93 180 z m 494 91 b 496 90 499 89 501 89 b 505 89 509 90 511 94 b 523 108 532 124 539 139 b 542 147 539 153 533 157 b 527 160 519 157 515 151 b 509 136 501 122 491 109 b 487 104 489 95 494 91 z m 489 377 b 491 374 495 373 499 373 b 501 373 504 373 506 375 b 511 379 513 387 509 393 b 498 407 485 420 471 431 b 466 435 457 435 453 429 b 449 424 449 416 454 411 b 467 401 479 389 489 377 z m 529 292 b 530 285 536 282 542 282 l 544 282 b 551 283 556 290 555 297 b 550 314 544 331 537 347 b 533 354 525 356 519 354 b 513 350 510 342 514 336 b 520 322 525 307 529 292 z m 414 30 b 416 27 420 24 425 24 b 428 24 429 24 432 25 b 447 33 462 43 476 55 b 481 60 481 67 477 72 b 472 79 465 79 459 75 b 447 63 434 55 419 48 b 414 44 411 37 414 30 z m 174 407 b 177 403 180 402 183 402 b 187 402 189 403 192 406 b 203 416 217 425 231 432 b 238 436 240 444 236 450 b 232 457 225 459 219 455 b 203 446 188 436 175 425 b 170 420 169 412 174 407 z m 179 53 b 182 52 184 51 188 51 b 192 51 194 52 197 56 b 202 61 201 68 196 74 b 184 84 173 95 163 108 b 159 113 151 114 145 110 b 140 107 139 98 142 93 b 154 79 167 65 179 53 z m 543 181 b 548 181 555 185 556 191 b 558 207 561 224 561 241 l 561 243 b 560 251 555 256 547 256 b 541 256 534 251 536 243 l 536 241 b 536 226 533 211 530 197 b 529 189 533 183 541 181 z m 93 535 b 93 529 99 522 106 522 b 113 522 118 529 118 535 l 118 586 b 118 593 113 599 106 599 b 99 599 93 593 93 586 z m 260 459 b 262 454 267 450 272 450 l 276 450 b 291 454 306 457 323 457 b 329 457 335 463 335 470 b 335 477 329 482 321 482 b 304 482 286 479 269 474 b 262 473 258 467 260 459 z m 93 231 b 93 224 99 218 106 218 b 113 218 118 224 118 231 l 118 282 b 118 289 113 294 106 294 b 99 294 93 289 93 282 z m 274 6 b 276 5 277 5 277 5 b 283 5 288 9 290 15 b 291 22 287 29 281 30 b 264 34 250 39 236 47 b 230 49 222 47 219 42 b 216 36 219 28 224 24 b 240 16 257 10 274 6 z m 93 637 b 93 630 99 624 106 624 b 113 624 118 630 118 637 l 118 687 b 118 695 113 700 106 700 b 99 700 93 695 93 687 z m 93 434 b 93 427 99 421 106 421 b 113 421 118 427 118 434 l 118 484 b 118 492 113 497 106 497 b 99 497 93 492 93 484 z m 93 28 b 93 22 99 15 106 15 b 113 15 118 22 118 28 l 118 79 b 118 86 113 91 106 91 b 99 91 93 86 93 79 z m 415 436 b 416 436 419 435 420 435 b 425 435 429 439 432 443 b 435 449 432 457 425 459 b 410 468 392 473 376 477 b 368 478 362 474 361 468 b 358 460 363 454 369 453 b 386 449 401 444 415 436 z m 315 13 b 315 5 321 0 328 0 b 347 0 364 3 381 6 b 387 8 392 15 390 22 b 388 28 382 33 375 30 b 359 27 344 25 328 25 b 321 25 315 19 315 13 z"},"m":{"x_min":0,"x_max":951,"ha":951,"o":"m 461 297 b 462 291 467 286 474 286 l 475 286 b 480 286 487 291 485 298 l 485 306 b 486 307 487 310 487 312 b 489 327 493 343 498 358 b 500 364 498 371 492 374 b 485 376 478 373 476 367 b 475 364 473 361 472 358 b 469 360 465 360 462 359 b 456 358 452 350 453 344 b 458 329 461 314 461 297 z m 107 301 b 113 301 118 306 120 312 b 120 327 125 343 131 358 b 133 364 131 371 125 374 b 122 374 120 375 118 374 l 118 376 b 118 383 113 388 106 388 b 98 388 93 383 93 376 l 93 326 b 93 323 93 321 94 319 l 94 315 b 93 307 98 301 106 301 z m 462 97 b 462 90 467 85 475 85 b 480 85 487 90 487 97 l 487 148 b 487 150 486 152 485 154 l 485 163 b 485 169 480 176 474 176 b 467 176 461 169 461 163 l 461 113 b 461 111 461 109 462 107 z m 462 199 b 462 191 467 186 475 186 b 480 186 487 191 487 199 l 487 248 b 487 250 486 252 485 254 l 485 263 b 485 269 480 276 474 276 b 467 276 461 269 461 263 l 461 213 b 461 211 461 209 462 208 z m 93 113 b 93 105 98 100 106 100 b 112 100 118 105 118 113 l 118 163 l 118 165 l 118 176 b 118 182 113 188 106 188 b 98 188 93 182 93 176 l 93 165 l 93 163 z m 93 13 b 93 5 98 0 106 0 b 112 0 118 5 118 13 l 118 63 l 118 65 l 118 76 b 118 81 113 88 106 88 b 98 88 93 81 93 76 l 93 65 l 93 63 l 93 25 l 93 23 z m 93 213 b 93 206 98 201 106 201 b 112 201 118 206 118 213 l 118 263 l 118 265 l 118 276 b 118 282 113 288 106 288 b 98 288 93 282 93 276 l 93 265 l 93 263 z m 504 394 b 506 394 509 392 511 392 b 515 392 519 394 522 397 b 532 410 543 420 556 430 b 560 434 562 441 558 448 b 553 453 546 454 541 450 b 525 439 513 426 501 413 b 498 407 499 399 504 394 z m 461 13 b 461 5 466 0 472 0 l 474 0 l 476 0 b 481 0 487 5 487 13 l 487 46 b 487 49 486 51 485 53 l 485 63 b 485 70 480 76 474 76 b 467 76 461 70 461 63 z m 93 426 b 93 418 98 413 106 413 b 113 413 118 418 118 426 l 118 477 b 118 483 113 489 106 489 b 98 489 93 483 93 477 z m 137 394 b 139 394 142 392 145 392 b 149 392 152 394 155 397 b 164 410 174 420 187 430 b 193 434 194 441 189 448 b 186 453 178 454 171 450 b 158 439 146 426 134 413 b 130 407 131 399 137 394 z m 829 97 b 829 90 834 85 842 85 b 848 85 854 90 854 97 l 854 148 b 854 154 848 161 842 161 b 834 161 829 154 829 148 z m 732 446 b 734 445 737 445 738 445 b 743 445 747 448 749 453 b 751 459 749 467 743 469 b 728 477 710 483 692 486 b 685 486 678 483 677 475 b 676 469 681 463 687 462 b 704 458 719 454 732 446 z m 829 297 b 829 291 834 286 842 286 b 849 286 854 291 854 298 b 853 316 850 333 845 352 b 843 358 836 362 829 359 b 823 358 819 350 822 344 b 825 329 828 314 829 297 z m 364 446 b 366 445 367 445 370 445 b 374 445 379 448 381 453 b 384 459 381 467 375 469 b 359 477 342 483 325 486 b 318 486 311 483 311 475 b 309 469 314 463 321 462 b 334 458 350 454 364 446 z m 212 459 b 213 454 218 451 224 451 b 224 451 227 451 228 453 b 242 458 257 462 273 463 b 280 464 285 470 285 477 b 284 484 279 489 271 488 b 254 486 236 482 219 475 b 212 473 209 467 212 459 z m 579 459 b 582 454 586 451 591 451 b 594 451 595 451 596 453 b 610 458 627 462 640 463 b 648 464 653 470 652 477 b 652 484 646 489 638 488 b 622 486 604 482 587 475 b 581 473 577 467 579 459 z m 829 199 b 829 191 834 186 842 186 b 848 186 854 191 854 199 l 854 248 b 854 254 848 260 842 260 b 834 260 829 254 829 248 z m 801 385 b 804 382 807 381 811 381 b 814 381 817 381 819 383 b 824 386 826 394 823 399 b 812 413 801 427 788 440 b 783 444 775 444 770 439 b 766 434 766 425 772 421 b 783 410 793 399 801 385 z m 434 385 b 436 382 441 381 445 381 b 447 381 450 381 451 383 b 457 386 458 394 455 399 b 445 413 433 427 419 440 b 414 444 407 444 402 439 b 398 434 398 425 403 421 b 415 410 426 399 434 385 z m 829 13 b 829 5 834 0 842 0 b 848 0 854 5 854 13 l 854 48 b 854 54 848 60 842 60 b 834 60 829 54 829 48 z"},"#":{"x_min":0,"x_max":700,"ha":700,"o":"m 399 198 b 407 198 413 204 413 211 b 413 218 407 224 399 224 l 383 224 l 391 271 b 392 278 387 285 380 286 b 373 288 366 283 365 276 l 356 224 l 347 224 b 339 224 334 218 334 211 b 334 204 339 198 347 198 z m 189 198 b 196 198 202 204 202 211 b 202 215 200 218 197 221 l 206 271 b 208 278 203 285 196 286 b 189 288 182 283 181 276 l 171 224 l 136 224 b 129 224 123 218 123 211 b 123 204 129 198 136 198 z m 211 451 l 208 431 b 207 424 212 417 219 416 l 221 416 b 227 416 233 420 234 427 l 243 478 b 244 486 240 492 232 494 b 225 495 218 490 217 483 l 216 478 l 167 478 b 160 478 154 472 154 465 b 154 457 160 451 167 451 z m 395 451 l 392 431 b 391 424 396 417 403 416 l 405 416 b 411 416 417 420 418 427 l 422 451 l 430 451 b 437 451 443 457 443 465 b 443 472 437 478 430 478 l 427 478 b 428 486 424 492 417 494 b 409 495 403 490 401 483 l 400 478 l 378 478 b 370 478 364 472 364 465 b 364 457 370 451 378 451 z m 325 451 b 332 451 338 457 338 465 b 338 472 332 478 325 478 l 272 478 b 265 478 259 472 259 465 b 259 457 265 451 272 451 z m 535 451 b 543 451 549 457 549 465 b 549 472 543 478 535 478 l 483 478 b 476 478 470 472 470 465 b 470 457 476 451 483 451 z m 203 312 b 209 312 215 317 216 323 l 225 375 b 226 382 221 389 214 390 b 207 391 200 387 199 379 l 190 328 b 188 320 193 314 200 312 z m 237 520 b 238 520 238 519 239 519 b 245 519 251 524 252 530 l 261 582 b 263 589 258 596 251 597 b 243 599 237 594 235 587 l 226 535 b 225 528 230 521 237 520 z m 421 520 b 422 520 423 519 423 519 b 430 519 435 524 436 530 l 446 582 b 447 589 442 596 435 597 b 428 599 421 594 420 587 l 410 535 b 409 528 414 521 421 520 z m 442 623 b 448 623 454 628 455 634 l 464 686 b 465 693 460 700 453 701 b 446 702 439 697 438 690 l 429 639 b 427 631 432 625 439 623 z m 332 1 b 338 1 344 6 345 12 l 354 64 b 355 71 351 78 343 79 b 336 80 329 76 328 68 l 319 17 b 318 9 323 3 330 1 z m 148 1 b 154 1 160 6 161 12 l 170 64 b 171 71 166 78 159 79 b 152 80 145 76 144 68 l 135 17 b 134 9 138 3 146 1 z m 387 312 b 393 312 399 317 400 323 l 409 375 b 410 382 405 389 398 390 b 391 391 384 387 383 379 l 374 328 b 373 320 377 314 385 312 z m 350 105 b 357 105 362 109 363 116 l 372 168 b 374 175 369 182 362 183 b 355 184 348 179 346 172 l 337 120 b 336 113 341 106 348 105 z m 166 105 b 172 105 178 109 179 116 l 188 168 b 189 175 185 182 178 183 b 170 184 164 179 162 172 l 153 120 b 152 113 157 106 164 105 z m 505 198 b 512 198 518 204 518 211 b 518 218 512 224 505 224 l 452 224 b 445 224 439 218 439 211 b 439 204 445 198 452 198 z m 294 198 b 301 198 307 204 307 211 b 307 218 301 224 294 224 l 242 224 b 234 224 228 218 228 211 b 228 204 234 198 242 198 z m 258 623 b 264 623 269 628 270 634 l 280 686 b 281 693 276 700 269 701 b 262 702 255 697 254 690 l 245 639 b 243 631 248 625 255 623 z m 115 451 b 122 451 128 457 128 465 b 128 472 122 478 115 478 l 89 478 b 82 478 76 472 76 465 b 76 457 82 451 89 451 z m 84 198 b 91 198 97 204 97 211 b 97 218 91 224 84 224 l 58 224 b 51 224 45 218 45 211 b 45 204 51 198 58 198 z"},",":{"x_min":0,"x_max":230,"ha":230,"o":"m 57 -25 b 57 -28 60 -31 63 -31 l 66 -31 b 100 -22 104 8 104 24 l 104 34 b 103 34 103 35 103 36 b 100 46 90 54 80 54 b 66 54 54 42 54 28 b 54 15 66 4 80 4 l 85 4 b 82 -4 75 -12 62 -16 b 58 -18 55 -21 57 -25 z"},"n":{"x_min":0,"x_max":613,"ha":613,"o":"m 107 302 b 113 302 118 305 120 313 b 120 328 124 343 131 358 b 133 365 129 372 123 374 b 121 375 119 375 118 375 l 118 377 b 118 383 112 389 106 389 b 98 389 93 383 93 377 l 93 327 b 93 324 93 322 94 320 l 94 316 b 93 308 98 302 106 302 z m 93 213 b 93 206 98 201 106 201 b 112 201 118 206 118 213 l 118 276 b 118 283 112 289 106 289 b 98 289 93 283 93 276 l 93 266 l 93 264 z m 93 13 b 93 5 98 0 106 0 b 112 0 118 5 118 13 l 118 22 l 118 25 l 118 63 l 118 65 l 118 76 b 118 82 112 88 106 88 b 98 88 93 82 93 76 l 93 65 l 93 63 l 93 25 l 93 22 z m 93 113 b 93 106 98 101 106 101 b 112 101 118 106 118 113 l 118 122 l 118 125 l 118 176 b 118 182 112 188 106 188 b 98 188 93 182 93 176 l 93 165 l 93 163 z m 433 386 b 436 382 439 381 445 381 b 447 381 449 381 451 382 b 458 386 458 395 455 400 b 445 414 433 428 420 441 b 414 444 407 444 402 440 b 397 433 398 426 403 422 b 414 411 425 400 433 386 z m 461 97 b 461 90 467 84 474 84 b 481 84 486 90 486 97 l 486 147 b 486 155 481 160 474 160 b 467 160 461 155 461 147 z m 136 395 b 138 395 141 393 143 393 b 147 393 151 395 153 398 b 164 411 175 421 187 431 b 192 435 194 442 190 449 b 186 454 177 455 172 451 b 158 440 145 427 134 414 b 129 408 131 400 136 395 z m 93 427 b 93 419 98 414 106 414 b 112 414 118 419 118 427 l 118 477 b 118 484 112 490 106 490 b 98 490 93 484 93 477 z m 461 297 b 461 291 467 285 474 285 l 475 285 b 481 286 486 291 486 299 b 486 316 482 334 477 352 b 476 358 469 362 463 359 b 455 358 451 351 453 344 b 458 329 461 314 461 297 z m 461 197 b 461 191 467 185 474 185 b 481 185 486 191 486 197 l 486 248 b 486 255 481 260 474 260 b 467 260 461 255 461 248 z m 213 460 b 213 455 218 452 224 452 b 225 452 226 452 227 454 b 243 458 257 463 274 463 b 280 465 285 471 285 477 b 284 485 278 490 271 489 b 253 487 235 482 218 476 b 213 474 210 468 213 460 z m 365 447 b 365 446 368 446 369 446 b 374 446 379 449 381 454 b 384 460 382 468 376 470 b 360 477 343 484 324 486 b 318 487 311 484 311 476 b 309 470 313 463 320 463 b 335 458 351 454 365 447 z m 461 13 b 461 5 467 0 474 0 b 481 0 486 5 486 13 l 486 46 b 486 54 481 59 474 59 b 467 59 461 54 461 46 z"},"h":{"x_min":0,"x_max":613,"ha":613,"o":"m 107 304 b 113 304 120 309 120 315 b 122 332 126 347 131 361 b 134 367 131 375 125 377 b 122 378 120 378 118 378 l 118 384 b 118 390 113 396 106 396 b 99 396 93 390 93 384 l 93 333 b 93 330 93 327 95 325 b 94 323 94 321 94 319 b 94 311 99 305 106 304 z m 93 114 b 93 108 99 101 106 101 b 113 101 118 108 118 114 l 118 127 l 118 130 l 118 181 b 118 187 113 194 106 194 b 99 194 93 187 93 181 l 93 167 l 93 165 z m 93 215 b 93 209 99 203 106 203 b 113 203 118 209 118 215 l 118 229 l 118 232 l 118 282 b 118 289 113 295 106 295 b 99 295 93 289 93 282 l 93 268 l 93 266 z m 93 13 b 93 6 99 0 106 0 b 113 0 118 6 118 13 l 118 80 b 118 86 113 92 106 92 b 99 92 93 86 93 80 l 93 29 l 93 27 z m 213 465 b 216 459 220 457 225 457 l 230 457 b 244 463 259 467 275 468 b 283 468 288 475 287 482 b 287 489 280 494 273 494 b 255 491 237 487 221 481 b 215 478 211 471 213 465 z m 437 390 b 440 386 444 385 447 385 b 450 385 452 385 455 386 b 460 390 463 397 459 404 b 449 419 436 433 423 444 b 418 449 409 449 406 443 b 401 438 401 430 407 425 b 418 415 428 404 437 390 z m 137 400 b 140 397 142 397 145 397 b 149 397 152 399 155 401 b 165 414 175 425 188 434 b 194 439 196 447 190 452 b 187 458 179 459 173 454 b 159 444 146 432 135 418 b 131 411 132 404 137 400 z m 465 301 b 465 294 470 289 478 289 b 485 289 490 295 490 301 b 489 320 487 338 482 354 b 479 362 471 366 465 363 b 459 361 455 354 458 347 b 461 333 464 318 465 301 z m 368 452 b 369 451 370 451 373 451 b 378 451 382 453 384 457 b 387 463 384 471 378 475 b 363 482 345 487 327 491 b 320 492 313 487 312 481 b 311 473 316 467 322 466 b 339 463 354 458 368 452 z m 93 637 b 93 629 99 624 106 624 b 113 624 118 629 118 637 l 118 687 b 118 694 113 700 106 700 b 99 700 93 694 93 687 z m 465 99 b 465 92 470 86 478 86 b 484 86 490 92 490 99 l 490 149 b 490 157 484 162 478 162 b 470 162 465 157 465 149 z m 93 535 b 93 528 99 523 106 523 b 113 523 118 528 118 535 l 118 586 b 118 592 113 599 106 599 b 99 599 93 592 93 586 z m 465 200 b 465 194 470 187 478 187 b 484 187 490 194 490 200 l 490 251 b 490 258 484 263 478 263 b 470 263 465 258 465 251 z m 93 434 b 93 427 99 422 106 422 b 113 422 118 427 118 434 l 118 485 b 118 491 113 497 106 497 b 99 497 93 491 93 485 z m 465 13 b 465 6 470 0 478 0 b 484 0 490 6 490 13 l 490 48 b 490 56 484 61 478 61 b 470 61 465 56 465 48 z"},"z":{"x_min":0,"x_max":554,"ha":554,"o":"m 363 409 b 366 406 368 406 370 406 b 375 406 378 408 381 411 l 411 451 b 414 456 413 461 411 465 l 413 465 b 421 465 426 470 426 478 b 426 484 421 491 413 491 l 363 491 b 357 491 351 484 351 478 b 351 470 357 465 363 465 l 389 465 l 361 426 b 357 420 358 413 363 409 z m 66 3 b 69 0 71 0 74 0 l 76 0 l 112 0 b 119 0 124 5 124 13 b 124 19 119 25 112 25 l 98 25 l 114 46 b 118 52 117 59 112 63 b 106 67 98 65 94 60 l 64 20 b 62 18 61 15 61 13 b 61 9 62 6 64 4 b 65 3 65 3 66 3 z m 212 465 b 220 465 225 470 225 478 b 225 484 220 491 212 491 l 162 491 b 155 491 149 484 149 478 b 149 470 155 465 162 465 z m 313 465 b 321 465 326 470 326 478 b 326 484 321 491 313 491 l 263 491 b 256 491 250 484 250 478 b 250 470 256 465 263 465 z m 185 165 b 187 163 190 163 192 163 b 197 163 201 163 204 168 l 232 207 b 236 214 235 221 230 225 b 225 230 216 229 212 223 l 182 182 b 178 176 180 169 185 165 z m 125 83 b 128 82 131 81 133 81 b 136 81 141 83 143 86 l 174 127 b 177 132 176 139 171 144 b 164 149 157 147 153 142 l 123 101 b 119 95 120 88 125 83 z m 304 327 b 307 326 309 324 312 324 b 315 324 319 327 321 329 l 352 370 b 356 376 354 383 348 388 b 343 392 335 391 331 385 l 302 345 b 298 340 299 331 304 327 z m 313 0 b 321 0 326 5 326 13 b 326 19 321 25 313 25 l 263 25 b 256 25 250 19 250 13 b 250 5 256 0 263 0 z m 212 0 b 220 0 225 5 225 13 b 225 19 220 25 212 25 l 162 25 b 155 25 149 19 149 13 b 149 5 155 0 162 0 z m 413 0 b 421 0 426 5 426 13 b 426 19 421 25 413 25 l 363 25 b 357 25 351 19 351 13 b 351 5 357 0 363 0 z m 245 245 b 247 244 250 244 253 244 b 256 244 260 245 263 249 l 291 289 b 296 294 295 303 289 307 b 284 310 275 310 272 304 l 242 263 b 237 258 239 250 245 245 z m 112 465 b 119 465 124 470 124 478 b 124 484 119 491 112 491 l 74 491 b 68 491 61 484 61 478 b 61 470 68 465 74 465 z"},"B":{"x_min":0,"x_max":594,"ha":594,"o":"m 398 356 b 403 356 408 359 410 365 b 412 372 408 379 402 380 b 389 386 374 388 359 389 l 361 389 b 364 389 366 389 368 391 b 383 401 397 413 408 427 b 413 432 412 441 407 445 b 401 450 393 449 389 444 b 379 431 368 421 354 412 b 349 408 346 401 350 394 b 352 391 356 389 359 389 l 349 389 b 341 389 336 383 336 377 b 336 369 341 364 349 364 b 365 364 380 361 394 356 z m 104 28 b 104 24 105 20 108 18 b 107 16 107 14 107 13 b 107 5 113 0 119 0 l 169 0 b 176 0 181 5 181 13 b 181 19 176 25 169 25 l 128 25 b 129 26 129 27 129 28 l 129 79 b 129 86 123 91 117 91 b 109 91 104 86 104 79 z m 104 637 b 104 630 109 624 117 624 b 123 624 129 630 129 637 l 129 675 l 170 675 b 178 675 183 681 183 687 b 183 695 178 700 170 700 l 119 700 l 117 700 b 109 700 104 695 104 687 z m 278 365 b 292 365 306 366 318 369 b 325 372 328 378 327 384 b 326 392 318 396 312 394 b 301 392 289 391 278 391 l 264 391 b 257 391 251 384 251 378 b 251 370 257 365 264 365 z m 213 365 b 221 365 226 370 226 378 b 226 384 221 391 213 391 l 162 391 b 156 391 150 384 150 378 b 150 370 156 365 162 365 z m 492 211 b 492 203 498 198 505 198 l 506 198 b 512 199 517 204 517 212 b 516 230 514 247 509 264 b 506 271 500 275 492 273 b 486 271 482 264 484 257 b 488 242 491 227 492 211 z m 360 649 b 361 647 364 647 366 647 b 372 647 375 648 378 652 b 382 658 380 666 374 670 b 360 680 342 689 325 694 b 318 695 312 691 309 685 b 307 678 312 671 318 670 b 334 664 347 658 360 649 z m 465 301 b 468 297 472 294 476 294 b 478 294 481 295 482 297 b 488 299 491 308 487 313 b 477 330 464 344 450 355 b 445 359 438 359 432 353 b 429 347 429 340 435 335 b 446 326 457 313 465 301 z m 407 32 b 410 28 413 27 417 27 b 420 27 422 27 425 28 b 440 37 454 49 467 62 b 470 67 470 75 465 80 b 460 85 453 85 448 80 b 438 68 425 58 411 49 b 406 46 403 38 407 32 z m 104 535 b 104 529 109 522 117 522 b 123 522 129 529 129 535 l 129 586 b 129 593 123 599 117 599 b 109 599 104 593 104 586 z m 413 574 b 416 569 421 566 426 566 b 427 566 429 567 430 567 b 436 569 440 576 438 582 b 432 600 424 616 413 632 b 410 637 401 638 396 634 b 391 630 389 623 393 616 b 402 604 410 590 413 574 z m 308 13 b 308 5 315 0 321 0 l 323 0 b 341 0 359 3 375 6 b 382 9 386 15 384 22 b 382 29 375 33 368 30 b 354 27 339 25 323 25 l 321 25 b 315 25 308 19 308 13 z m 479 101 b 482 100 483 100 486 100 b 491 100 495 103 497 107 b 505 123 511 139 515 157 b 516 165 511 171 505 172 b 497 174 491 170 490 162 b 487 147 482 132 474 118 b 472 112 474 104 479 101 z m 104 231 b 104 224 109 218 117 218 b 123 218 129 224 129 231 l 129 282 b 129 289 123 294 117 294 b 109 294 104 289 104 282 z m 270 0 b 278 0 283 5 283 13 b 283 19 278 25 270 25 l 219 25 b 213 25 207 19 207 13 b 207 5 213 0 219 0 z m 104 129 b 104 123 109 117 117 117 b 123 117 129 123 129 129 l 129 180 b 129 188 123 193 117 193 b 109 193 104 188 104 180 z m 104 332 b 104 326 109 320 117 320 b 123 320 129 326 129 332 l 129 383 b 129 391 123 396 117 396 b 109 396 104 391 104 383 z m 271 675 b 279 675 284 681 284 687 b 284 695 279 700 271 700 l 221 700 b 214 700 208 695 208 687 b 208 681 214 675 221 675 z m 104 434 b 104 427 109 421 117 421 b 123 421 129 427 129 434 l 129 484 b 129 492 123 497 117 497 b 109 497 104 492 104 484 z m 420 468 b 421 467 422 467 424 467 b 429 467 434 469 435 474 b 441 492 445 510 445 529 b 446 535 440 541 434 541 b 426 541 421 536 420 529 b 420 514 417 498 412 483 b 410 477 412 469 420 468 z"},"K":{"x_min":0,"x_max":715,"ha":715,"o":"m 113 196 b 116 193 120 192 122 192 b 126 192 130 193 133 196 l 169 232 b 174 237 174 245 169 250 b 164 255 156 255 151 250 l 129 229 l 129 272 b 129 280 123 285 116 285 b 109 285 104 280 104 272 l 104 220 b 104 216 106 211 110 209 b 109 204 110 199 113 196 z m 261 342 b 263 340 266 338 270 338 b 273 338 276 340 279 342 l 306 369 l 334 332 b 337 329 341 328 344 328 b 347 328 351 328 352 331 b 359 334 359 344 355 349 l 323 389 b 321 391 320 392 317 393 b 317 394 316 395 315 397 b 310 402 302 402 297 397 l 261 360 b 256 355 256 347 261 342 z m 333 415 b 336 412 340 411 343 411 b 346 411 349 412 352 415 l 389 452 b 393 458 393 465 389 471 b 384 476 375 476 370 471 l 333 434 b 328 429 328 420 333 415 z m 596 12 b 599 9 603 8 607 8 b 609 8 612 8 615 10 b 620 14 621 23 616 29 l 584 69 b 578 74 571 75 565 70 b 560 66 559 57 563 52 z m 554 635 b 556 633 559 631 563 631 b 565 631 569 633 572 635 l 608 671 b 613 677 613 686 608 691 b 603 695 595 695 590 691 l 554 653 b 549 648 549 640 554 635 z m 530 92 b 533 89 537 87 541 87 b 543 87 546 88 549 91 b 554 95 555 102 550 109 l 517 149 b 512 154 504 154 499 150 b 494 145 493 137 498 132 z m 464 172 b 467 169 471 167 475 167 b 477 167 480 169 482 170 b 488 175 489 183 485 189 l 451 228 b 447 235 438 235 433 231 b 428 226 427 218 432 213 z m 187 268 b 190 266 193 264 196 264 b 200 264 203 266 205 268 l 241 306 b 247 310 247 319 241 324 b 238 329 228 329 223 324 l 187 286 b 182 281 182 274 187 268 z m 480 563 b 483 560 486 559 489 559 b 493 559 495 560 498 563 l 536 599 b 541 604 541 612 536 617 b 530 622 521 622 518 617 l 480 581 b 475 576 475 566 480 563 z m 398 253 b 401 249 405 248 409 248 b 411 248 414 249 416 250 b 423 255 423 263 419 268 l 385 309 b 381 314 372 315 367 310 b 362 306 361 298 366 292 z m 407 489 b 410 486 413 485 416 485 b 419 485 423 486 425 489 l 462 525 b 467 530 467 538 462 543 b 457 548 449 548 444 543 l 407 507 b 402 502 402 494 407 489 z m 104 13 b 104 6 109 0 116 0 b 123 0 129 6 129 13 l 129 65 b 129 73 123 78 116 78 b 109 78 104 73 104 65 z m 104 428 b 104 421 109 415 116 415 b 123 415 129 421 129 428 l 129 480 b 129 487 123 493 116 493 b 109 493 104 487 104 480 z m 104 324 b 104 318 109 311 116 311 b 123 311 129 318 129 324 l 129 376 b 129 384 123 389 116 389 b 109 389 104 384 104 376 z m 104 635 b 104 629 109 622 116 622 b 123 622 129 629 129 635 l 129 687 b 129 695 123 700 116 700 b 109 700 104 695 104 687 z m 104 117 b 104 110 109 104 116 104 b 123 104 129 110 129 117 l 129 169 b 129 176 123 181 116 181 b 109 181 104 176 104 169 z m 104 531 b 104 525 109 519 116 519 b 123 519 129 525 129 531 l 129 583 b 129 591 123 596 116 596 b 109 596 104 591 104 583 z"},"R":{"x_min":0,"x_max":625,"ha":625,"o":"m 172 305 b 179 305 185 310 185 318 b 185 324 179 331 172 331 l 121 331 b 119 331 117 330 116 330 l 116 378 b 116 386 111 391 103 391 b 96 391 90 386 90 378 l 90 327 b 90 320 96 314 103 314 b 105 314 106 314 108 315 b 109 308 114 305 121 305 z m 90 636 b 90 629 96 623 103 623 b 111 623 116 629 116 636 l 116 674 l 156 674 b 163 674 168 681 168 687 b 168 695 163 700 156 700 l 104 700 l 102 700 b 95 699 90 694 90 687 z m 356 291 b 358 291 359 290 360 290 b 365 290 371 293 373 299 b 375 304 373 309 368 313 b 372 314 376 316 381 318 b 387 320 391 328 389 335 b 386 341 378 344 372 342 b 358 336 342 332 325 331 b 323 331 322 330 320 329 b 316 330 314 331 314 331 b 306 332 300 327 298 320 b 297 313 302 306 309 305 b 309 305 314 304 322 302 b 331 300 342 296 356 291 z m 481 46 b 484 41 489 37 494 37 l 498 37 b 504 40 508 48 506 54 b 503 66 499 81 498 102 b 497 109 491 115 484 113 b 477 113 472 107 472 99 b 473 77 477 60 481 46 z m 90 224 b 90 217 96 211 103 211 b 111 211 116 217 116 224 l 116 275 b 116 283 111 288 103 288 b 96 288 90 283 90 275 z m 90 430 b 90 423 96 417 103 417 b 111 417 116 423 116 430 l 116 481 b 116 489 111 494 103 494 b 96 494 90 489 90 481 z m 90 533 b 90 526 96 520 103 520 b 111 520 116 526 116 533 l 116 584 b 116 592 111 597 103 597 b 96 597 90 592 90 584 z m 435 237 b 437 234 441 233 445 233 b 448 233 452 234 454 235 b 459 241 459 248 455 253 b 443 269 428 281 413 290 b 408 293 399 292 395 286 b 391 281 394 273 399 268 b 412 260 425 250 435 237 z m 275 305 b 282 305 288 310 288 318 b 288 324 282 331 275 331 l 224 331 b 216 331 211 324 211 318 b 211 310 216 305 224 305 z m 90 121 b 90 115 96 108 103 108 b 111 108 116 115 116 121 l 116 172 b 116 180 111 185 103 185 b 96 185 90 180 90 172 z m 90 18 b 90 12 96 5 103 5 b 111 5 116 12 116 18 l 116 69 b 116 77 111 82 103 82 b 96 82 90 77 90 69 z m 259 674 b 266 674 271 681 271 687 b 271 695 266 700 259 700 l 207 700 b 201 700 194 695 194 687 b 194 681 201 674 207 674 z m 479 423 b 480 422 481 422 484 422 b 489 422 493 425 495 430 b 502 447 506 465 508 484 b 508 490 503 497 497 498 b 489 498 482 493 482 486 b 481 470 477 454 471 440 b 468 434 472 426 479 423 z m 480 534 b 481 528 486 524 493 524 l 495 524 b 502 525 507 531 506 538 b 502 557 497 574 488 591 b 485 597 477 600 471 596 b 464 593 462 585 466 579 b 472 565 477 549 480 534 z m 412 346 b 414 344 418 341 422 341 b 425 341 427 342 430 344 b 444 355 457 368 468 382 b 472 389 471 396 466 400 b 461 405 452 404 448 398 b 437 386 427 374 414 364 b 408 360 407 353 412 346 z m 439 619 b 441 615 444 614 448 614 b 450 614 454 615 457 618 b 462 623 462 631 457 636 b 445 650 431 661 416 670 b 409 674 401 673 398 667 b 394 660 395 652 401 649 b 416 641 427 631 439 619 z m 362 668 b 367 668 372 672 373 677 b 376 683 372 691 364 692 b 347 697 329 700 311 700 l 310 700 b 304 700 297 695 297 687 b 297 681 304 674 310 674 l 311 674 b 327 674 343 672 358 668 z m 471 152 b 471 144 476 139 484 139 b 491 140 497 145 497 153 b 495 172 490 190 484 207 b 481 214 473 216 467 214 b 461 211 458 203 461 197 b 466 184 470 169 471 152 z m 528 0 b 533 0 535 1 537 1 b 543 4 547 10 544 18 b 543 24 535 27 529 26 l 526 26 b 520 27 513 22 512 14 b 512 8 517 1 524 0 z"},"T":{"x_min":0,"x_max":648,"ha":648,"o":"m 268 635 b 268 627 273 622 281 622 b 287 622 294 627 294 635 l 294 674 l 322 674 b 329 674 335 681 335 687 b 335 695 329 700 322 700 l 283 700 l 281 700 l 270 700 b 263 700 257 695 257 687 b 257 681 262 675 268 674 z m 268 220 b 268 213 273 207 281 207 b 287 207 294 213 294 220 l 294 272 b 294 279 287 285 281 285 b 273 285 268 279 268 272 z m 268 324 b 268 316 273 311 281 311 b 287 311 294 316 294 324 l 294 376 b 294 382 287 389 281 389 b 273 389 268 382 268 376 z m 268 428 b 268 420 273 415 281 415 b 287 415 294 420 294 428 l 294 480 b 294 486 287 493 281 493 b 273 493 268 486 268 480 z m 268 13 b 268 5 273 0 281 0 b 287 0 294 5 294 13 l 294 65 b 294 71 287 78 281 78 b 273 78 268 71 268 65 z m 530 674 b 536 674 543 681 543 687 b 543 695 536 700 530 700 l 478 700 b 470 700 465 695 465 687 b 465 681 470 674 478 674 z m 426 674 b 432 674 439 681 439 687 b 439 695 432 700 426 700 l 374 700 b 366 700 361 695 361 687 b 361 681 366 674 374 674 z m 115 674 b 121 674 128 681 128 687 b 128 695 121 700 115 700 l 63 700 b 55 700 50 695 50 687 b 50 681 55 674 63 674 z m 268 117 b 268 109 273 104 281 104 b 287 104 294 109 294 117 l 294 169 b 294 175 287 181 281 181 b 273 181 268 175 268 169 z m 268 531 b 268 524 273 519 281 519 b 287 519 294 524 294 531 l 294 583 b 294 590 287 596 281 596 b 273 596 268 590 268 583 z m 219 674 b 225 674 231 681 231 687 b 231 695 225 700 219 700 l 167 700 b 159 700 154 695 154 687 b 154 681 159 674 167 674 z"},"P":{"x_min":0,"x_max":583,"ha":583,"o":"m 187 302 b 193 302 200 307 200 315 b 200 321 193 328 187 328 l 135 328 b 133 328 131 327 130 327 l 130 376 b 130 384 125 389 117 389 b 110 389 104 384 104 376 l 104 324 b 104 318 110 311 117 311 b 119 311 120 311 122 312 b 123 305 128 302 135 302 z m 104 635 b 104 629 110 622 117 622 b 125 622 130 629 130 635 l 130 674 l 170 674 b 178 674 183 681 183 687 b 183 695 178 700 170 700 l 119 700 l 118 700 l 117 700 b 110 700 104 695 104 687 z m 104 13 b 104 6 110 0 117 0 b 125 0 130 6 130 13 l 130 65 b 130 73 125 78 117 78 b 110 78 104 73 104 65 z m 497 533 b 498 526 503 522 510 522 l 512 522 b 519 524 524 530 523 537 b 519 556 514 573 506 590 b 502 596 494 599 488 595 b 481 592 479 585 483 578 b 489 564 494 548 497 533 z m 104 428 b 104 421 110 415 117 415 b 125 415 130 421 130 428 l 130 480 b 130 487 125 493 117 493 b 110 493 104 487 104 480 z m 274 674 b 282 674 287 681 287 687 b 287 695 282 700 274 700 l 222 700 b 215 700 209 695 209 687 b 209 681 215 674 222 674 z m 104 220 b 104 214 110 207 117 207 b 125 207 130 214 130 220 l 130 272 b 130 280 125 285 117 285 b 110 285 104 280 104 272 z m 291 302 b 297 302 304 307 304 315 b 304 321 297 328 291 328 l 239 328 b 231 328 226 321 226 315 b 226 307 231 302 239 302 z m 495 421 b 497 420 498 420 501 420 b 506 420 510 423 512 428 b 519 445 524 463 525 482 b 525 489 520 495 514 496 b 506 496 499 491 499 485 b 498 468 494 452 488 438 b 485 432 489 424 495 421 z m 455 618 b 458 614 460 613 464 613 b 467 613 471 614 473 617 b 479 622 479 630 473 635 b 462 649 448 661 432 670 b 425 674 418 673 414 666 b 410 660 411 652 418 648 b 432 640 444 630 455 618 z m 104 117 b 104 110 110 104 117 104 b 125 104 130 110 130 117 l 130 169 b 130 176 125 181 117 181 b 110 181 104 176 104 169 z m 104 531 b 104 525 110 519 117 519 b 125 519 130 525 130 531 l 130 583 b 130 591 125 596 117 596 b 110 596 104 591 104 583 z m 378 668 b 383 668 388 671 390 677 b 392 683 388 691 381 692 b 363 697 345 700 327 700 l 326 700 b 319 700 313 695 313 687 b 313 681 319 674 326 674 l 327 674 b 344 674 359 671 374 668 z m 428 344 b 431 341 435 338 438 338 b 441 338 444 340 446 341 b 460 353 473 366 485 380 b 489 386 489 394 483 398 b 477 403 468 402 464 395 b 455 384 444 372 431 362 b 424 358 423 350 428 344 z m 330 315 b 330 307 336 302 343 302 l 344 302 b 362 305 380 309 397 315 b 403 318 407 325 405 332 b 402 338 394 341 388 340 b 374 333 358 329 341 328 b 335 328 328 321 330 315 z"},"|":{"x_min":0,"x_max":286,"ha":286,"o":"m 121 204 b 121 196 128 189 136 189 b 144 189 151 196 151 204 l 151 264 b 151 272 144 278 136 278 b 128 278 121 272 121 264 z m 121 -33 b 121 -41 128 -48 136 -48 b 144 -48 151 -41 151 -33 l 151 26 b 151 35 144 41 136 41 b 128 41 121 35 121 26 z m 121 86 b 121 78 128 71 136 71 b 144 71 151 78 151 86 l 151 145 b 151 153 144 160 136 160 b 128 160 121 153 121 145 z m 121 323 b 121 315 128 308 136 308 b 144 308 151 315 151 323 l 151 382 b 151 390 144 397 136 397 b 128 397 121 390 121 382 z m 121 560 b 121 552 128 545 136 545 b 144 545 151 552 151 560 l 151 619 b 151 627 144 634 136 634 b 128 634 121 627 121 619 z m 121 678 b 121 670 128 664 136 664 b 144 664 151 670 151 678 l 151 738 b 151 746 144 752 136 752 b 128 752 121 746 121 738 z m 121 441 b 121 433 128 427 136 427 b 144 427 151 433 151 441 l 151 501 b 151 509 144 515 136 515 b 128 515 121 509 121 501 z"},"t":{"x_min":0,"x_max":400,"ha":400,"o":"m 175 466 l 175 466 l 225 466 l 225 466 b 232 466 238 471 238 478 l 238 478 b 238 485 232 491 225 491 l 175 491 l 175 491 b 168 491 162 485 162 478 l 162 478 b 162 471 168 466 175 466 z m 55 466 l 55 466 l 105 466 l 105 466 b 112 466 118 471 118 478 l 118 478 b 118 485 112 491 105 491 l 55 491 l 55 491 b 48 491 42 485 42 478 l 42 478 b 42 471 48 466 55 466 z m 202 -1 l 202 -1 b 202 -1 203 -1 204 -1 l 204 -1 b 211 -1 216 4 216 11 l 216 11 b 216 18 211 24 204 24 l 204 24 b 203 24 203 24 202 24 l 202 24 b 195 24 189 19 189 12 l 189 12 b 189 5 195 -1 202 -1 z m 148 23 l 148 23 b 150 20 154 19 157 19 l 157 19 b 160 19 163 20 166 22 l 166 22 b 171 27 171 35 166 40 l 166 40 b 158 49 153 62 153 75 l 153 78 l 153 78 b 153 85 147 91 140 91 l 140 91 b 133 91 127 85 127 78 l 127 75 l 127 75 b 127 55 135 37 148 23 z m 127 129 l 127 129 b 127 122 133 116 140 116 l 140 116 b 147 116 153 122 153 129 l 153 179 l 153 179 b 153 186 147 192 140 192 l 140 192 b 133 192 127 186 127 179 z m 127 230 l 127 230 b 127 223 133 217 140 217 l 140 217 b 147 217 153 223 153 230 l 153 281 l 153 281 b 153 288 147 293 140 293 l 140 293 b 133 293 127 288 127 281 z m 127 331 l 127 331 b 127 324 133 319 140 319 l 140 319 b 147 319 153 324 153 331 l 153 382 l 153 382 b 153 389 147 395 140 395 l 140 395 b 133 395 127 389 127 382 z m 127 433 l 127 433 b 127 426 133 420 140 420 l 140 420 b 147 420 153 426 153 433 l 153 483 l 153 483 b 153 490 147 496 140 496 l 140 496 b 133 496 127 490 127 483 z m 127 534 l 127 534 b 127 527 133 521 140 521 l 140 521 b 147 521 153 527 153 534 l 153 585 l 153 585 b 153 592 147 597 140 597 l 140 597 b 133 597 127 592 127 585 z m 127 635 l 127 635 b 127 628 133 623 140 623 l 140 623 b 147 623 153 628 153 635 l 153 686 l 153 686 b 153 693 147 699 140 699 l 140 699 b 133 699 127 693 127 686 z"},"M":{"x_min":0,"x_max":844,"ha":844,"o":"m 409 298 b 411 296 413 295 416 295 b 420 295 425 296 426 300 l 457 343 b 461 348 460 356 455 361 b 448 365 440 364 437 357 l 405 316 b 403 312 402 308 403 305 b 404 308 403 312 402 316 l 372 357 b 367 364 359 365 354 361 b 347 356 346 348 350 343 l 381 300 b 383 296 387 295 391 295 b 394 295 396 296 399 298 b 401 299 403 302 403 305 b 404 302 406 299 409 298 z m 139 637 b 142 633 145 631 149 631 b 152 631 154 631 157 634 b 162 638 164 646 160 651 l 130 694 b 127 696 124 698 121 698 b 120 699 118 699 117 699 b 109 699 104 694 104 686 l 104 634 b 104 628 109 621 117 621 b 125 621 130 628 130 634 l 130 649 z m 677 634 b 677 628 684 621 690 621 b 698 621 703 628 703 634 l 703 686 b 703 694 698 699 690 699 b 689 699 687 699 686 698 b 683 698 680 696 678 694 l 647 651 b 644 646 645 638 651 634 b 653 631 655 631 658 631 b 663 631 667 633 669 637 l 677 648 z m 104 13 b 104 6 109 0 117 0 b 125 0 130 6 130 13 l 130 65 b 130 72 125 78 117 78 b 109 78 104 72 104 65 z m 104 220 b 104 213 109 207 117 207 b 125 207 130 213 130 220 l 130 272 b 130 279 125 285 117 285 b 109 285 104 279 104 272 z m 104 427 b 104 421 109 414 117 414 b 125 414 130 421 130 427 l 130 479 b 130 487 125 492 117 492 b 109 492 104 487 104 479 z m 469 382 b 471 380 474 379 477 379 b 481 379 484 380 487 384 l 518 427 b 522 432 521 440 514 444 b 509 449 501 448 496 441 l 466 400 b 462 393 464 386 469 382 z m 677 13 b 677 6 684 0 690 0 b 698 0 703 6 703 13 l 703 65 b 703 72 698 78 690 78 b 684 78 677 72 677 65 z m 677 220 b 677 213 684 207 690 207 b 698 207 703 213 703 220 l 703 272 b 703 279 698 285 690 285 b 684 285 677 279 677 272 z m 677 427 b 677 421 684 414 690 414 b 698 414 703 421 703 427 l 703 479 b 703 487 698 492 690 492 b 684 492 677 487 677 479 z m 198 552 b 201 549 205 547 210 547 b 213 547 215 547 217 550 b 223 554 224 562 220 568 l 189 609 b 186 616 178 617 171 612 b 166 608 165 600 169 594 z m 104 323 b 104 317 109 311 117 311 b 125 311 130 317 130 323 l 130 375 b 130 383 125 388 117 388 b 109 388 104 383 104 375 z m 104 116 b 104 110 109 104 117 104 b 125 104 130 110 130 116 l 130 168 b 130 176 125 181 117 181 b 109 181 104 176 104 168 z m 104 530 b 104 524 109 518 117 518 b 125 518 130 524 130 530 l 130 582 b 130 590 125 595 117 595 b 109 595 104 590 104 582 z m 530 466 b 532 463 535 463 537 463 b 541 463 545 465 548 468 l 578 510 b 583 516 581 524 575 528 b 570 533 561 532 557 525 l 527 484 b 523 477 525 470 530 466 z m 677 116 b 677 110 684 104 690 104 b 698 104 703 110 703 116 l 703 168 b 703 176 698 181 690 181 b 684 181 677 176 677 168 z m 677 323 b 677 317 684 311 690 311 b 698 311 703 317 703 323 l 703 375 b 703 383 698 388 690 388 b 684 388 677 383 677 375 z m 677 530 b 677 524 684 518 690 518 b 698 518 703 524 703 530 l 703 582 b 703 590 698 595 690 595 b 684 595 677 590 677 582 z m 320 384 b 323 380 327 379 330 379 b 333 379 336 380 338 382 b 343 386 345 393 341 400 l 311 441 b 307 448 298 449 293 444 b 286 440 285 432 290 427 z m 591 550 b 593 547 596 547 598 547 b 602 547 606 549 609 552 l 638 594 b 642 600 641 608 636 612 b 629 617 622 616 618 609 l 588 568 b 583 562 584 554 591 550 z m 259 468 b 262 465 266 463 270 463 b 272 463 275 463 277 466 b 284 470 285 477 280 484 l 250 525 b 246 532 239 533 232 528 b 227 524 226 516 230 510 z"},"g":{"x_min":0,"x_max":660,"ha":660,"o":"m 281 -209 l 281 -209 b 281 -209 281 -209 282 -209 l 282 -209 b 288 -209 293 -204 293 -198 l 293 -198 b 295 -190 288 -185 282 -184 l 282 -184 b 265 -184 250 -181 235 -176 l 235 -176 b 227 -175 221 -179 219 -185 l 219 -185 b 217 -193 221 -199 227 -201 l 227 -201 b 245 -205 263 -209 281 -209 z m 319 -196 l 319 -196 b 320 -201 326 -206 331 -206 l 331 -206 b 333 -206 334 -206 334 -206 l 334 -206 b 352 -203 369 -198 385 -190 l 385 -190 b 392 -187 395 -180 392 -173 l 392 -173 b 388 -167 381 -165 374 -167 l 374 -167 b 361 -173 345 -179 329 -181 l 329 -181 b 322 -182 317 -189 319 -196 z m 414 -161 l 414 -161 b 416 -163 420 -166 424 -166 l 424 -166 b 426 -166 429 -165 432 -163 l 432 -163 b 446 -152 458 -141 471 -127 l 471 -127 b 475 -122 475 -113 468 -109 l 468 -109 b 463 -104 456 -105 451 -110 l 451 -110 l 451 -110 b 440 -123 429 -133 416 -143 l 416 -143 b 410 -147 410 -154 414 -161 z m 482 -87 l 482 -87 b 485 -89 486 -89 489 -89 l 489 -89 b 494 -89 497 -86 500 -82 l 500 -82 b 508 -66 514 -49 518 -31 l 518 -31 b 520 -25 515 -18 509 -16 l 509 -16 b 503 -15 495 -19 494 -25 l 494 -25 b 490 -42 485 -57 477 -71 l 477 -71 b 473 -77 476 -85 482 -87 z m 513 9 l 513 9 b 513 9 513 9 513 9 l 513 9 b 519 9 525 14 525 22 l 525 22 b 525 22 525 23 525 24 l 525 73 l 525 73 b 525 79 519 85 513 85 l 513 85 b 505 85 500 79 500 73 l 500 24 l 500 24 b 500 23 500 23 500 22 l 500 22 b 500 14 505 9 513 9 z m 500 123 l 500 123 b 500 116 505 111 513 111 l 513 111 b 519 111 525 116 525 123 l 525 174 l 525 174 b 525 180 519 187 513 187 l 513 187 b 505 187 500 180 500 174 z m 500 225 l 500 225 b 500 217 505 212 513 212 l 513 212 b 519 212 525 217 525 225 l 525 275 l 525 275 b 525 282 519 288 513 288 l 513 288 b 505 288 500 282 500 275 z m 500 326 l 500 326 b 500 319 505 313 513 313 l 513 313 b 519 313 525 319 525 326 l 525 377 l 525 377 b 525 383 519 390 513 390 l 513 390 b 505 390 500 383 500 377 z m 500 428 l 500 428 b 500 420 505 415 513 415 l 513 415 b 519 415 525 420 525 428 l 525 478 l 525 478 b 525 485 519 491 513 491 l 513 491 b 505 491 500 485 500 478 z m 257 -1 l 257 -1 b 268 -2 281 -4 293 -4 l 293 -4 b 298 -4 305 -4 310 -4 l 310 -4 b 317 -2 322 4 322 10 l 322 10 b 321 18 315 23 309 22 l 309 22 b 303 22 298 22 293 22 l 293 22 b 282 22 272 23 260 24 l 260 24 b 254 26 248 21 246 14 l 246 14 b 245 7 250 0 257 -1 z m 347 15 l 347 15 b 349 10 354 7 359 7 l 359 7 b 361 7 362 8 363 8 l 363 8 b 380 13 396 21 411 31 l 411 31 b 418 34 419 42 415 48 l 415 48 b 411 53 404 56 399 52 l 399 52 l 399 52 b 385 43 371 37 355 32 l 355 32 b 348 29 345 22 347 15 z m 206 14 l 206 14 b 207 14 208 13 210 13 l 210 13 b 215 13 220 17 222 21 l 222 21 b 225 27 222 34 215 37 l 215 37 l 215 37 b 201 43 187 52 174 61 l 174 61 b 168 66 160 65 156 59 l 156 59 b 153 53 154 45 159 41 l 159 41 b 173 31 189 22 206 14 z m 435 64 l 435 64 b 438 61 440 60 444 60 l 444 60 b 448 60 451 61 453 64 l 453 64 b 466 76 477 90 486 105 l 486 105 b 490 112 489 119 482 123 l 482 123 b 477 127 468 125 466 119 l 466 119 l 466 119 b 457 105 447 93 435 81 l 435 81 b 430 76 430 69 435 64 z m 120 78 l 120 78 b 122 75 126 73 130 73 l 130 73 b 132 73 135 74 137 76 l 137 76 b 142 80 144 89 139 94 l 139 94 l 139 94 b 128 105 120 119 112 133 l 112 133 b 108 140 101 142 96 138 l 96 138 b 89 136 87 128 89 122 l 89 122 b 98 105 108 92 120 78 z m 70 171 l 70 171 b 71 165 76 161 82 161 l 82 161 b 83 161 84 161 85 163 l 85 163 b 92 164 96 171 94 178 l 94 178 b 89 193 87 209 85 225 l 85 225 b 85 232 79 237 71 237 l 71 237 b 65 236 60 230 60 223 l 60 223 b 61 206 65 188 70 171 z m 73 263 l 73 263 b 73 263 74 263 74 263 l 74 263 b 80 263 85 267 87 273 l 87 273 b 89 289 92 305 97 320 l 97 320 b 99 326 96 334 89 336 l 89 336 b 83 339 75 335 74 329 l 74 329 b 68 312 64 294 61 277 l 61 277 b 60 269 65 263 73 263 z m 471 358 l 471 358 b 473 354 477 352 482 352 l 482 352 b 484 352 486 353 489 354 l 489 354 b 495 357 496 364 494 371 l 494 371 b 485 387 473 401 462 414 l 462 414 b 457 419 449 420 444 415 l 444 415 b 439 410 438 402 443 397 l 443 397 b 453 386 463 372 471 358 z m 101 359 l 101 359 b 102 358 104 358 107 358 l 107 358 b 111 358 116 359 117 363 l 117 363 b 126 377 136 390 146 401 l 146 401 b 151 406 151 415 146 420 l 146 420 b 141 424 134 424 128 419 l 128 419 b 116 406 106 392 96 377 l 96 377 b 92 371 94 363 101 359 z m 407 429 l 407 429 b 410 428 413 426 415 426 l 415 426 b 419 426 423 429 425 431 l 425 431 b 429 438 428 445 421 449 l 421 449 b 407 459 391 468 374 476 l 374 476 b 368 478 361 475 358 468 l 358 468 b 355 462 359 454 366 452 l 366 452 b 381 445 395 438 407 429 z m 165 436 l 165 436 b 168 433 172 430 177 430 l 177 430 b 179 430 180 431 183 433 l 183 433 l 183 433 b 197 442 211 448 226 454 l 226 454 b 232 455 236 463 234 469 l 234 469 b 231 477 224 480 217 477 l 217 477 b 201 472 184 463 169 453 l 169 453 b 164 449 161 442 165 436 z m 320 463 l 320 463 b 320 463 321 463 321 463 l 321 463 b 328 463 333 468 334 475 l 334 475 b 335 481 330 488 322 488 l 322 488 b 314 490 303 491 293 491 l 293 491 b 284 491 277 491 269 490 l 269 490 b 263 488 258 482 258 476 l 258 476 b 259 468 265 463 272 464 l 272 464 l 272 464 b 279 466 286 466 293 466 l 293 466 b 302 466 311 464 320 463 z"},"j":{"x_min":0,"x_max":249,"ha":249,"o":"m 62 613 l 62 613 b 62 607 68 600 74 600 l 74 600 b 83 600 87 607 87 613 l 87 638 l 87 638 b 87 645 83 650 74 650 l 74 650 b 68 650 62 645 62 638 z m -5 -203 l -5 -203 b -5 -210 1 -215 7 -215 l 7 -215 b 9 -215 9 -215 10 -215 l 10 -215 b 17 -215 22 -209 22 -203 l 22 -203 b 22 -194 17 -189 9 -189 l 9 -189 b 9 -189 7 -189 7 -189 l 7 -189 b 1 -189 -5 -195 -5 -203 z m 47 -190 l 47 -190 b 49 -193 52 -194 55 -194 l 55 -194 b 58 -194 62 -193 64 -190 l 64 -190 b 76 -177 85 -158 85 -139 l 85 -136 l 85 -136 b 85 -127 80 -123 71 -123 l 71 -123 b 65 -123 59 -127 59 -136 l 59 -139 l 59 -139 b 59 -151 54 -163 46 -173 l 46 -173 b 41 -178 41 -187 47 -190 z m 59 -84 l 59 -84 b 59 -90 65 -97 71 -97 l 71 -97 b 80 -97 85 -90 85 -84 l 85 -34 l 85 -34 b 85 -25 80 -20 71 -20 l 71 -20 b 65 -20 59 -25 59 -34 z m 59 19 l 59 19 b 59 13 65 7 71 7 l 71 7 b 80 7 85 13 85 19 l 85 71 l 85 71 b 85 78 80 83 71 83 l 71 83 b 65 83 59 78 59 71 z m 59 121 l 59 121 b 59 115 65 109 71 109 l 71 109 b 80 109 85 115 85 121 l 85 173 l 85 173 b 85 181 80 186 71 186 l 71 186 b 65 186 59 181 59 173 z m 59 224 l 59 224 b 59 218 65 211 71 211 l 71 211 b 80 211 85 218 85 224 l 85 276 l 85 276 b 85 283 80 288 71 288 l 71 288 b 65 288 59 283 59 276 z m 59 326 l 59 326 b 59 320 65 314 71 314 l 71 314 b 80 314 85 320 85 326 l 85 378 l 85 378 b 85 385 80 390 71 390 l 71 390 b 65 390 59 385 59 378 z m 59 428 l 59 428 b 59 422 65 416 71 416 l 71 416 b 80 416 85 422 85 428 l 85 481 l 85 481 b 85 489 80 494 71 494 l 71 494 b 65 494 59 489 59 481 z"},"i":{"x_min":0,"x_max":281,"ha":281,"o":"m 94 13 l 94 13 b 94 6 100 0 107 0 l 107 0 b 114 0 120 6 120 13 l 120 65 l 120 65 b 120 72 114 78 107 78 l 107 78 b 100 78 94 72 94 65 z m 94 116 l 94 116 b 94 110 100 104 107 104 l 107 104 b 114 104 120 110 120 116 l 120 168 l 120 168 b 120 176 114 181 107 181 l 107 181 b 100 181 94 176 94 168 z m 94 220 l 94 220 b 94 214 100 207 107 207 l 107 207 b 114 207 120 214 120 220 l 120 272 l 120 272 b 120 279 114 285 107 285 l 107 285 b 100 285 94 279 94 272 z m 94 324 l 94 324 b 94 318 100 311 107 311 l 107 311 b 114 311 120 318 120 324 l 120 375 l 120 375 b 120 383 114 388 107 388 l 107 388 b 100 388 94 383 94 375 z m 94 427 l 94 427 b 94 421 100 414 107 414 l 107 414 b 114 414 120 421 120 427 l 120 479 l 120 479 b 120 486 114 492 107 492 l 107 492 b 100 492 94 486 94 479 z m 94 613 l 94 613 b 94 606 100 600 107 600 l 107 600 b 114 600 120 606 120 613 l 120 637 l 120 637 b 120 644 114 650 107 650 l 107 650 b 100 650 94 644 94 637 z"},"y":{"x_min":0,"x_max":588,"ha":588,"o":"m 418 119 b 419 118 420 118 423 118 b 424 118 426 118 427 119 b 430 117 433 116 436 116 b 443 116 448 121 448 129 l 448 180 b 448 186 443 192 436 192 b 429 192 423 187 422 181 b 420 164 417 149 410 135 b 408 129 411 121 418 119 z m 119 52 b 122 49 124 48 127 48 b 130 48 134 50 137 53 b 142 58 141 66 136 71 b 124 81 114 93 105 106 b 101 112 94 114 87 110 b 81 106 80 99 84 92 b 94 77 105 63 119 52 z m 255 14 b 256 7 261 2 267 2 l 268 2 b 287 5 305 9 322 15 b 328 18 330 25 328 31 b 325 38 319 42 313 39 b 298 33 282 30 266 28 b 260 28 255 21 255 14 z m 218 5 b 223 5 228 9 229 15 b 230 23 227 29 219 30 b 204 33 189 38 175 44 b 168 48 161 45 158 39 b 155 33 157 25 163 21 b 180 14 196 9 215 5 z m 205 -204 b 211 -204 218 -198 218 -191 b 218 -184 213 -179 206 -179 b 190 -177 174 -175 158 -171 b 152 -169 146 -172 143 -180 b 142 -186 146 -193 152 -195 b 168 -200 186 -203 205 -204 z m 351 44 b 353 40 357 39 361 39 b 363 39 366 39 368 42 b 382 52 396 64 406 78 b 411 85 410 92 405 97 b 399 101 391 100 387 95 b 377 82 366 71 353 62 b 348 57 347 49 351 44 z m 338 -155 b 339 -158 343 -160 348 -160 b 351 -160 353 -158 356 -157 b 370 -147 382 -134 394 -120 b 399 -115 398 -107 393 -103 b 387 -98 379 -99 375 -104 b 365 -117 353 -127 341 -137 b 334 -141 333 -150 338 -155 z m 243 -190 b 244 -195 249 -200 256 -200 l 258 -200 b 276 -196 293 -191 309 -184 b 315 -181 318 -174 315 -167 b 313 -161 305 -158 299 -161 b 285 -167 270 -172 253 -175 b 247 -176 242 -182 243 -190 z m 52 245 b 52 239 57 233 65 233 b 71 233 77 239 77 245 l 77 296 b 77 304 71 309 65 309 b 57 309 52 304 52 296 z m 436 15 b 443 15 448 20 448 28 l 448 78 b 448 85 443 91 436 91 b 429 91 423 85 423 78 l 423 28 b 423 20 429 15 436 15 z m 423 430 b 423 429 424 427 424 426 b 425 424 427 423 429 422 b 430 421 431 421 432 420 l 436 420 b 441 420 446 423 447 428 b 448 430 448 431 448 433 l 448 483 b 448 486 447 489 445 491 b 444 492 443 494 441 495 b 440 495 439 496 438 496 l 436 496 b 429 496 424 491 423 485 l 423 483 l 423 433 z m 52 347 b 52 340 57 334 65 334 b 71 334 77 340 77 347 l 77 397 b 77 405 71 410 65 410 b 57 410 52 405 52 397 z m 423 329 b 423 328 423 327 424 326 b 424 325 424 324 425 324 l 428 321 b 429 320 432 319 434 319 l 436 319 l 440 319 b 441 319 441 320 441 320 b 442 320 443 321 444 321 b 444 322 445 322 445 323 l 447 325 b 447 327 448 329 448 331 l 448 382 l 448 384 b 448 384 447 385 447 386 b 447 387 446 389 445 390 b 443 392 441 394 438 395 l 436 395 l 434 395 b 433 395 432 394 431 394 b 428 393 426 391 425 388 b 424 387 424 386 423 385 l 423 384 l 423 382 l 423 331 z m 406 -81 b 408 -82 410 -82 413 -82 b 417 -82 422 -80 423 -76 b 432 -60 438 -43 442 -26 b 443 -19 439 -12 433 -10 b 425 -9 419 -13 418 -20 b 414 -36 408 -51 401 -65 b 398 -71 400 -79 406 -81 z m 61 142 b 62 135 67 133 72 133 l 76 133 b 84 135 87 142 85 149 b 80 163 77 180 77 195 b 77 202 71 207 65 207 b 57 207 52 201 52 195 b 52 176 56 158 61 142 z m 423 228 b 423 225 425 222 428 220 b 430 219 433 218 436 218 l 438 218 b 439 218 440 218 441 219 b 442 219 443 220 444 220 b 445 222 447 223 447 225 b 447 226 448 227 448 227 l 448 230 l 448 281 l 448 283 b 448 283 447 284 447 285 b 447 286 446 287 445 288 b 443 291 440 293 436 293 b 433 293 430 292 428 290 b 427 290 427 289 426 289 b 425 287 424 286 423 284 l 423 283 l 423 281 l 423 230 z m 52 448 b 52 442 57 435 65 435 b 71 435 77 442 77 448 l 77 483 b 77 490 71 496 65 496 b 57 496 52 490 52 483 z"},"@":{"x_min":0,"x_max":980,"ha":980,"o":"m 549 272 b 549 265 554 260 561 260 b 568 260 575 265 575 272 l 575 322 b 575 324 575 327 574 328 b 575 335 575 342 575 349 b 575 355 575 360 574 367 b 574 372 567 378 561 378 b 553 376 549 369 549 364 l 549 349 b 549 334 547 317 543 303 b 540 295 543 291 549 288 z m 492 208 b 492 204 496 203 500 203 b 502 203 506 204 509 206 b 522 217 535 231 545 245 b 549 253 547 260 540 264 b 536 268 526 265 522 260 b 514 247 503 235 492 225 b 488 221 486 213 492 208 z m 670 533 b 673 531 675 529 681 529 b 682 529 686 529 688 531 b 695 535 696 543 692 549 b 681 563 670 576 659 589 b 653 595 645 595 639 589 b 635 586 635 576 639 571 b 652 560 661 547 670 533 z m 518 653 b 521 653 522 652 522 652 b 529 652 533 656 536 660 b 539 666 535 674 529 675 b 511 682 495 689 478 690 b 471 693 463 689 461 681 b 460 674 465 667 472 666 b 489 663 503 659 518 653 z m 395 179 b 395 174 399 167 407 167 b 426 168 445 172 460 178 b 469 181 471 188 469 196 b 465 203 459 204 452 203 b 439 197 422 194 407 193 b 399 193 395 188 395 179 z m 582 122 b 590 118 600 117 610 117 b 616 117 623 117 629 118 b 633 118 639 120 642 122 b 649 125 652 132 649 139 b 647 146 639 149 633 146 b 629 146 625 146 623 143 l 610 143 b 604 143 599 143 593 146 b 589 150 581 147 578 142 b 574 134 576 127 582 122 z m 713 447 b 714 440 718 439 725 439 l 728 439 b 735 440 739 447 737 454 b 732 472 725 488 718 503 b 714 509 706 511 700 509 b 695 506 692 497 696 492 b 702 478 709 461 713 447 z m 179 602 b 181 599 185 596 189 596 b 192 596 196 599 199 600 b 210 610 222 620 236 628 b 242 632 246 640 241 645 b 238 652 231 653 224 650 b 208 642 196 632 181 620 b 175 614 175 606 179 602 z m 670 153 b 673 151 675 150 678 150 b 682 150 686 151 688 153 b 706 171 714 188 714 188 b 716 193 718 196 718 199 b 723 206 718 213 713 215 b 706 218 699 215 696 208 b 696 207 695 204 693 200 b 693 200 690 199 686 193 b 682 185 677 178 670 171 b 664 165 664 158 670 153 z m 232 341 b 232 335 238 328 246 328 b 253 329 258 335 258 342 b 257 345 257 346 257 349 b 257 362 260 376 261 389 b 264 396 260 402 253 404 b 246 406 238 402 238 393 b 234 379 231 365 231 349 b 231 345 231 343 232 341 z m 118 146 b 121 143 124 142 128 142 b 131 142 134 143 137 143 b 142 147 143 156 139 161 b 129 174 121 188 114 203 b 111 208 104 213 97 208 b 92 206 89 199 92 191 b 99 175 108 160 118 146 z m 192 71 b 194 68 196 68 199 68 b 203 68 206 70 208 74 b 214 78 213 86 206 92 b 194 101 181 111 171 122 b 165 128 157 128 151 124 b 147 118 147 110 151 106 b 164 93 177 81 192 71 z m 357 175 b 364 175 368 178 370 184 b 372 189 368 199 361 200 b 346 204 332 213 321 221 b 315 225 307 224 303 218 b 298 213 300 206 306 200 b 321 189 335 181 353 175 z m 284 20 b 285 20 285 18 288 18 b 292 18 298 22 298 29 b 303 35 298 42 292 44 b 275 49 261 57 249 65 b 241 67 234 65 231 60 b 227 53 228 46 235 42 b 251 35 267 28 284 20 z m 54 342 b 54 335 58 331 67 331 b 72 331 79 335 79 343 b 78 345 78 346 78 349 b 78 364 79 378 82 392 b 82 399 78 406 71 406 b 64 406 58 402 57 396 b 54 379 53 365 53 349 b 53 346 53 345 54 342 z m 114 525 b 118 524 118 522 121 522 b 127 522 129 525 132 528 b 142 540 151 553 161 566 b 167 571 167 579 161 585 b 156 589 149 588 143 583 b 131 570 121 556 111 540 b 108 536 108 529 114 525 z m 79 431 b 85 431 90 433 92 439 b 96 454 101 469 108 486 b 111 492 108 499 101 502 b 96 504 89 502 86 496 b 78 481 71 463 67 446 b 65 439 68 433 75 431 z m 268 426 b 274 426 277 429 279 432 b 288 446 298 457 308 468 b 314 472 315 481 310 486 b 306 492 298 492 292 486 b 278 476 267 459 258 445 b 256 439 257 431 261 426 z m 363 684 b 363 677 367 673 375 673 b 385 673 393 674 403 674 b 411 674 418 674 425 673 b 431 673 436 677 436 686 b 439 692 432 699 425 699 b 418 699 412 700 403 700 b 393 700 384 699 374 699 b 365 696 361 690 363 684 z m 265 656 b 265 652 271 649 275 649 b 277 649 279 649 281 650 b 295 656 313 661 327 666 b 335 666 338 673 336 680 b 335 686 328 690 322 690 b 304 686 288 680 271 673 b 265 670 261 663 265 656 z m 267 239 b 270 235 274 235 277 235 b 279 235 282 235 285 236 b 289 241 291 250 288 256 b 278 265 271 279 265 295 b 265 303 257 306 251 304 b 242 303 241 293 241 288 b 249 270 257 254 267 239 z m 386 0 b 392 0 397 6 397 11 b 397 18 393 24 388 25 b 371 25 356 29 339 30 b 332 32 325 29 324 20 b 322 14 327 8 335 6 b 350 3 368 0 386 0 z m 425 13 b 425 6 431 0 436 0 l 439 1 b 454 3 474 6 489 10 b 496 11 502 18 499 25 b 497 32 489 36 483 35 b 469 30 452 29 435 25 b 429 25 425 18 425 13 z m 604 604 b 606 603 609 602 611 602 b 616 602 618 603 621 606 b 625 611 624 620 618 624 b 606 636 592 645 575 653 b 568 657 561 656 559 649 b 554 643 557 635 563 633 b 578 623 592 614 604 604 z m 539 409 b 540 404 545 402 549 402 l 554 402 b 561 404 564 412 561 418 b 554 436 546 450 535 464 b 531 472 522 472 516 468 b 511 463 510 454 514 449 b 525 436 533 425 539 409 z m 723 239 b 724 238 725 238 727 238 b 732 238 737 242 739 247 b 743 264 747 282 749 299 b 752 306 746 313 739 313 b 732 314 725 310 724 303 b 723 286 718 270 714 256 b 711 250 716 241 723 239 z m 71 239 b 72 235 78 231 83 231 b 85 231 86 231 87 232 b 94 232 97 241 94 247 b 90 263 86 279 83 295 b 82 303 75 307 68 306 b 61 304 57 298 58 289 b 61 272 65 256 71 239 z m 482 482 b 483 481 485 479 488 479 b 492 479 496 482 499 486 b 502 490 502 497 495 502 b 479 511 463 521 445 525 b 439 528 432 522 429 516 b 428 509 432 502 439 500 b 453 496 469 490 482 482 z m 728 350 b 728 343 732 339 742 339 b 749 339 753 345 753 350 b 753 369 753 386 749 402 b 749 410 743 417 734 415 b 728 412 723 406 724 399 b 727 383 728 368 728 350 z m 332 500 b 332 496 338 493 342 493 l 348 493 b 363 499 378 503 392 504 b 399 506 404 510 403 518 b 403 525 397 531 392 529 b 372 529 356 524 338 516 b 332 513 328 506 332 500 z m 549 175 b 550 168 556 164 561 164 l 564 164 b 571 165 576 171 575 178 l 575 222 b 575 229 568 235 561 235 b 554 235 549 229 549 222 z"},".":{"x_min":0,"x_max":230,"ha":230,"o":"m 132 28 b 132 42 121 53 108 53 b 94 53 82 42 82 28 b 82 15 94 3 108 3 b 121 3 132 15 132 28 z"},"p":{"x_min":0,"x_max":660,"ha":660,"o":"m 140 98 b 142 94 146 93 150 93 b 152 93 155 94 158 96 b 163 99 164 107 160 113 b 151 126 142 140 136 155 b 134 161 126 164 120 161 b 118 160 116 159 115 158 b 113 161 110 163 106 163 b 99 163 93 158 93 150 l 93 99 b 93 93 99 87 106 87 b 113 87 118 93 118 99 l 118 134 b 124 121 130 109 140 98 z m 120 321 b 121 320 122 320 125 320 b 128 320 134 322 136 327 b 136 330 137 331 139 334 b 141 340 139 348 132 350 b 127 353 121 351 118 347 l 118 353 b 118 360 113 365 106 365 b 99 365 93 360 93 353 l 93 302 b 93 296 99 289 106 289 b 113 289 118 296 118 302 l 118 322 b 118 321 119 321 120 321 z m 218 441 b 221 436 225 434 230 434 b 232 434 234 435 236 436 b 250 442 264 449 280 451 b 287 454 292 460 289 468 b 288 474 282 478 274 477 b 256 473 240 467 225 458 b 218 455 216 448 218 441 z m 515 332 b 517 327 522 325 527 325 b 528 325 530 325 532 326 b 539 329 541 336 539 342 b 531 359 522 374 511 388 b 507 394 499 396 493 391 b 488 387 487 379 490 373 b 501 360 508 346 515 332 z m 145 373 b 147 370 150 370 152 370 b 156 370 160 372 163 374 b 173 388 184 399 196 410 b 201 413 202 422 197 427 b 193 432 185 434 179 429 b 166 417 154 405 142 391 b 139 384 140 377 145 373 z m 218 29 b 221 27 223 26 225 26 b 230 26 234 29 236 34 b 240 40 237 48 231 50 b 217 58 203 67 192 78 b 187 82 179 82 174 77 b 169 72 170 63 175 59 b 188 46 203 36 218 29 z m 518 130 b 521 129 522 129 525 129 b 528 129 534 131 536 136 b 544 151 549 168 554 186 b 555 193 550 199 544 201 b 537 203 530 198 528 192 b 525 175 520 160 513 146 b 509 140 512 132 518 130 z m 547 226 b 554 226 559 232 560 239 l 560 241 b 560 259 558 275 555 292 b 552 298 546 303 540 302 b 532 301 528 293 530 287 b 532 272 535 258 535 241 l 535 239 b 534 232 540 226 546 226 z m 378 451 b 383 451 388 455 389 461 b 392 468 387 474 380 477 b 364 480 346 483 327 483 b 321 483 315 477 315 470 b 315 463 321 458 327 458 b 344 458 359 455 374 451 z m 452 54 b 455 51 459 49 463 49 b 465 49 468 50 470 53 b 484 64 497 77 508 91 b 512 96 511 103 506 108 b 501 112 492 111 488 106 b 478 93 466 82 454 72 b 449 68 449 59 452 54 z m 360 16 b 361 10 366 6 371 6 l 375 6 b 393 10 409 16 426 24 b 431 26 435 34 431 40 b 428 46 421 49 415 46 b 401 40 385 34 369 31 b 363 30 358 22 360 16 z m 93 -204 b 93 -211 99 -217 106 -217 b 113 -217 118 -211 118 -204 l 118 -154 b 118 -146 113 -141 106 -141 b 99 -141 93 -146 93 -154 z m 93 201 b 93 194 99 188 106 188 b 113 188 118 194 118 201 l 118 251 b 118 259 113 264 106 264 b 99 264 93 259 93 251 z m 93 -103 b 93 -109 99 -116 106 -116 b 113 -116 118 -109 118 -103 l 118 -52 b 118 -45 113 -40 106 -40 b 99 -40 93 -45 93 -52 z m 93 403 b 93 397 99 391 106 391 b 113 391 118 397 118 403 l 118 454 b 118 461 113 467 106 467 b 99 467 93 461 93 454 z m 459 408 b 461 406 464 406 466 406 b 470 406 474 407 477 410 b 480 415 480 424 475 427 b 461 439 446 449 431 458 b 425 460 417 458 413 451 b 411 446 413 439 420 435 b 434 427 446 418 459 408 z m 322 1 b 328 1 335 6 335 13 b 335 20 328 26 322 26 b 306 26 290 29 275 32 b 268 35 261 31 260 24 b 258 17 261 10 269 8 b 285 5 303 1 322 1 z m 93 -2 b 93 -8 99 -14 106 -14 b 113 -14 118 -8 118 -2 l 118 49 b 118 56 113 61 106 61 b 99 61 93 56 93 49 z"},"X":{"x_min":0,"x_max":722,"ha":722,"o":"m 320 329 b 321 328 324 327 326 327 b 329 327 331 327 334 328 b 336 327 339 327 341 327 b 344 327 346 328 349 329 b 354 333 355 341 351 347 l 350 348 l 367 372 b 370 378 369 386 364 390 b 359 395 350 394 346 387 l 333 370 l 321 387 b 317 394 310 395 305 390 b 298 386 297 378 301 372 l 318 349 l 316 347 b 312 341 314 333 320 329 z m 450 168 b 453 165 457 163 460 163 b 463 163 467 163 468 166 b 474 170 476 177 472 184 l 441 224 b 438 229 429 230 424 227 b 417 223 416 215 421 209 z m 439 492 b 441 491 444 490 446 490 b 450 490 454 492 457 495 l 487 537 b 491 542 489 549 483 554 b 478 558 470 557 465 551 l 436 510 b 432 505 434 496 439 492 z m 151 577 b 154 573 158 572 162 572 b 164 572 168 572 169 575 b 176 578 177 586 172 592 l 143 633 b 139 638 130 639 125 635 b 119 632 117 624 122 618 z m 259 247 b 262 246 264 244 267 244 b 270 244 274 247 277 249 l 307 291 b 311 296 310 305 305 309 b 298 313 291 311 287 306 l 257 265 b 253 259 254 252 259 247 z m 200 166 b 202 163 205 163 207 163 b 211 163 215 165 217 168 l 248 209 b 251 215 250 223 245 227 b 239 230 231 229 227 224 l 197 184 b 193 177 195 170 200 166 z m 391 249 b 393 247 397 244 401 244 b 403 244 406 246 408 247 b 415 252 416 259 411 265 l 382 306 b 377 311 369 313 364 309 b 358 305 357 296 362 291 z m 272 414 b 274 410 278 409 282 409 b 284 409 287 409 289 410 b 295 415 296 423 292 428 l 262 470 b 258 475 250 476 244 472 b 239 468 238 459 241 454 z m 570 5 b 573 1 577 0 581 0 b 583 0 586 0 588 3 b 593 6 595 14 591 20 l 560 61 b 557 66 549 67 543 63 b 538 59 536 51 540 46 z m 140 84 b 143 82 145 81 148 81 b 151 81 155 84 158 86 l 188 128 b 192 133 191 141 184 146 b 179 149 172 148 167 142 l 138 101 b 134 96 135 87 140 84 z m 379 410 b 382 409 384 409 387 409 b 391 409 395 410 397 414 l 426 454 b 431 459 430 468 424 472 b 419 476 410 475 406 470 l 377 428 b 372 423 373 415 379 410 z m 511 86 b 514 84 517 81 521 81 b 524 81 526 82 529 84 b 534 87 535 96 531 101 l 501 142 b 497 148 489 149 483 146 b 478 141 477 133 481 128 z m 498 575 b 501 572 503 572 506 572 b 510 572 514 573 516 577 l 546 618 b 550 624 549 632 544 635 b 538 639 530 638 526 633 l 496 592 b 492 586 493 578 498 575 z m 212 495 b 214 492 219 490 222 490 b 225 490 227 491 229 492 b 235 496 236 505 232 510 l 202 551 b 198 557 191 558 184 554 b 179 549 178 542 182 537 z m 81 3 b 83 0 86 0 88 0 b 92 0 96 1 98 5 l 127 46 b 132 51 131 59 125 63 b 120 67 111 66 107 61 l 78 20 b 73 14 74 6 81 3 z m 558 656 b 560 654 563 653 565 653 b 569 653 573 656 576 658 l 591 678 b 595 685 593 692 588 696 b 582 700 574 699 570 694 l 555 673 b 551 668 553 659 558 656 z m 92 658 b 95 656 98 653 102 653 b 105 653 107 654 110 656 b 116 659 117 668 112 673 l 98 694 b 93 699 86 700 81 696 b 74 692 73 685 78 678 z"},"*":{"x_min":0,"x_max":430,"ha":430,"o":"m 204 159 b 206 156 211 156 214 156 b 218 156 220 156 222 157 b 223 151 228 145 234 145 b 240 145 246 150 248 157 b 251 156 253 156 257 156 b 260 156 263 156 268 159 b 273 165 273 173 268 177 b 275 179 280 185 280 189 b 280 197 275 202 270 203 b 272 210 272 216 268 223 b 261 227 253 228 247 225 b 245 231 240 235 234 235 b 228 235 223 230 222 223 b 218 228 209 228 204 223 b 197 216 196 210 200 203 b 194 202 190 197 190 189 b 190 185 194 179 202 177 b 196 173 196 165 204 159 z m 122 77 b 127 74 130 74 131 74 b 138 74 139 74 143 77 l 184 118 b 189 123 189 132 184 139 b 176 144 168 144 163 139 l 122 98 b 117 94 117 85 122 77 z m 163 243 b 165 237 171 237 173 237 b 176 237 177 237 184 243 b 189 248 189 258 184 264 l 143 302 b 138 310 130 310 122 302 b 117 296 117 291 122 283 z m 328 77 b 331 74 336 74 339 74 b 339 74 344 74 347 77 b 352 85 352 94 347 98 l 309 139 b 301 144 293 144 288 139 b 280 132 280 123 288 118 z m 288 243 b 290 240 293 237 298 237 b 301 237 306 240 309 243 l 347 283 b 352 291 352 296 347 302 b 339 310 334 310 328 302 l 288 264 b 280 258 280 248 288 243 z m 150 177 b 158 177 163 185 163 189 b 163 199 158 204 150 204 l 92 204 b 81 204 76 199 76 189 b 76 185 81 177 92 177 z m 222 47 b 222 39 227 31 234 31 b 242 31 249 39 249 47 l 249 105 b 249 113 242 118 234 118 b 227 118 222 113 222 105 z m 222 278 b 222 270 227 264 234 264 b 242 264 249 270 249 278 l 249 335 b 249 342 242 350 234 350 b 227 350 222 342 222 335 z m 380 177 b 387 177 395 185 395 189 b 395 199 387 204 380 204 l 323 204 b 315 204 309 199 309 189 b 309 185 315 177 323 177 z"},"Y":{"x_min":0,"x_max":604,"ha":604,"o":"m 305 303 b 305 295 310 290 317 290 b 325 290 330 295 330 303 l 330 342 l 359 382 b 364 389 363 396 357 400 b 351 404 344 403 339 397 l 317 367 l 296 397 b 291 403 283 404 278 400 b 272 396 270 389 276 382 l 305 342 z m 372 420 b 374 419 377 418 379 418 b 383 418 387 420 389 424 l 420 465 b 424 470 422 478 416 482 b 411 486 403 485 398 480 l 369 438 b 365 433 367 425 372 420 z m 186 505 b 188 501 192 500 196 500 b 198 500 201 501 203 503 b 208 506 210 514 206 520 l 176 561 b 172 567 164 568 158 563 b 153 559 151 552 155 546 z m 305 100 b 305 92 310 87 317 87 b 325 87 330 92 330 100 l 330 151 b 330 157 325 163 317 163 b 310 163 305 157 305 151 z m 245 424 b 248 420 251 418 255 418 b 258 418 260 419 263 420 b 268 425 269 433 265 438 l 236 480 b 231 485 224 486 219 482 b 212 478 211 470 215 465 z m 305 201 b 305 194 310 189 317 189 b 325 189 330 194 330 201 l 330 252 b 330 258 325 265 317 265 b 310 265 305 258 305 252 z m 431 503 b 434 501 436 500 439 500 b 443 500 446 501 449 505 l 479 546 b 483 552 482 559 477 563 b 470 568 463 567 459 561 l 429 520 b 425 514 426 506 431 503 z m 126 587 b 129 584 132 582 136 582 b 139 582 141 582 144 585 b 149 589 150 596 146 601 l 116 643 b 112 648 105 649 98 646 b 93 642 92 633 96 628 z m 491 585 b 493 582 496 582 498 582 b 502 582 506 584 508 587 l 539 628 b 543 633 541 642 536 646 b 530 649 522 648 519 643 l 488 601 b 484 596 486 589 491 585 z m 305 13 b 305 5 310 0 317 0 b 325 0 330 5 330 13 l 330 49 b 330 56 325 62 317 62 b 310 62 305 56 305 49 z m 551 666 b 553 665 557 663 559 663 b 563 663 567 666 569 668 l 576 678 b 581 685 579 692 573 696 b 568 700 560 699 555 694 l 548 684 b 544 678 545 670 551 666 z m 65 668 b 68 666 72 663 76 663 b 78 663 82 665 83 666 b 89 670 91 678 86 684 l 79 694 b 74 699 67 700 62 696 b 55 692 54 685 59 678 z"},"c":{"x_min":0,"x_max":571,"ha":571,"o":"m 306 12 l 306 12 b 306 5 313 0 319 0 l 319 0 b 319 0 319 0 319 0 l 319 0 b 337 0 354 2 371 7 l 371 7 b 377 9 381 16 380 22 l 380 22 b 379 29 371 33 365 31 l 365 31 b 349 27 333 26 318 26 l 318 26 b 311 26 306 19 306 12 z m 266 3 l 266 3 b 267 3 267 2 268 2 l 268 2 b 275 2 280 7 280 14 l 280 14 b 281 21 276 26 271 27 l 271 27 b 254 30 239 35 224 40 l 224 40 b 218 43 210 40 208 34 l 208 34 b 205 27 209 21 215 17 l 215 17 b 232 12 248 7 266 3 z m 405 31 l 405 31 b 406 26 410 24 415 24 l 415 24 b 417 24 419 24 420 26 l 420 26 b 437 33 452 41 466 53 l 466 53 b 471 57 472 65 468 71 l 468 71 b 463 76 455 76 451 73 l 451 73 l 451 73 b 438 63 424 54 410 48 l 410 48 b 405 45 401 38 405 31 z m 169 41 l 169 41 b 170 40 172 40 175 40 l 175 40 b 179 40 184 41 185 45 l 185 45 b 189 52 188 59 183 63 l 183 63 l 183 63 b 169 71 156 82 145 93 l 145 93 b 141 98 132 98 127 93 l 127 93 b 123 88 123 80 127 76 l 127 76 b 140 63 153 52 169 41 z m 94 117 l 94 117 b 97 113 101 111 106 111 l 106 111 b 107 111 110 112 112 113 l 112 113 b 117 117 120 125 116 130 l 116 130 b 107 144 101 157 94 172 l 94 172 b 93 180 85 182 80 180 l 80 180 b 72 179 70 171 72 165 l 72 165 b 77 147 85 131 94 117 z m 60 217 l 60 217 b 60 210 65 205 72 205 l 72 205 b 72 205 74 205 74 205 l 74 205 b 80 206 84 213 84 218 l 84 218 b 84 227 84 237 84 246 l 84 246 b 84 253 84 260 84 267 l 84 267 b 84 273 80 279 72 280 l 72 280 b 65 280 60 275 60 269 l 60 269 b 58 261 58 253 58 246 l 58 246 b 58 236 58 225 60 217 z m 79 304 l 79 304 b 80 304 80 304 82 304 l 82 304 b 87 304 92 307 93 313 l 93 313 b 98 328 106 342 113 356 l 113 356 b 117 362 115 370 110 374 l 110 374 b 103 376 96 375 92 369 l 92 369 b 84 353 75 337 70 321 l 70 321 b 68 314 70 307 79 304 z m 124 394 l 124 394 b 127 391 129 390 134 390 l 134 390 b 136 390 140 391 142 394 l 142 394 b 153 405 166 415 179 425 l 179 425 b 184 429 185 437 181 443 l 181 443 b 178 447 170 449 164 445 l 164 445 b 150 435 136 424 123 411 l 123 411 b 120 406 120 397 124 394 z m 447 420 l 447 420 b 449 419 452 418 454 418 l 454 418 b 458 418 462 419 464 423 l 464 423 b 468 428 467 437 462 440 l 462 440 b 448 451 433 459 417 466 l 417 466 b 410 471 403 466 399 461 l 399 461 b 396 454 399 447 405 444 l 405 444 b 420 438 434 429 447 420 z m 204 454 l 204 454 b 205 449 210 447 215 447 l 215 447 b 216 447 219 447 221 447 l 221 447 b 234 452 249 457 266 461 l 266 461 b 271 463 276 469 276 475 l 276 475 b 275 483 268 487 261 485 l 261 485 b 243 483 227 476 210 471 l 210 471 b 204 468 202 461 204 454 z m 360 459 l 360 459 b 362 459 362 459 363 459 l 363 459 b 368 459 374 463 375 469 l 375 469 b 377 475 372 483 366 485 l 366 485 b 349 488 331 489 313 490 l 313 490 b 307 490 300 485 300 478 l 300 478 b 300 471 306 466 313 466 l 313 466 l 313 466 b 330 464 345 463 360 459 z"},"!":{"x_min":0,"x_max":252,"ha":252,"o":"m 93 167 l 93 167 b 93 159 98 154 106 154 l 106 154 b 112 154 118 159 118 167 l 118 218 l 118 218 b 118 225 112 230 106 230 l 106 230 b 98 230 93 225 93 218 z m 93 268 l 93 268 b 93 261 98 256 106 256 l 106 256 b 112 256 118 261 118 268 l 118 319 l 118 319 b 118 327 112 332 106 332 l 106 332 b 98 332 93 327 93 319 z m 93 370 l 93 370 b 93 362 98 357 106 357 l 106 357 b 112 357 118 362 118 370 l 118 420 l 118 420 b 118 428 112 433 106 433 l 106 433 b 98 433 93 428 93 420 z m 93 471 l 93 471 b 93 463 98 458 106 458 l 106 458 b 112 458 118 463 118 471 l 118 522 l 118 522 b 118 529 112 534 106 534 l 106 534 b 98 534 93 529 93 522 z m 93 572 l 93 572 b 93 565 98 559 106 559 l 106 559 b 112 559 118 565 118 572 l 118 623 l 118 623 b 118 630 112 635 106 635 l 106 635 b 98 635 93 630 93 623 z m 93 673 l 93 673 b 93 666 98 661 106 661 l 106 661 b 112 661 118 666 118 673 l 118 687 l 118 687 b 118 694 112 700 106 700 l 106 700 b 98 700 93 694 93 687 z m 93 13 l 93 13 b 93 6 98 0 106 0 l 106 0 b 112 0 118 6 118 13 l 118 37 l 118 37 b 118 44 112 49 106 49 l 106 49 b 98 49 93 44 93 37 z"},"/":{"x_min":0,"x_max":422,"ha":422,"o":"m 83 1 l 83 1 b 84 0 86 0 87 0 l 87 0 b 92 0 97 3 100 8 l 108 29 l 108 29 b 111 35 107 43 101 45 l 101 45 b 94 48 87 45 84 38 l 76 18 l 76 18 b 73 11 77 4 83 1 z m 111 68 l 111 68 b 112 68 115 67 116 67 l 116 67 b 121 67 126 71 127 76 l 148 121 l 148 121 b 150 129 146 135 140 139 l 140 139 b 134 142 126 138 124 131 l 105 85 l 105 85 b 102 78 105 71 111 68 z m 150 162 l 150 162 b 151 160 154 160 155 160 l 155 160 b 160 160 165 163 167 168 l 187 215 l 187 215 b 189 221 185 229 179 231 l 179 231 b 173 234 165 231 163 225 l 144 178 l 144 178 b 141 172 144 164 150 162 z m 189 255 l 189 255 b 191 254 193 254 194 254 l 194 254 b 199 254 204 256 206 262 l 226 308 l 226 308 b 228 315 226 322 218 325 l 218 325 b 212 327 206 325 202 318 l 183 272 l 183 272 b 180 265 183 258 189 255 z m 228 347 l 228 347 b 230 347 232 347 233 347 l 233 347 b 239 347 244 350 245 355 l 265 402 l 265 402 b 268 408 265 416 259 418 l 259 418 b 251 421 245 417 241 411 l 222 365 l 222 365 b 220 358 222 351 228 347 z m 268 441 l 268 441 b 270 441 271 440 273 440 l 273 440 b 278 440 283 444 284 447 l 304 494 l 304 494 b 307 500 304 508 298 510 l 298 510 b 290 514 284 510 280 504 l 261 457 l 261 457 b 259 451 261 444 268 441 z m 307 534 l 307 534 b 309 533 311 533 312 533 l 312 533 b 317 533 322 536 323 541 l 343 588 l 343 588 b 346 594 343 601 337 604 l 337 604 b 331 606 323 604 321 598 l 300 551 l 300 551 b 298 545 300 537 307 534 z m 346 628 l 346 628 b 348 627 350 627 351 627 l 351 627 b 356 627 361 629 362 634 l 383 681 l 383 681 b 385 687 383 695 376 697 l 376 697 b 370 700 362 697 360 691 l 340 644 l 340 644 b 337 638 340 631 346 628 z"},"[":{"x_min":0,"x_max":430,"ha":430,"o":"m 171 -95 b 179 -95 185 -88 185 -80 b 185 -72 179 -66 171 -66 l 126 -66 b 127 -64 127 -63 127 -62 l 127 -4 b 127 4 121 10 113 10 b 105 10 98 4 98 -4 l 98 -62 b 98 -65 99 -68 101 -71 b 99 -73 98 -76 98 -80 b 98 -88 105 -95 113 -95 z m 98 633 b 98 625 105 618 113 618 b 121 618 127 625 127 633 l 127 676 l 171 676 b 179 676 185 683 185 691 b 185 699 179 705 171 705 l 115 705 l 113 705 l 111 705 b 104 704 98 698 98 691 z m 98 285 b 98 277 105 271 113 271 b 121 271 127 277 127 285 l 127 343 b 127 351 121 358 113 358 b 105 358 98 351 98 343 z m 98 54 b 98 46 105 39 113 39 b 121 39 127 46 127 54 l 127 112 b 127 120 121 126 113 126 b 105 126 98 120 98 112 z m 98 401 b 98 393 105 387 113 387 b 121 387 127 393 127 401 l 127 459 b 127 467 121 474 113 474 b 105 474 98 467 98 459 z m 98 170 b 98 162 105 155 113 155 b 121 155 127 162 127 170 l 127 227 b 127 235 121 242 113 242 b 105 242 98 235 98 227 z m 98 517 b 98 509 105 503 113 503 b 121 503 127 509 127 517 l 127 575 b 127 583 121 589 113 589 b 105 589 98 583 98 575 z m 254 676 b 262 676 269 683 269 691 b 269 699 262 705 254 705 l 229 705 b 221 705 214 699 214 691 b 214 683 221 676 229 676 z m 254 -95 b 262 -95 269 -88 269 -80 b 269 -72 262 -66 254 -66 l 229 -66 b 221 -66 214 -72 214 -80 b 214 -88 221 -95 229 -95 z"},"6":{"x_min":0,"x_max":642,"ha":642,"o":"m 79 249 b 86 249 91 254 92 261 b 94 276 99 291 106 306 b 108 313 106 320 98 323 b 94 324 90 324 87 322 b 88 324 90 326 91 329 b 92 346 93 362 97 377 b 98 385 93 391 87 392 b 79 394 73 389 72 382 b 69 365 67 348 65 332 b 64 324 69 318 77 318 l 78 318 b 80 318 83 318 85 320 b 84 319 83 317 82 316 b 75 300 70 282 67 265 b 65 258 70 252 78 251 z m 496 165 b 497 165 498 163 499 163 b 505 163 510 168 511 173 b 516 191 517 209 517 227 b 517 237 517 247 516 257 b 515 265 508 270 502 268 b 494 267 489 261 491 254 b 492 246 492 235 492 227 b 492 210 491 195 487 180 b 486 172 489 166 496 165 z m 125 513 b 127 511 129 511 131 511 b 135 511 140 514 142 518 b 150 533 158 547 168 561 b 172 566 170 573 164 578 b 158 582 150 581 146 575 b 136 561 127 546 120 530 b 116 524 118 516 125 513 z m 425 377 b 427 375 430 373 432 373 b 436 373 440 376 442 378 b 448 384 446 391 441 396 b 429 408 413 418 397 427 b 391 430 383 428 380 422 b 377 415 379 408 386 404 b 399 396 412 387 425 377 z m 272 1 b 278 0 284 0 291 0 b 302 0 313 1 325 3 b 332 4 336 10 336 18 b 335 24 329 29 321 28 b 311 27 301 25 291 25 b 286 25 279 25 274 27 b 267 27 260 22 260 15 b 259 8 265 1 272 1 z m 92 418 b 93 416 94 416 96 416 b 101 416 106 420 107 427 b 112 442 117 458 122 473 b 125 480 121 487 115 490 b 108 492 101 489 98 482 b 93 466 87 449 83 433 b 80 427 86 419 92 418 z m 74 158 b 75 153 80 149 87 149 b 88 149 89 151 91 151 b 97 153 101 159 98 166 b 93 181 91 197 89 213 b 89 220 83 225 77 225 b 69 224 64 218 64 211 b 65 194 69 176 74 158 z m 112 344 b 113 343 116 342 120 342 b 123 342 127 344 130 347 b 139 359 150 371 161 381 b 168 386 168 394 164 400 b 159 405 151 405 146 401 b 132 390 120 377 110 362 b 105 357 106 349 112 344 z m 445 77 b 448 76 450 75 454 75 b 456 75 460 76 463 78 b 474 92 484 108 493 123 b 496 129 493 137 487 141 b 482 143 473 142 470 135 b 463 120 454 108 444 96 b 439 90 440 82 445 77 z m 360 24 b 363 19 367 16 372 16 l 377 16 b 393 24 410 33 423 43 b 429 47 430 54 426 61 b 422 66 415 67 408 63 b 396 54 382 47 367 41 b 360 38 358 30 360 24 z m 223 11 b 229 11 234 14 235 20 b 237 27 234 34 227 35 b 212 41 198 48 184 56 b 178 59 170 58 167 52 b 163 46 165 38 170 34 b 186 25 202 18 220 11 z m 186 413 b 187 409 192 406 197 406 b 198 406 201 406 202 408 b 216 414 231 419 246 423 b 254 424 258 432 256 438 b 255 446 248 449 241 448 b 223 444 207 438 191 430 b 184 427 182 419 186 413 z m 129 68 b 131 66 135 65 137 65 b 141 65 145 66 148 67 b 151 72 151 81 148 86 b 136 97 126 109 118 123 b 115 129 107 130 101 128 b 94 124 93 116 96 110 b 106 95 116 81 129 68 z m 260 659 b 261 654 267 652 272 652 b 273 652 274 652 277 653 b 291 659 306 665 322 667 b 329 670 334 676 331 682 b 330 690 323 694 316 692 b 298 689 282 682 267 676 b 260 673 256 666 260 659 z m 479 300 b 480 295 486 292 491 292 l 496 292 b 502 295 505 303 502 309 b 496 325 487 342 477 356 b 473 362 465 363 459 359 b 454 356 453 347 456 342 b 465 329 473 315 479 300 z m 344 422 b 350 422 355 425 356 430 b 359 438 354 444 348 446 b 331 451 313 453 294 453 b 288 453 282 448 282 441 b 282 434 287 428 294 428 b 311 428 326 425 341 422 z m 180 597 b 183 595 186 594 189 594 b 192 594 196 595 198 597 b 210 609 221 620 235 629 b 240 633 241 641 237 647 b 234 652 226 653 220 649 b 206 639 192 628 180 615 b 175 610 175 603 180 597 z m 356 686 b 356 680 363 675 369 675 l 374 675 b 380 675 386 681 386 687 b 386 695 379 700 373 700 l 369 700 b 361 699 356 694 356 686 z"},"r":{"x_min":0,"x_max":439,"ha":439,"o":"m 93 219 b 93 212 98 207 106 207 b 112 207 119 212 119 219 l 119 239 b 121 245 126 260 136 282 b 138 289 135 297 128 299 b 121 302 114 299 112 292 b 111 289 109 286 108 284 l 106 284 b 98 284 93 278 93 271 l 93 242 l 93 241 z m 140 323 b 142 322 144 320 146 320 b 152 320 155 323 158 328 b 166 341 175 355 185 369 b 189 376 187 383 182 388 b 176 392 168 391 164 385 b 153 371 144 355 135 339 b 132 334 133 325 140 323 z m 199 406 b 202 404 204 403 208 403 b 210 403 215 404 217 406 b 229 418 242 429 256 437 b 261 440 264 449 260 454 b 256 461 248 462 242 460 b 227 449 212 437 199 426 b 194 421 194 412 199 406 z m 93 116 b 93 109 98 103 106 103 b 112 103 119 109 119 116 l 119 168 b 119 175 112 181 106 181 b 98 181 93 175 93 168 z m 93 426 b 93 418 98 413 106 413 b 112 413 119 418 119 426 l 119 478 b 119 484 112 491 106 491 b 98 491 93 484 93 478 z m 93 323 b 93 315 98 310 106 310 b 112 310 119 315 119 323 l 119 374 b 119 381 112 388 106 388 b 98 388 93 381 93 374 z m 93 13 b 93 5 98 0 106 0 b 112 0 119 5 119 13 l 119 64 b 119 71 112 78 106 78 b 98 78 93 71 93 64 z m 283 466 b 284 460 290 456 296 456 b 297 456 299 457 299 457 b 314 461 330 463 346 465 b 354 465 359 470 359 478 b 359 484 353 491 346 491 b 327 489 309 486 292 481 b 284 479 281 472 283 466 z"},"2":{"x_min":0,"x_max":590,"ha":590,"o":"m 381 625 b 383 624 386 623 390 623 b 393 623 396 624 398 627 b 403 633 403 641 397 646 b 383 657 369 667 353 675 b 347 678 339 676 336 670 b 333 663 335 656 341 652 b 355 646 369 637 381 625 z m 462 442 b 468 442 473 447 474 453 b 474 461 476 468 476 476 b 476 486 474 496 473 506 b 472 514 466 519 459 518 b 452 516 447 510 448 504 b 449 494 450 485 450 476 b 450 470 449 462 449 456 b 448 449 453 443 460 442 z m 435 549 b 438 544 443 541 448 541 b 449 541 450 542 452 542 b 459 544 462 552 459 558 b 453 575 444 591 434 605 b 430 611 421 613 416 609 b 410 604 409 596 414 591 b 422 577 430 563 435 549 z m 300 668 b 306 668 311 672 312 678 b 314 685 310 692 303 694 b 286 697 268 700 252 700 l 250 700 b 243 700 238 694 238 687 b 238 680 243 675 250 675 l 252 675 b 267 675 282 672 297 668 z m 421 349 b 424 348 425 347 428 347 b 433 347 436 349 439 353 b 449 368 457 385 462 401 b 464 408 462 415 454 416 b 448 419 440 416 439 409 b 433 395 426 380 417 367 b 414 361 415 353 421 349 z m 198 143 b 201 141 205 139 207 139 b 211 139 214 139 216 142 l 254 176 b 259 181 259 189 254 194 b 250 199 241 199 236 195 l 200 161 b 195 156 193 148 198 143 z m 273 211 b 276 208 279 206 283 206 b 286 206 290 208 291 210 l 329 244 b 334 248 334 257 330 262 b 325 267 317 267 312 262 l 274 229 b 269 224 269 216 273 211 z m 362 0 b 368 0 374 6 374 13 b 374 20 368 25 362 25 l 311 25 b 303 25 298 20 298 13 b 298 6 303 0 311 0 z m 159 0 b 166 0 172 6 172 13 b 172 20 166 25 159 25 l 109 25 b 101 25 96 20 96 13 b 96 6 101 0 109 0 z m 260 0 b 267 0 273 6 273 13 b 273 20 267 25 260 25 l 210 25 b 202 25 197 20 197 13 b 197 6 202 0 210 0 z m 463 0 b 469 0 476 6 476 13 b 476 20 469 25 463 25 l 412 25 b 405 25 400 20 400 13 b 400 6 405 0 412 0 z m 124 75 b 126 72 129 71 133 71 b 136 71 139 72 141 73 l 178 108 b 185 113 185 120 179 125 b 174 130 167 132 162 127 l 124 92 b 119 89 119 80 124 75 z m 48 6 b 50 4 54 3 58 3 b 60 3 64 4 67 6 l 103 41 b 109 44 110 53 105 58 b 100 63 92 63 87 58 l 49 25 b 44 20 44 11 48 6 z m 349 278 b 352 276 354 275 358 275 b 360 275 364 276 367 278 l 401 310 b 402 310 403 311 403 311 b 410 316 410 325 405 330 b 400 335 392 335 387 330 b 386 330 386 329 385 328 l 349 296 b 344 292 344 284 349 278 z m 141 657 b 144 652 148 651 153 651 b 154 651 157 651 158 652 b 173 659 187 665 203 668 b 210 670 214 677 212 684 b 210 691 203 695 197 692 b 179 689 163 682 147 673 b 140 671 138 663 141 657 z m 64 591 b 67 589 71 587 73 587 b 77 587 79 589 82 591 l 117 623 b 119 623 119 624 120 624 b 125 629 125 637 120 642 b 116 648 107 648 102 643 l 101 642 l 66 609 b 60 605 59 596 64 591 z"},"{":{"x_min":0,"x_max":480,"ha":480,"o":"m 343 670 b 345 664 350 660 356 660 b 358 660 360 661 361 661 b 376 666 389 669 399 671 b 409 673 414 673 414 673 b 422 674 428 681 427 689 b 427 697 420 703 412 702 b 411 702 385 700 352 689 b 344 686 340 678 343 670 z m 252 148 b 260 148 266 153 267 161 b 268 167 268 173 268 179 b 268 194 265 210 259 225 b 256 232 247 236 240 233 b 232 229 229 221 232 214 b 237 203 239 191 239 179 b 239 174 239 169 238 164 b 237 156 243 149 251 148 z m 227 497 b 228 490 234 484 241 484 b 242 484 242 484 243 485 b 251 486 257 493 255 501 b 254 510 253 519 253 528 b 253 537 254 546 256 554 b 257 562 252 569 244 571 b 236 572 228 567 227 559 b 225 549 224 539 224 528 b 224 518 225 508 227 497 z m 255 598 b 257 596 260 595 263 595 b 268 595 272 597 275 601 b 285 616 298 628 312 638 b 319 642 321 651 316 658 b 312 664 303 666 296 662 b 280 651 264 636 251 618 b 247 611 248 602 255 598 z m 240 372 b 242 371 244 371 245 371 b 251 371 256 374 259 380 b 265 395 268 410 268 426 b 268 432 267 438 267 444 b 266 452 259 457 251 457 b 243 456 237 448 238 441 b 239 436 239 431 239 426 b 239 414 237 402 232 391 b 229 384 232 375 240 372 z m 413 -98 b 420 -98 427 -92 427 -84 b 428 -76 422 -69 414 -69 l 399 -66 b 389 -65 376 -62 361 -57 b 354 -54 345 -58 343 -66 b 340 -73 344 -81 352 -84 b 385 -95 411 -98 412 -98 z m 227 46 b 228 39 234 34 241 34 l 244 34 b 252 35 257 43 256 51 b 254 59 253 68 253 77 b 253 85 254 94 255 104 b 256 112 251 119 243 120 b 235 121 228 116 227 108 b 225 97 224 87 224 77 b 224 66 225 55 227 46 z m 200 251 b 203 249 206 248 208 248 b 213 248 217 250 220 254 b 225 261 223 270 217 275 b 201 285 183 294 160 300 b 152 303 144 298 142 291 b 140 283 144 275 152 273 b 172 267 188 259 200 251 z m 142 314 b 144 308 150 304 156 304 l 160 304 b 183 311 201 320 216 330 b 223 335 225 344 220 350 b 216 357 207 359 200 354 b 188 346 172 338 152 332 b 144 330 140 322 142 314 z m 296 -57 b 299 -59 302 -59 304 -59 b 309 -59 314 -57 316 -53 b 321 -46 319 -37 312 -33 b 298 -23 285 -11 275 3 b 270 10 261 12 255 7 b 248 2 247 -7 251 -13 b 264 -31 280 -46 296 -57 z m 99 284 b 106 284 113 289 114 297 b 114 299 114 300 113 302 b 114 304 114 306 114 308 b 113 316 105 322 97 320 b 88 319 79 318 69 317 b 61 317 56 310 56 304 l 56 303 l 56 302 b 55 294 61 288 69 287 b 79 287 88 286 97 284 z"},"9":{"x_min":0,"x_max":642,"ha":642,"o":"m 485 377 b 486 376 489 376 490 376 b 492 376 495 377 497 378 b 495 376 494 373 494 371 b 493 354 490 338 488 322 b 486 315 490 309 498 308 l 500 308 b 505 308 512 311 513 318 b 515 334 518 352 519 368 b 520 376 514 382 508 382 b 505 383 502 382 500 381 b 500 382 501 383 501 384 b 509 400 514 418 517 435 b 518 442 514 448 507 449 b 500 451 493 447 493 439 b 489 424 485 408 479 394 b 476 387 479 380 485 377 z m 69 443 b 69 437 75 432 81 432 l 82 432 b 90 433 94 439 94 446 b 93 454 91 465 91 473 b 91 490 94 505 98 520 b 99 527 95 534 88 535 b 81 537 74 533 72 527 b 69 509 66 491 66 473 b 66 463 67 453 69 443 z m 107 343 b 109 341 113 338 118 338 b 120 338 123 339 124 341 b 131 344 132 352 128 358 b 119 371 112 385 105 400 b 103 406 95 410 89 408 b 82 405 79 397 81 391 b 89 373 96 358 107 343 z m 96 559 b 99 558 100 558 103 558 b 107 558 112 561 114 565 b 120 578 129 592 141 604 b 144 610 144 618 139 622 b 133 627 125 627 120 620 b 109 608 99 592 91 576 b 88 571 90 562 96 559 z m 186 273 b 189 272 190 272 193 272 b 196 272 201 275 204 278 b 207 285 204 292 199 296 b 184 303 171 313 160 323 b 155 328 146 327 142 322 b 137 316 137 309 142 304 b 156 292 171 282 186 273 z m 290 247 b 296 247 303 252 303 259 b 303 266 296 272 290 272 b 274 272 258 275 243 278 b 236 280 229 276 227 270 b 225 262 229 256 237 254 b 253 249 271 247 290 247 z m 420 300 b 423 297 427 296 431 296 b 433 296 436 297 438 299 b 452 310 465 323 475 338 b 479 343 477 351 472 356 b 467 359 458 358 455 353 b 446 341 434 328 422 319 b 417 314 415 306 420 300 z m 248 682 b 250 676 255 672 261 672 l 262 672 b 272 673 282 675 293 675 b 299 675 304 675 310 673 b 317 673 323 678 324 685 b 324 692 319 699 313 699 b 307 699 300 700 293 700 b 281 700 270 699 258 697 b 252 696 247 690 248 682 z m 400 644 b 401 643 404 642 407 642 b 410 642 415 644 417 648 b 420 654 419 662 413 666 b 398 675 381 682 365 689 b 358 690 351 687 348 680 b 347 673 350 666 357 665 b 372 659 386 652 400 644 z m 466 577 b 469 573 472 571 477 571 b 479 571 481 571 484 572 b 489 576 491 584 488 590 b 479 605 467 619 455 632 b 450 637 442 637 437 632 b 432 628 432 619 437 614 b 448 603 458 590 466 577 z m 494 487 b 495 480 500 475 507 475 l 508 475 b 515 476 520 481 519 489 b 518 506 515 524 510 542 b 508 548 500 552 494 549 b 488 547 484 541 485 533 b 490 519 494 503 494 487 z m 420 122 b 422 120 424 120 427 120 b 431 120 436 122 437 125 b 447 139 456 154 465 170 b 467 176 465 184 458 187 b 452 190 444 187 442 181 b 434 167 425 153 417 139 b 413 134 414 127 420 122 z m 328 262 b 329 256 334 252 339 252 l 343 252 b 360 256 377 262 393 270 b 399 273 401 281 399 287 b 396 294 389 296 382 292 b 367 286 353 280 337 277 b 331 276 325 268 328 262 z m 469 210 b 471 210 472 209 474 209 b 479 209 484 213 485 218 b 491 234 496 251 501 267 b 503 273 499 281 493 282 b 485 285 479 281 476 273 b 472 258 467 242 462 227 b 460 220 462 213 469 210 z m 346 53 b 348 49 352 48 357 48 b 360 48 362 48 363 51 b 379 61 391 72 404 85 b 409 90 409 97 404 103 b 399 108 391 108 386 103 b 375 91 362 80 350 71 b 343 67 342 59 346 53 z m 157 639 b 160 635 163 634 167 634 b 171 634 174 634 175 637 b 188 646 201 653 217 659 b 223 662 227 670 224 676 b 222 682 214 686 208 682 b 190 676 175 667 161 657 b 155 653 153 646 157 639 z m 252 18 b 253 11 258 8 265 8 l 267 8 b 285 11 301 18 318 24 b 324 27 327 34 324 41 b 322 47 314 51 308 47 b 294 41 279 35 262 32 b 255 30 251 24 252 18 z m 198 13 b 199 5 204 0 210 0 l 215 0 b 222 1 228 6 227 14 b 227 20 220 27 214 25 l 210 25 b 203 25 198 19 198 13 z"}," ":{"x_min":0,"x_max":300,"ha":300,"o":""},"I":{"x_min":0,"x_max":305,"ha":305,"o":"m 111 13 l 111 13 b 111 6 116 0 124 0 l 124 0 b 130 0 137 6 137 13 l 137 65 l 137 65 b 137 73 130 78 124 78 l 124 78 b 116 78 111 73 111 65 z m 111 117 l 111 117 b 111 110 116 104 124 104 l 124 104 b 130 104 137 110 137 117 l 137 169 l 137 169 b 137 176 130 181 124 181 l 124 181 b 116 181 111 176 111 169 z m 111 220 l 111 220 b 111 214 116 207 124 207 l 124 207 b 130 207 137 214 137 220 l 137 272 l 137 272 b 137 280 130 285 124 285 l 124 285 b 116 285 111 280 111 272 z m 111 324 l 111 324 b 111 318 116 311 124 311 l 124 311 b 130 311 137 318 137 324 l 137 376 l 137 376 b 137 384 130 389 124 389 l 124 389 b 116 389 111 384 111 376 z m 111 428 l 111 428 b 111 421 116 415 124 415 l 124 415 b 130 415 137 421 137 428 l 137 480 l 137 480 b 137 487 130 493 124 493 l 124 493 b 116 493 111 487 111 480 z m 111 531 l 111 531 b 111 525 116 519 124 519 l 124 519 b 130 519 137 525 137 531 l 137 583 l 137 583 b 137 591 130 596 124 596 l 124 596 b 116 596 111 591 111 583 z m 111 635 l 111 635 b 111 629 116 622 124 622 l 124 622 b 130 622 137 629 137 635 l 137 687 l 137 687 b 137 695 130 700 124 700 l 124 700 b 116 700 111 695 111 687 z"},"H":{"x_min":0,"x_max":709,"ha":709,"o":"m 104 324 b 104 318 109 311 117 311 b 123 311 130 318 130 324 l 130 329 l 173 329 b 180 329 186 334 186 342 b 186 349 180 355 173 355 l 130 355 l 130 376 b 130 384 123 389 117 389 b 109 389 104 384 104 376 z m 537 324 b 537 318 542 311 550 311 b 556 311 563 318 563 324 l 563 376 b 563 384 556 389 550 389 b 542 389 537 384 537 376 l 537 355 l 536 355 b 529 355 523 349 523 342 b 523 334 529 329 536 329 l 537 329 z m 484 329 b 492 329 497 334 497 342 b 497 349 492 355 484 355 l 432 355 b 425 355 419 349 419 342 b 419 334 425 329 432 329 z m 537 13 b 537 6 542 0 550 0 b 556 0 563 6 563 13 l 563 65 b 563 73 556 78 550 78 b 542 78 537 73 537 65 z m 104 13 b 104 6 109 0 117 0 b 123 0 130 6 130 13 l 130 65 b 130 73 123 78 117 78 b 109 78 104 73 104 65 z m 380 329 b 388 329 393 334 393 342 b 393 349 388 355 380 355 l 328 355 b 322 355 315 349 315 342 b 315 334 322 329 328 329 z m 104 428 b 104 421 109 415 117 415 b 123 415 130 421 130 428 l 130 480 b 130 487 123 493 117 493 b 109 493 104 487 104 480 z m 537 428 b 537 421 542 415 550 415 b 556 415 563 421 563 428 l 563 480 b 563 487 556 493 550 493 b 542 493 537 487 537 480 z m 537 635 b 537 629 542 622 550 622 b 556 622 563 629 563 635 l 563 687 b 563 695 556 700 550 700 b 542 700 537 695 537 687 z m 537 220 b 537 214 542 207 550 207 b 556 207 563 214 563 220 l 563 272 b 563 280 556 285 550 285 b 542 285 537 280 537 272 z m 104 220 b 104 214 109 207 117 207 b 123 207 130 214 130 220 l 130 272 b 130 280 123 285 117 285 b 109 285 104 280 104 272 z m 104 635 b 104 629 109 622 117 622 b 123 622 130 629 130 635 l 130 687 b 130 695 123 700 117 700 b 109 700 104 695 104 687 z m 276 329 b 284 329 289 334 289 342 b 289 349 284 355 276 355 l 225 355 b 218 355 212 349 212 342 b 212 334 218 329 225 329 z m 537 117 b 537 110 542 104 550 104 b 556 104 563 110 563 117 l 563 169 b 563 176 556 181 550 181 b 542 181 537 176 537 169 z m 537 531 b 537 525 542 519 550 519 b 556 519 563 525 563 531 l 563 583 b 563 591 556 596 550 596 b 542 596 537 591 537 583 z m 104 531 b 104 525 109 519 117 519 b 123 519 130 525 130 531 l 130 583 b 130 591 123 596 117 596 b 109 596 104 591 104 583 z m 104 117 b 104 110 109 104 117 104 b 123 104 130 110 130 117 l 130 169 b 130 176 123 181 117 181 b 109 181 104 176 104 169 z"},"4":{"x_min":0,"x_max":664,"ha":664,"o":"m 571 136 b 578 136 584 141 584 149 b 584 156 578 162 571 162 l 519 162 b 513 162 509 158 507 154 l 507 169 b 507 175 502 181 494 181 b 488 181 481 175 481 169 l 481 117 b 481 109 488 104 494 104 b 502 104 507 109 507 117 l 507 143 b 509 138 513 136 519 136 z m 481 635 b 481 627 488 622 494 622 b 502 622 507 627 507 635 l 507 687 b 507 694 502 700 494 700 b 488 700 481 694 481 687 l 481 686 b 478 686 476 684 475 682 l 441 642 b 437 636 438 627 444 624 b 446 622 449 621 451 621 b 455 621 459 622 462 626 l 481 649 z m 314 461 b 315 460 319 459 322 459 b 326 459 330 460 332 464 l 365 504 b 368 509 368 519 362 522 b 357 528 349 526 344 521 l 311 480 b 308 474 308 467 314 461 z m 379 543 b 381 541 384 539 387 539 b 391 539 394 542 397 544 l 429 585 b 433 591 433 599 427 603 b 422 608 414 607 409 601 l 376 561 b 372 555 372 547 379 543 z m 260 136 b 267 136 273 141 273 149 b 273 156 267 162 260 162 l 208 162 b 201 162 195 156 195 149 b 195 141 201 136 208 136 z m 467 136 b 475 136 480 141 480 149 b 480 156 475 162 467 162 l 415 162 b 409 162 402 156 402 149 b 402 141 409 136 415 136 z m 363 136 b 371 136 376 141 376 149 b 376 156 371 162 363 162 l 311 162 b 305 162 298 156 298 149 b 298 141 305 136 311 136 z m 156 136 b 164 136 169 141 169 149 b 169 156 164 162 156 162 l 104 162 b 98 162 91 156 91 149 b 91 141 98 136 104 136 z m 481 220 b 481 213 488 207 494 207 b 502 207 507 213 507 220 l 507 272 b 507 279 502 285 494 285 b 488 285 481 279 481 272 z m 481 13 b 481 5 488 0 494 0 b 502 0 507 5 507 13 l 507 65 b 507 71 502 78 494 78 b 488 78 481 71 481 65 z m 481 324 b 481 316 488 311 494 311 b 502 311 507 316 507 324 l 507 376 b 507 382 502 389 494 389 b 488 389 481 382 481 376 z m 481 428 b 481 420 488 415 494 415 b 502 415 507 420 507 428 l 507 480 b 507 486 502 493 494 493 b 488 493 481 486 481 480 z m 53 139 b 56 137 59 136 61 136 b 65 136 69 137 72 141 l 104 181 b 109 187 108 194 103 200 b 96 204 88 204 85 197 l 51 157 b 47 152 48 144 53 139 z m 481 531 b 481 524 488 519 494 519 b 502 519 507 524 507 531 l 507 583 b 507 590 502 596 494 596 b 488 596 481 590 481 583 z m 183 301 b 186 298 188 298 192 298 b 195 298 199 299 201 302 l 234 342 b 239 349 238 356 232 360 b 227 366 218 364 214 359 l 182 319 b 177 314 178 305 183 301 z m 118 219 b 121 218 123 216 126 216 b 130 216 134 219 136 222 l 169 262 b 174 267 173 276 168 280 b 161 285 153 284 149 279 l 117 237 b 112 232 113 224 118 219 z m 248 381 b 251 380 254 379 257 379 b 261 379 265 380 267 384 l 300 424 b 304 429 302 437 297 442 b 292 446 283 446 279 439 l 247 399 b 241 394 243 386 248 381 z"},"~":{"x_min":0,"x_max":460,"ha":460,"o":"m 274 641 b 275 640 275 640 276 640 b 278 640 280 642 281 644 b 283 647 281 651 278 652 b 271 654 264 658 258 661 b 255 663 252 662 250 659 b 248 657 249 653 252 651 b 259 647 267 643 274 641 z m 232 665 b 234 664 235 664 236 664 b 238 664 240 665 240 666 b 243 669 241 673 239 674 b 232 679 224 683 218 686 b 214 686 211 685 210 683 b 209 680 210 676 213 675 b 219 672 226 669 232 665 z m 193 681 b 196 681 199 683 199 686 b 199 689 197 692 194 693 b 189 693 183 694 178 694 b 175 694 172 694 170 693 b 167 693 164 691 165 687 b 165 684 167 681 170 682 l 178 682 b 183 682 187 682 192 681 z m 297 635 b 302 634 308 633 313 633 l 314 633 b 316 633 319 634 322 634 b 324 634 327 637 327 640 b 326 643 324 645 321 645 l 314 645 b 309 645 304 645 299 646 b 296 647 293 644 292 641 b 292 638 294 635 297 635 z m 338 642 b 339 640 341 638 344 638 b 345 638 345 639 346 639 b 353 642 361 645 367 650 b 370 652 370 656 369 658 b 367 661 363 661 361 659 b 355 655 348 652 342 650 b 338 648 337 645 338 642 z m 122 670 b 122 669 125 667 127 667 b 127 667 129 668 129 669 b 135 672 142 675 149 677 b 153 678 154 682 153 685 b 152 688 149 689 146 689 b 138 686 130 682 124 678 b 121 677 120 674 122 670 z m 377 667 b 378 666 379 666 380 666 b 382 666 384 666 385 667 b 389 674 394 681 397 689 b 399 692 397 695 394 697 b 391 698 388 696 386 693 b 384 686 380 680 376 675 b 373 672 374 669 377 667 z m 88 639 b 89 638 91 637 92 637 b 94 637 95 638 96 640 b 96 640 97 642 100 644 b 103 647 106 651 111 655 b 114 658 114 661 112 664 b 110 666 106 666 104 664 l 87 647 b 85 644 86 640 88 639 z"},"D":{"x_min":0,"x_max":719,"ha":719,"o":"m 104 637 b 104 630 109 624 117 624 b 123 624 129 630 129 637 l 129 675 l 167 675 b 175 675 180 681 180 687 b 180 695 175 700 167 700 l 119 700 l 117 700 l 115 700 b 108 699 104 694 104 687 z m 128 0 b 134 0 141 5 141 13 b 141 19 134 24 128 25 b 129 26 129 27 129 28 l 129 79 b 129 86 123 91 117 91 b 109 91 104 86 104 79 l 104 28 b 104 25 105 23 107 20 b 105 18 104 15 104 13 b 104 5 110 0 117 0 z m 449 607 b 451 606 454 605 457 605 b 460 605 464 606 467 610 b 472 615 470 624 464 628 b 450 638 436 648 421 657 b 415 659 407 658 403 652 b 399 645 402 638 408 634 b 422 626 436 618 449 607 z m 268 13 b 268 5 274 1 280 1 l 282 1 b 299 3 316 5 334 9 b 340 10 344 18 342 24 b 341 32 334 36 327 34 b 312 30 295 28 279 27 b 271 25 266 19 268 13 z m 366 32 b 369 27 373 24 378 24 b 380 24 382 24 383 25 b 399 32 415 39 430 48 b 436 52 438 60 435 66 b 431 72 424 74 417 70 b 403 62 388 55 373 48 b 366 46 364 38 366 32 z m 576 355 b 577 347 582 342 588 342 l 590 342 b 596 342 602 349 601 355 b 601 373 600 391 597 407 b 596 415 590 420 582 418 b 576 417 571 411 572 403 b 574 388 576 372 576 355 z m 455 80 b 458 77 462 76 465 76 b 468 76 470 76 473 79 b 487 90 500 101 511 115 b 516 120 515 128 510 133 b 505 137 497 137 492 132 b 482 119 469 109 457 98 b 451 94 450 86 455 80 z m 561 450 b 562 445 567 443 572 443 l 576 443 b 583 445 587 451 585 459 b 580 476 572 492 564 507 b 562 514 554 516 548 512 b 541 510 539 502 541 496 b 549 482 555 467 561 450 z m 526 152 b 528 151 530 151 533 151 b 536 151 541 152 544 156 b 553 171 562 186 569 202 b 572 208 569 216 563 219 b 557 222 549 219 547 213 b 539 198 531 184 522 170 b 519 165 520 156 526 152 z m 576 242 b 581 242 586 246 587 251 b 592 268 596 285 599 303 b 600 309 595 316 587 317 b 581 318 574 313 573 306 b 571 290 568 274 563 259 b 562 252 566 245 572 242 z m 368 654 b 374 654 378 657 380 662 b 383 668 379 676 373 678 b 356 685 340 690 322 692 b 316 695 308 690 307 684 b 306 676 311 670 317 668 b 334 664 349 661 364 654 z m 516 538 b 519 534 522 533 528 533 b 530 533 533 533 534 535 b 540 539 541 547 538 553 b 528 567 516 580 503 592 b 498 597 491 599 486 593 b 481 588 481 581 486 576 b 497 563 507 550 516 538 z m 269 675 b 276 675 282 680 282 686 b 283 694 276 699 270 700 l 218 700 b 212 700 205 695 205 687 b 205 681 212 675 218 675 z m 104 535 b 104 529 109 522 117 522 b 123 522 129 529 129 535 l 129 586 b 129 593 123 599 117 599 b 109 599 104 593 104 586 z m 104 231 b 104 224 109 218 117 218 b 123 218 129 224 129 231 l 129 282 b 129 289 123 294 117 294 b 109 294 104 289 104 282 z m 230 0 b 236 0 242 5 242 13 b 242 19 236 25 230 25 l 179 25 b 171 25 166 19 166 13 b 166 5 171 0 179 0 z m 104 332 b 104 326 109 320 117 320 b 123 320 129 326 129 332 l 129 383 b 129 391 123 396 117 396 b 109 396 104 391 104 383 z m 104 129 b 104 123 109 117 117 117 b 123 117 129 123 129 129 l 129 180 b 129 188 123 193 117 193 b 109 193 104 188 104 180 z m 104 434 b 104 427 109 421 117 421 b 123 421 129 427 129 434 l 129 484 b 129 492 123 497 117 497 b 109 497 104 492 104 484 z"},"0":{"x_min":0,"x_max":710,"ha":710,"o":"m 293 0 l 293 0 b 297 0 299 0 303 0 l 303 0 b 318 0 332 3 347 6 l 347 6 b 354 8 357 15 356 22 l 356 22 b 354 29 347 33 341 30 l 341 30 b 328 28 316 25 303 25 l 303 25 b 300 25 297 25 294 25 l 294 25 b 288 27 281 22 281 14 l 281 14 b 280 8 285 1 293 0 z m 240 13 l 240 13 b 241 11 243 11 245 11 l 245 11 b 250 11 255 15 256 19 l 256 19 b 259 27 256 33 249 35 l 249 35 l 249 35 b 235 42 222 49 208 59 l 208 59 b 203 63 195 62 190 57 l 190 57 b 187 52 188 43 193 39 l 193 39 b 208 28 223 19 240 13 z m 379 32 l 379 32 b 381 28 385 27 390 27 l 390 27 b 392 27 394 27 397 28 l 397 28 b 412 37 426 48 438 62 l 438 62 b 443 67 443 75 438 80 l 438 80 b 433 85 424 85 421 80 l 421 80 b 408 67 397 58 383 49 l 383 49 b 378 46 375 38 379 32 z m 155 76 l 155 76 b 157 73 160 71 164 71 l 164 71 b 168 71 170 72 173 75 l 173 75 b 178 78 178 87 174 92 l 174 92 b 164 104 154 118 146 132 l 146 132 b 142 138 135 139 128 137 l 128 137 b 122 133 121 125 123 119 l 123 119 b 133 104 143 89 155 76 z m 454 99 l 454 99 b 456 97 459 97 461 97 l 461 97 b 465 97 469 99 471 103 l 471 103 b 481 116 490 132 498 148 l 498 148 b 500 154 498 162 492 165 l 492 165 b 485 168 478 166 475 159 l 475 159 l 475 159 b 468 144 460 129 451 116 l 451 116 b 447 111 449 103 454 99 z m 100 166 l 100 166 b 102 161 107 158 112 158 l 112 158 b 113 158 116 158 117 158 l 117 158 b 123 162 126 168 123 175 l 123 175 b 117 190 112 205 107 222 l 107 222 b 106 228 98 232 92 230 l 92 230 b 85 228 81 222 83 215 l 83 215 b 88 197 94 181 100 166 z m 502 189 l 502 189 b 503 189 504 187 506 187 l 506 187 b 511 187 516 191 517 196 l 517 196 b 522 213 527 229 531 247 l 531 247 b 532 253 528 261 521 262 l 521 262 b 514 263 507 258 506 252 l 506 252 l 506 252 b 503 235 498 220 493 205 l 493 205 b 492 197 494 191 502 189 z m 71 266 l 71 266 b 73 259 78 254 84 254 l 84 254 b 84 254 85 254 87 254 l 87 254 b 93 256 98 263 97 270 l 97 270 b 94 286 92 301 90 319 l 90 319 b 90 325 84 330 78 330 l 78 330 b 70 330 65 324 65 316 l 65 316 b 66 300 69 282 71 266 z m 524 287 l 524 287 b 526 287 526 287 526 287 l 526 287 b 532 287 538 291 538 299 l 538 299 b 541 315 541 333 541 349 l 541 349 b 541 352 541 354 540 357 l 540 357 b 541 359 541 361 541 365 l 541 365 b 541 381 540 399 537 415 l 537 415 b 536 423 530 428 523 427 l 523 427 b 516 425 511 419 512 413 l 512 413 b 514 396 516 380 516 363 l 516 363 b 516 361 517 358 518 357 l 518 357 b 517 354 516 352 516 349 l 516 349 b 516 333 516 316 513 301 l 513 301 b 513 294 518 287 524 287 z m 76 356 l 76 356 b 78 356 78 356 78 356 l 78 356 b 84 356 90 361 90 368 l 90 368 b 90 385 92 401 94 416 l 94 416 b 95 424 90 430 84 432 l 84 432 b 76 433 70 428 69 420 l 69 420 b 68 404 65 386 65 368 l 65 368 b 65 362 70 356 76 356 z m 503 461 l 503 461 b 504 456 509 451 516 451 l 516 451 b 517 451 517 452 518 452 l 518 452 b 524 453 530 459 527 467 l 527 467 b 523 484 518 501 513 516 l 513 516 b 511 523 503 527 497 524 l 497 524 b 490 522 487 514 489 508 l 489 508 b 494 492 499 477 503 461 z m 89 456 l 89 456 b 89 456 90 456 92 456 l 92 456 b 97 456 102 459 104 466 l 104 466 b 108 482 113 497 118 513 l 118 513 b 121 519 118 527 112 529 l 112 529 b 104 532 98 528 95 522 l 95 522 b 89 505 84 489 79 472 l 79 472 b 78 465 81 458 89 456 z m 469 553 l 469 553 b 471 548 475 546 480 546 l 480 546 b 483 546 484 547 487 547 l 487 547 b 492 551 494 558 492 565 l 492 565 b 483 581 474 595 464 609 l 464 609 b 459 614 451 615 446 611 l 446 611 b 440 608 438 599 443 594 l 443 594 b 452 581 461 567 469 553 z m 122 552 l 122 552 b 123 551 126 551 128 551 l 128 551 b 132 551 137 552 138 557 l 138 557 l 138 557 b 147 571 156 585 165 597 l 165 597 b 170 603 169 611 164 615 l 164 615 b 157 619 150 619 146 613 l 146 613 b 135 600 126 585 117 568 l 117 568 b 113 563 116 554 122 552 z m 411 629 l 411 629 b 413 627 416 627 419 627 l 419 627 b 423 627 426 628 428 630 l 428 630 b 433 635 433 643 427 648 l 427 648 b 414 661 399 671 384 678 l 384 678 b 378 682 370 680 366 673 l 366 673 b 364 667 366 659 373 657 l 373 657 b 385 649 398 641 411 629 z m 180 634 l 180 634 b 183 630 187 629 190 629 l 190 629 b 193 629 195 630 198 633 l 198 633 b 211 643 224 652 237 658 l 237 658 b 243 662 246 670 243 676 l 243 676 b 240 682 232 685 227 681 l 227 681 b 211 673 195 663 181 652 l 181 652 b 176 647 176 639 180 634 z m 328 672 l 328 672 b 328 672 330 672 331 672 l 331 672 b 336 672 342 676 342 682 l 342 682 b 343 689 340 696 332 697 l 332 697 b 323 699 313 700 303 700 l 303 700 b 294 700 287 699 278 697 l 278 697 b 271 696 266 690 268 684 l 268 684 b 269 676 275 672 281 672 l 281 672 l 281 672 b 289 673 295 675 303 675 l 303 675 b 312 675 319 673 328 672 z"},"F":{"x_min":0,"x_max":605,"ha":605,"o":"m 104 635 b 104 629 110 622 117 622 b 125 622 130 629 130 635 l 130 674 l 171 674 b 179 674 184 681 184 687 b 184 695 179 700 171 700 l 120 700 l 117 700 b 110 700 104 695 104 687 z m 104 324 b 104 318 110 311 117 311 b 125 311 130 318 130 324 l 130 329 l 171 329 b 179 329 184 334 184 342 b 184 349 179 355 171 355 l 130 355 l 130 376 b 130 384 125 389 117 389 b 110 389 104 384 104 376 z m 379 329 b 387 329 392 334 392 342 b 392 349 387 355 379 355 l 327 355 b 319 355 314 349 314 342 b 314 334 319 329 327 329 z m 275 329 b 283 329 288 334 288 342 b 288 349 283 355 275 355 l 223 355 b 215 355 210 349 210 342 b 210 334 215 329 223 329 z m 104 13 b 104 6 110 0 117 0 b 125 0 130 6 130 13 l 130 65 b 130 73 125 78 117 78 b 110 78 104 73 104 65 z m 275 674 b 283 674 288 681 288 687 b 288 695 283 700 275 700 l 223 700 b 215 700 210 695 210 687 b 210 681 215 674 223 674 z m 379 674 b 387 674 392 681 392 687 b 392 695 387 700 379 700 l 327 700 b 319 700 314 695 314 687 b 314 681 319 674 327 674 z m 104 428 b 104 421 110 415 117 415 b 125 415 130 421 130 428 l 130 480 b 130 487 125 493 117 493 b 110 493 104 487 104 480 z m 104 220 b 104 214 110 207 117 207 b 125 207 130 214 130 220 l 130 272 b 130 280 125 285 117 285 b 110 285 104 280 104 272 z m 104 117 b 104 110 110 104 117 104 b 125 104 130 110 130 117 l 130 169 b 130 176 125 181 117 181 b 110 181 104 176 104 169 z m 104 531 b 104 525 110 519 117 519 b 125 519 130 525 130 531 l 130 583 b 130 591 125 596 117 596 b 110 596 104 591 104 583 z m 483 674 b 490 674 495 681 495 687 b 495 695 490 700 483 700 l 431 700 b 423 700 418 695 418 687 b 418 681 423 674 431 674 z m 455 329 b 463 329 468 334 468 342 b 468 349 463 355 455 355 l 431 355 b 423 355 418 349 418 342 b 418 334 423 329 431 329 z"},"k":{"x_min":0,"x_max":560,"ha":560,"o":"m 93 130 b 93 123 98 118 106 118 b 112 118 118 123 118 130 l 118 133 b 119 133 120 134 121 135 l 156 172 b 161 176 161 185 156 190 b 151 195 144 195 139 190 l 118 168 l 118 181 b 118 187 112 194 106 194 b 98 194 93 187 93 181 z m 396 58 b 398 54 401 53 404 53 b 407 53 411 54 413 56 b 418 61 418 68 415 75 l 383 113 b 378 119 370 119 364 115 b 359 110 359 103 363 97 z m 266 214 b 269 211 273 210 275 210 b 279 210 282 210 284 213 b 289 216 290 225 285 230 l 254 270 b 249 275 241 276 236 271 b 230 267 230 258 234 253 z m 317 351 b 320 348 323 347 326 347 b 330 347 334 348 336 351 l 371 386 b 377 391 377 399 371 404 b 366 409 359 409 354 404 l 317 368 b 312 363 312 356 317 351 z m 246 278 b 249 276 251 275 255 275 b 258 275 261 276 264 278 l 299 315 b 304 320 304 328 299 333 b 294 338 287 338 282 333 l 246 296 b 241 292 241 284 246 278 z m 93 333 b 93 325 98 320 106 320 b 112 320 118 325 118 333 l 118 384 b 118 390 112 396 106 396 b 98 396 93 390 93 384 z m 93 637 b 93 629 98 624 106 624 b 112 624 118 629 118 637 l 118 687 b 118 694 112 700 106 700 b 98 700 93 694 93 687 z m 93 232 b 93 224 98 219 106 219 b 112 219 118 224 118 232 l 118 282 b 118 289 112 295 106 295 b 98 295 93 289 93 282 z m 93 29 b 93 22 98 16 106 16 b 112 16 118 22 118 29 l 118 80 b 118 86 112 92 106 92 b 98 92 93 86 93 80 z m 93 535 b 93 528 98 523 106 523 b 112 523 118 528 118 535 l 118 586 b 118 592 112 599 106 599 b 98 599 93 592 93 586 z m 174 208 b 177 205 180 204 183 204 b 187 204 189 205 192 208 l 228 243 b 234 248 234 256 228 261 b 223 266 215 266 211 261 l 174 225 b 169 220 169 213 174 208 z m 389 423 b 392 420 394 419 398 419 b 402 419 404 420 407 423 l 442 458 b 447 463 447 471 442 476 b 437 481 430 481 425 476 l 389 441 b 384 435 384 427 389 423 z m 331 137 b 334 133 336 132 340 132 b 344 132 346 133 349 134 b 354 139 355 147 350 152 l 318 191 b 313 196 306 197 301 192 b 294 189 294 181 298 175 z m 93 434 b 93 427 98 422 106 422 b 112 422 118 427 118 434 l 118 485 b 118 491 112 497 106 497 b 98 497 93 491 93 485 z m 439 5 b 441 3 445 0 449 0 b 451 0 454 1 456 4 b 461 8 463 15 458 22 l 446 35 b 442 41 435 42 428 37 b 423 32 422 24 427 19 z"},"u":{"x_min":0,"x_max":613,"ha":613,"o":"m 285 11 l 285 11 b 285 5 292 0 298 0 l 298 0 b 298 0 298 0 299 0 l 299 0 b 317 3 334 6 350 13 l 350 13 b 357 15 361 22 358 29 l 358 29 b 355 35 348 39 342 36 l 342 36 b 328 30 313 27 297 25 l 297 25 b 289 25 284 19 285 11 z m 245 3 l 245 3 b 246 3 246 3 248 3 l 248 3 b 254 3 259 6 260 13 l 260 13 b 262 20 257 27 250 27 l 250 27 b 234 30 219 35 205 41 l 205 41 b 199 46 192 43 189 36 l 189 36 b 186 30 189 22 195 19 l 195 19 b 210 11 227 6 245 3 z m 381 41 l 381 41 b 383 38 387 36 391 36 l 391 36 b 393 36 396 36 399 39 l 399 39 b 412 49 425 62 436 76 l 436 76 b 440 82 440 89 434 95 l 434 95 b 429 98 421 97 416 92 l 416 92 b 407 79 396 68 383 59 l 383 59 b 377 54 376 46 381 41 z m 150 49 l 150 49 b 152 46 156 46 159 46 l 159 46 b 162 46 165 48 167 50 l 167 50 b 172 55 172 63 167 68 l 167 68 b 154 78 145 90 136 103 l 136 103 b 132 109 124 111 118 107 l 118 107 b 113 103 110 95 115 89 l 115 89 b 124 74 137 60 150 49 z m 446 116 l 446 116 b 448 114 450 114 451 114 l 451 114 b 456 114 461 117 462 122 l 462 122 b 470 138 474 156 476 174 l 476 174 b 476 181 472 187 465 188 l 465 188 b 459 188 453 183 451 177 l 451 177 l 451 177 b 448 161 445 146 440 132 l 440 132 b 437 125 440 118 446 116 z m 92 138 l 92 138 b 94 132 99 130 105 130 l 105 130 b 105 130 107 130 108 130 l 108 130 b 115 132 118 138 116 146 l 116 146 b 112 160 110 176 108 191 l 108 191 b 108 199 103 204 96 204 l 96 204 b 88 204 83 197 83 191 l 83 191 b 84 172 87 155 92 138 z m 453 226 l 453 226 b 453 218 458 214 465 214 l 465 214 b 472 214 478 218 478 226 l 478 277 l 478 277 b 478 283 472 289 465 289 l 465 289 b 458 289 453 283 453 277 z m 83 242 l 83 242 b 83 235 89 229 96 229 l 96 229 b 103 229 108 235 108 242 l 108 291 l 108 291 b 108 299 103 304 96 304 l 96 304 b 89 304 83 299 83 291 z m 453 327 l 453 327 b 453 319 458 314 465 314 l 465 314 b 472 314 478 319 478 327 l 478 377 l 478 377 b 478 383 472 389 465 389 l 465 389 b 458 389 453 383 453 377 z m 83 342 l 83 342 b 83 335 89 329 96 329 l 96 329 b 103 329 108 335 108 342 l 108 392 l 108 392 b 108 400 103 405 96 405 l 96 405 b 89 405 83 400 83 392 z m 453 427 l 453 427 b 453 419 458 415 465 415 l 465 415 b 472 415 478 419 478 427 l 478 478 l 478 478 b 478 484 472 490 465 490 l 465 490 b 458 490 453 484 453 478 z m 83 443 l 83 443 b 83 436 89 430 96 430 l 96 430 b 103 430 108 436 108 443 l 108 478 l 108 478 b 108 484 103 490 96 490 l 96 490 b 89 490 83 484 83 478 z"},"]":{"x_min":0,"x_max":430,"ha":430,"o":"m 211 -95 b 219 -95 226 -88 226 -80 b 226 -76 225 -73 223 -71 b 225 -68 226 -65 226 -62 l 226 -4 b 226 4 219 10 211 10 b 203 10 197 4 197 -4 l 197 -62 b 197 -63 197 -64 198 -66 l 153 -66 b 145 -66 139 -72 139 -80 b 139 -88 145 -95 153 -95 z m 226 633 l 226 691 b 226 698 220 704 213 705 l 211 705 l 209 705 l 153 705 b 145 705 139 699 139 691 b 139 683 145 676 153 676 l 197 676 l 197 633 b 197 625 203 618 211 618 b 219 618 226 625 226 633 z m 226 285 l 226 343 b 226 351 219 358 211 358 b 203 358 197 351 197 343 l 197 285 b 197 277 203 271 211 271 b 219 271 226 277 226 285 z m 226 54 l 226 112 b 226 120 219 126 211 126 b 203 126 197 120 197 112 l 197 54 b 197 46 203 39 211 39 b 219 39 226 46 226 54 z m 226 401 l 226 459 b 226 467 219 474 211 474 b 203 474 197 467 197 459 l 197 401 b 197 393 203 387 211 387 b 219 387 226 393 226 401 z m 226 170 l 226 227 b 226 235 219 242 211 242 b 203 242 197 235 197 227 l 197 170 b 197 162 203 155 211 155 b 219 155 226 162 226 170 z m 226 517 l 226 575 b 226 583 219 589 211 589 b 203 589 197 583 197 575 l 197 517 b 197 509 203 503 211 503 b 219 503 226 509 226 517 z m 95 676 b 103 676 110 683 110 691 b 110 699 103 705 95 705 l 70 705 b 62 705 55 699 55 691 b 55 683 62 676 70 676 z m 95 -95 b 103 -95 110 -88 110 -80 b 110 -72 103 -66 95 -66 l 70 -66 b 62 -66 55 -72 55 -80 b 55 -88 62 -95 70 -95 z"},"U":{"x_min":0,"x_max":814,"ha":814,"o":"m 350 1 l 350 1 b 361 0 374 0 385 0 l 385 0 b 392 0 397 0 403 0 l 403 0 b 409 0 416 6 414 14 l 414 14 b 414 20 408 25 402 25 l 402 25 b 397 25 390 25 385 25 l 385 25 b 374 25 364 25 354 27 l 354 27 b 346 28 340 23 338 16 l 338 16 b 338 9 343 3 350 1 z m 440 18 l 440 18 b 441 11 446 8 452 8 l 452 8 b 454 8 454 8 455 9 l 455 9 b 473 13 489 19 506 27 l 506 27 b 512 29 515 37 511 43 l 511 43 b 508 49 501 52 494 49 l 494 49 b 480 42 465 37 449 33 l 449 33 b 442 32 439 24 440 18 z m 298 14 l 298 14 b 299 13 300 13 302 13 l 302 13 b 308 13 313 16 314 22 l 314 22 b 317 28 313 36 307 38 l 307 38 b 290 43 276 49 262 57 l 262 57 b 256 60 248 58 244 52 l 244 52 b 241 46 243 38 250 34 l 250 34 b 265 25 281 19 298 14 z m 534 56 l 534 56 b 535 53 540 51 544 51 l 544 51 b 546 51 549 52 551 53 l 551 53 b 565 63 578 76 591 89 l 591 89 b 596 94 594 101 589 107 l 589 107 b 584 112 577 112 572 107 l 572 107 b 562 94 549 84 536 74 l 536 74 b 530 70 529 62 534 56 z m 205 65 l 205 65 b 208 62 212 62 214 62 l 214 62 b 218 62 222 63 224 66 l 224 66 b 228 71 228 80 222 84 l 222 84 b 210 94 199 105 187 118 l 187 118 b 184 124 176 124 170 120 l 170 120 b 165 115 165 108 168 103 l 168 103 b 180 89 192 76 205 65 z m 606 127 l 606 127 b 607 126 610 124 612 124 l 612 124 b 616 124 620 127 622 131 l 622 131 b 633 146 640 161 646 178 l 646 178 b 649 184 646 191 640 194 l 640 194 b 633 197 626 194 624 188 l 624 188 l 624 188 b 617 172 610 157 601 145 l 601 145 b 597 138 600 131 606 127 z m 139 146 l 139 146 b 141 142 146 139 149 139 l 149 139 b 152 139 154 139 156 141 l 156 141 b 162 145 165 152 161 159 l 161 159 b 153 172 147 188 142 203 l 142 203 b 141 209 133 213 127 211 l 127 211 b 119 209 116 202 118 195 l 118 195 b 123 178 130 161 139 146 z m 646 219 l 646 219 b 648 218 648 218 649 218 l 649 218 b 655 218 660 223 662 230 l 662 230 b 664 246 666 262 666 280 l 666 282 l 666 282 b 666 289 660 294 653 294 l 653 294 b 646 294 640 289 640 282 l 640 280 l 640 280 b 640 264 639 249 636 233 l 636 233 b 635 227 640 221 646 219 z m 106 247 l 106 247 b 108 240 113 236 119 236 l 119 236 b 120 236 120 236 120 236 l 120 236 b 128 236 133 242 132 250 l 132 250 l 132 250 b 130 260 130 270 130 280 l 130 299 l 130 299 b 130 306 124 312 118 312 l 118 312 b 110 312 105 306 105 299 l 105 280 l 105 280 b 105 269 105 257 106 247 z m 640 332 l 640 332 b 640 326 646 320 653 320 l 653 320 b 660 320 666 326 666 332 l 666 383 l 666 383 b 666 391 660 396 653 396 l 653 396 b 646 396 640 391 640 383 z m 105 350 l 105 350 b 105 342 110 337 118 337 l 118 337 b 124 337 130 342 130 350 l 130 401 l 130 401 b 130 407 124 413 118 413 l 118 413 b 110 413 105 407 105 401 z m 640 434 l 640 434 b 640 427 646 421 653 421 l 653 421 b 660 421 666 427 666 434 l 666 484 l 666 484 b 666 492 660 497 653 497 l 653 497 b 646 497 640 492 640 484 z m 105 451 l 105 451 b 105 444 110 439 118 439 l 118 439 b 124 439 130 444 130 451 l 130 502 l 130 502 b 130 509 124 515 118 515 l 118 515 b 110 515 105 509 105 502 z m 640 535 l 640 535 b 640 529 646 522 653 522 l 653 522 b 660 522 666 529 666 535 l 666 586 l 666 586 b 666 593 660 599 653 599 l 653 599 b 646 599 640 593 640 586 z m 105 553 l 105 553 b 105 545 110 540 118 540 l 118 540 b 124 540 130 545 130 553 l 130 604 l 130 604 b 130 610 124 616 118 616 l 118 616 b 110 616 105 610 105 604 z m 640 637 l 640 637 b 640 630 646 624 653 624 l 653 624 b 660 624 666 630 666 637 l 666 687 l 666 687 b 666 695 660 700 653 700 l 653 700 b 646 700 640 695 640 687 z m 105 654 l 105 654 b 105 647 110 642 118 642 l 118 642 b 124 642 130 647 130 654 l 130 687 l 130 687 b 130 695 124 700 118 700 l 118 700 b 110 700 105 695 105 687 z"}}}
